<?xml version="1.0" standalone="no"?>
<!DOCTYPE svg PUBLIC "-//W3C//DTD SVG 20010904//EN"
 "http://www.w3.org/TR/2001/REC-SVG-20010904/DTD/svg10.dtd">
<svg version="1.0" xmlns="http://www.w3.org/2000/svg"
 width="1024.000000pt" height="821.000000pt" viewBox="0 0 1024.000000 821.000000"
 preserveAspectRatio="xMidYMid meet">

<g transform="translate(0.000000,821.000000) scale(0.100000,-0.100000)"
fill="#000000" stroke="none">
<path d="M9251 8173 c-7 -21 -19 -51 -26 -68 -26 -59 -78 -211 -100 -295 -23
-86 -79 -248 -115 -330 -88 -204 -321 -913 -376 -1145 -8 -33 -30 -116 -49
-185 -20 -69 -42 -152 -51 -185 -9 -33 -22 -80 -29 -105 -7 -25 -25 -90 -40
-145 -14 -55 -31 -116 -37 -134 -6 -19 -16 -58 -23 -85 -7 -28 -27 -87 -43
-131 -67 -181 -132 -400 -188 -635 -12 -52 -29 -114 -37 -137 -9 -23 -18 -63
-22 -90 -5 -38 -30 -127 -39 -140 -6 -7 -76 20 -76 29 0 5 7 8 15 4 20 -7 19
18 -1 35 -12 10 -27 10 -77 0 -34 -6 -73 -13 -87 -14 -14 -1 -38 -7 -55 -13
-55 -21 -99 -32 -220 -59 -66 -14 -160 -37 -209 -51 -48 -14 -90 -23 -93 -20
-3 2 -15 44 -28 93 -40 151 -76 227 -135 276 -34 29 -101 61 -150 72 l-33 7 6
82 c9 111 15 265 27 636 6 173 12 349 15 390 2 41 7 147 11 235 l6 160 -25 23
c-22 21 -47 26 -243 48 -121 13 -271 26 -336 28 -119 4 -158 16 -172 53 -3 8
1 59 9 112 23 145 34 317 30 491 -3 137 -7 167 -33 255 -30 99 -71 181 -124
243 -27 33 -138 92 -171 92 -9 0 -25 4 -35 10 -9 5 -44 18 -78 29 -49 15 -74
17 -135 11 -76 -8 -174 -39 -219 -70 -14 -10 -36 -21 -49 -25 -23 -7 -142
-102 -173 -140 -20 -23 -24 -45 -6 -27 7 7 16 12 20 12 16 0 7 -22 -19 -48
-15 -15 -28 -29 -28 -32 0 -3 -20 -25 -43 -50 -48 -50 -152 -200 -152 -218 0
-25 16 -9 41 40 14 29 35 58 46 65 20 13 20 13 3 -37 -9 -28 -20 -53 -24 -57
-3 -3 -6 -11 -6 -17 0 -5 18 9 40 32 22 23 53 45 68 48 15 4 29 10 32 13 3 3
29 25 58 49 52 43 67 49 35 13 -10 -11 -23 -26 -30 -34 -7 -9 -22 -22 -35 -31
-12 -9 -19 -18 -17 -21 3 -3 26 10 50 29 45 34 89 54 89 39 0 -4 -14 -16 -31
-26 -18 -10 -29 -20 -26 -24 4 -3 -6 -22 -22 -42 -65 -83 -83 -152 -20 -78 22
26 46 47 53 47 7 0 34 11 59 24 53 28 67 26 151 -21 45 -26 61 -31 68 -21 6
10 8 10 8 1 0 -7 7 -10 15 -7 8 4 15 15 15 27 0 25 65 165 90 192 21 24 70
115 70 132 0 6 5 15 11 19 13 8 4 -44 -16 -91 -7 -16 -20 -50 -30 -75 -32 -81
-55 -135 -65 -150 -6 -8 -15 -27 -21 -42 -6 -16 -15 -28 -20 -28 -5 0 -9 -6
-9 -14 0 -15 21 -26 49 -26 26 0 73 -26 99 -53 22 -23 62 -122 62 -152 0 -9 7
-27 16 -40 14 -21 15 -32 5 -71 -7 -25 -18 -56 -27 -69 -8 -12 -11 -30 -8 -40
5 -12 4 -16 -3 -12 -6 4 -24 0 -41 -9 -26 -12 -35 -13 -54 -3 -23 13 -129 38
-160 39 -10 0 -18 -4 -18 -8 0 -5 30 -14 68 -22 37 -7 79 -19 93 -26 37 -18
98 -21 108 -5 11 18 51 5 73 -23 14 -17 18 -18 18 -5 0 9 7 22 14 29 8 6 23
46 32 88 15 64 19 72 23 48 9 -47 25 -33 42 36 13 49 18 58 23 41 9 -28 0
-211 -14 -283 -37 -193 -57 -423 -39 -452 9 -14 29 -1 29 19 0 9 2 14 5 11 6
-5 -10 -88 -21 -118 -9 -23 -12 -78 -4 -89 3 -6 16 -12 29 -13 17 -2 25 3 27
17 7 48 18 81 29 90 7 6 26 48 41 95 34 103 44 82 14 -31 -20 -80 -21 -115 0
-68 5 13 14 31 19 39 5 8 14 26 20 40 7 14 19 36 27 50 16 25 16 23 3 -30 -2
-8 -8 -18 -13 -21 -5 -4 -6 -13 -4 -20 4 -9 10 -5 18 12 9 19 19 26 36 25 22
-1 24 -4 18 -31 -4 -16 -7 -41 -6 -54 1 -13 -3 -30 -9 -37 -9 -10 -9 -14 0
-14 6 0 11 5 11 11 0 5 4 8 10 4 5 -3 1 -20 -10 -41 -34 -59 -20 -104 16 -50
8 14 21 23 28 20 8 -3 16 4 19 16 3 13 0 23 -9 27 -8 3 -14 11 -14 19 0 8 6
11 16 7 14 -5 16 -2 10 20 -4 18 0 38 14 63 12 20 19 41 16 48 -3 6 -8 1 -11
-11 -4 -13 -11 -23 -15 -23 -8 0 -20 59 -20 95 1 18 1 19 11 3 5 -10 19 -18
29 -18 11 0 20 -7 20 -15 0 -8 5 -15 11 -15 6 0 9 -12 6 -27 -2 -16 -2 -22 0
-15 3 9 13 12 28 8 14 -4 26 -1 29 7 3 6 2 -1 -1 -17 -5 -25 -3 -28 12 -23 14
6 16 3 11 -19 -5 -19 -3 -24 5 -18 9 5 10 1 7 -14 -5 -17 -2 -22 13 -22 10 0
19 -7 19 -15 0 -8 8 -15 17 -15 13 0 14 -3 5 -12 -17 -17 -15 -33 3 -18 24 20
19 -16 -6 -41 -11 -11 -18 -24 -14 -27 4 -4 15 4 26 17 16 20 19 21 19 5 0
-10 -10 -28 -22 -41 -12 -13 -17 -23 -11 -23 6 0 20 12 31 27 23 31 43 23 23
-8 -11 -19 -10 -20 8 -14 24 7 27 -2 7 -24 -8 -9 -17 -33 -21 -53 -7 -35 -5
-38 16 -38 22 0 20 -3 -19 -41 -23 -23 -41 -43 -39 -46 2 -2 24 8 49 22 51 28
137 43 119 21 -6 -7 -7 -16 -3 -20 4 -4 8 -29 8 -56 1 -26 4 -53 8 -59 4 -6 4
-16 0 -22 -3 -6 -6 -41 -6 -77 1 -37 -6 -104 -14 -148 -16 -90 -25 -296 -24
-559 1 -181 -13 -270 -49 -310 -27 -31 -91 -132 -91 -145 0 -10 -18 -38 -60
-94 -8 -11 -33 -36 -55 -55 -22 -20 -53 -49 -70 -66 -16 -16 -32 -30 -35 -30
-3 0 -55 -36 -114 -80 -103 -75 -142 -100 -226 -142 -41 -21 -44 -23 -92 -64
-21 -17 -36 -35 -33 -40 9 -13 -43 -85 -71 -98 -33 -15 -33 -15 -45 17 l-11
27 -25 -53 c-14 -29 -27 -71 -30 -93 -3 -21 -10 -39 -14 -39 -5 0 -9 -5 -9
-10 0 -11 -117 -152 -150 -181 -19 -16 -50 -71 -50 -88 0 -5 9 -9 20 -8 13 1
18 7 15 17 -2 8 15 36 41 65 80 87 130 149 142 177 9 21 23 31 64 42 147 41
277 77 413 114 352 96 637 175 730 204 55 16 159 46 230 65 72 19 198 55 280
80 83 25 164 49 180 53 33 8 162 44 240 66 101 29 110 29 133 -1 26 -33 119
-138 184 -209 91 -100 99 -116 56 -116 -10 0 -23 -11 -29 -24 -7 -14 -43 -40
-92 -66 -45 -24 -118 -66 -162 -95 -70 -44 -331 -203 -427 -259 -18 -11 -98
-59 -178 -108 -170 -104 -167 -102 -245 -148 -34 -19 -70 -41 -80 -47 -11 -7
-35 -19 -53 -27 -28 -13 -117 -71 -132 -86 -3 -3 -30 -17 -60 -32 -30 -14 -82
-45 -115 -67 -33 -23 -65 -41 -71 -41 -6 0 -21 -9 -34 -20 -13 -11 -29 -20
-37 -20 -7 0 -13 -4 -13 -8 0 -4 -12 -13 -27 -20 -16 -6 -41 -21 -58 -31 -16
-11 -50 -30 -75 -42 -25 -12 -47 -24 -50 -28 -3 -3 -18 -13 -35 -21 -16 -8
-32 -18 -35 -22 -6 -7 -81 -51 -126 -72 -17 -8 -36 -22 -44 -30 -7 -9 -17 -16
-23 -16 -6 0 -24 -12 -40 -27 -23 -23 -27 -24 -21 -8 7 20 7 20 -17 0 -13 -11
-26 -22 -29 -25 -3 -3 -18 -11 -34 -18 -24 -11 -27 -15 -15 -24 11 -8 11 -9
-4 -4 -17 5 -116 -43 -144 -70 -15 -14 -7 -24 21 -25 21 0 21 -1 1 -9 -11 -5
-16 -9 -11 -9 4 -1 2 -11 -6 -23 -8 -13 -18 -45 -23 -73 -4 -27 -11 -58 -17
-68 -5 -10 -14 -39 -19 -65 -11 -59 -54 -254 -68 -307 -11 -43 -3 -60 27 -60
9 0 17 -8 17 -17 0 -25 13 -32 30 -18 9 7 18 10 22 6 3 -3 1 -6 -6 -6 -7 0
-10 -4 -6 -10 8 -12 -28 -47 -43 -42 -7 2 -12 -3 -12 -12 0 -10 10 -16 28 -17
20 -1 22 -3 7 -6 -11 -3 -34 -16 -52 -30 -18 -14 -37 -22 -43 -18 -5 3 -10 0
-10 -7 0 -16 -74 -64 -112 -73 -21 -5 -30 -16 -38 -44 -5 -20 -18 -67 -29
-106 -10 -38 -20 -77 -22 -85 -7 -28 73 -17 127 17 27 17 65 40 84 51 62 34
695 421 815 497 143 91 222 140 345 215 272 167 543 339 747 473 141 93 152
102 147 126 -4 20 1 33 19 52 28 27 110 162 121 197 10 29 20 28 37 -5 8 -16
18 -31 23 -35 19 -13 203 -319 336 -558 164 -293 201 -368 205 -403 1 -17 32
-85 69 -150 90 -161 81 -151 143 -164 21 -5 209 40 988 233 383 96 434 111
436 129 1 5 3 20 4 33 1 13 7 28 14 35 20 20 12 46 -40 114 -121 162 -208 287
-204 292 3 3 94 -83 203 -190 108 -107 218 -213 243 -234 25 -22 50 -49 57
-60 9 -15 11 781 12 3283 l0 3302 -488 0 -488 0 -13 -37z m-3241 -1480 c-11
-17 -11 -17 -6 0 3 10 7 26 7 35 1 15 2 15 6 0 2 -10 -1 -25 -7 -35z m590
-625 c0 -6 -15 4 -34 23 -19 18 -32 37 -30 41 6 10 64 -49 64 -64z m72 49
c-29 -31 -28 -46 1 -20 36 33 54 38 27 8 l-25 -28 25 13 25 13 -27 -30 c-28
-29 -37 -50 -18 -38 6 3 10 2 10 -4 0 -5 -4 -13 -10 -16 -5 -3 -10 -1 -10 4 0
6 -6 11 -13 11 -7 0 -22 6 -33 14 -18 14 -18 16 21 55 21 23 41 41 44 41 2 0
-5 -10 -17 -23z m-42 -7 c-6 -11 -15 -20 -20 -20 -6 0 -2 9 7 20 10 11 19 20
21 20 1 0 -2 -9 -8 -20z m-298 -35 c0 -5 -5 -11 -11 -13 -6 -2 -11 4 -11 13 0
9 5 15 11 13 6 -2 11 -8 11 -13z m440 -7 c-7 -7 -12 -8 -12 -2 0 14 12 26 19
19 2 -3 -1 -11 -7 -17z m-60 -20 c-7 -7 -12 -8 -12 -2 0 14 12 26 19 19 2 -3
-1 -11 -7 -17z m25 -13 c-9 -7 -16 -19 -14 -26 2 -8 2 -10 -1 -6 -2 4 -11 2
-20 -5 -13 -11 -15 -11 -7 2 14 27 48 60 54 54 3 -3 -2 -11 -12 -19z m-485
-47 c-7 -7 -12 -8 -12 -2 0 14 12 26 19 19 2 -3 -1 -11 -7 -17z m308 -148 c0
-5 -4 -10 -10 -10 -5 0 -10 5 -10 10 0 6 5 10 10 10 6 0 10 -4 10 -10z m400
-1569 c81 -39 76 -59 -20 -82 -41 -10 -90 -18 -107 -19 -33 0 -43 12 -22 26 7
4 9 21 5 43 -12 76 34 87 144 32z m1322 -753 c17 -18 56 -62 87 -98 31 -36 59
-66 63 -68 14 -6 100 -113 95 -118 -2 -3 -49 -16 -103 -30 -55 -14 -177 -45
-273 -70 -95 -25 -175 -43 -178 -41 -2 3 47 106 109 231 108 216 114 226 141
226 20 0 39 -10 59 -32z m340 -480 c24 -20 118 -163 118 -181 0 -21 -7 -25
-98 -51 -77 -22 -77 -22 -74 -54 3 -28 0 -32 -20 -32 -13 0 -41 -7 -63 -14
-45 -16 -55 -13 -55 16 0 14 5 18 15 15 8 -4 17 -2 20 3 10 16 -15 12 -130
-20 -60 -17 -118 -30 -129 -28 -23 3 -125 160 -125 195 -1 24 -1 24 164 68 55
14 152 42 215 60 132 38 140 40 162 23z m-662 -38 c0 -10 9 -22 20 -25 11 -3
20 -15 20 -26 0 -14 -7 -19 -28 -19 -15 0 -33 -5 -39 -11 -17 -17 -43 -3 -43
21 0 13 10 24 28 31 15 7 22 13 15 16 -7 3 -13 11 -13 18 0 14 20 25 33 18 4
-2 7 -13 7 -23z m-70 -174 c0 -5 -9 -1 -20 9 -14 13 -20 14 -20 5 0 -7 -3 -11
-6 -8 -3 4 0 16 6 29 l13 22 13 -24 c7 -13 13 -28 14 -33z m-770 4 c0 -5 -5
-10 -11 -10 -5 0 -7 5 -4 10 3 6 8 10 11 10 2 0 4 -4 4 -10z m940 -277 c57
-98 120 -206 141 -240 22 -34 39 -65 39 -69 0 -3 26 -49 59 -102 32 -53 100
-169 150 -257 51 -88 96 -164 101 -168 4 -5 29 -2 56 7 27 8 130 38 229 66
295 85 649 191 668 202 26 13 59 7 48 -10 -7 -13 -81 -36 -606 -192 -115 -35
-243 -73 -284 -86 -40 -13 -84 -24 -96 -24 -27 0 -28 3 -130 185 -73 130 -157
275 -294 505 -31 52 -58 99 -60 105 -2 5 -9 17 -16 25 -19 23 -145 253 -145
265 1 20 39 -38 140 -212z m-1263 145 c-3 -8 -6 -5 -6 6 -1 11 2 17 5 13 3 -3
4 -12 1 -19z m973 -48 c0 -5 -2 -10 -4 -10 -3 0 -8 5 -11 10 -3 6 -1 10 4 10
6 0 11 -4 11 -10z m-200 -25 c19 -1 53 -11 74 -22 l40 -20 -43 -29 c-23 -16
-65 -46 -94 -66 -28 -21 -56 -38 -62 -38 -6 0 -36 -13 -68 -30 -31 -16 -59
-30 -62 -30 -3 0 -9 0 -15 0 -5 0 -10 -7 -10 -15 0 -10 -9 -15 -27 -14 -16 0
-22 3 -15 6 6 2 12 11 12 18 0 7 16 27 35 44 l36 31 -16 65 c-9 35 -14 69 -11
74 6 8 57 -5 84 -22 8 -6 12 -2 12 11 0 23 57 55 80 45 8 -3 31 -7 50 -8z
m391 -300 c78 -137 153 -269 166 -292 13 -24 20 -43 16 -43 -4 0 -23 28 -42
63 -19 34 -68 118 -109 187 -41 69 -96 161 -122 205 -53 89 -90 160 -90 172 1
19 49 -59 181 -292z m-696 6 c-24 -23 -65 -37 -65 -22 0 6 9 11 21 11 15 0 19
5 15 15 -4 11 2 15 22 15 26 0 26 0 7 -19z m1433 -487 c2 -16 -8 -23 -53 -38
-59 -18 -75 -16 -75 13 0 17 30 29 82 35 3 1 10 4 14 9 12 12 29 2 32 -19z
m1262 -119 c0 -8 -43 -27 -104 -45 -34 -10 -158 -48 -276 -85 -270 -84 -1009
-295 -1032 -295 -16 0 -34 17 -26 26 6 5 539 167 713 215 377 106 682 187 708
188 9 1 17 -1 17 -4z m-4300 -365 c0 -5 -7 -10 -16 -10 -8 0 -12 5 -9 10 3 6
10 10 16 10 5 0 9 -4 9 -10z"/>
<path d="M6641 6073 c-1 -6 4 -15 10 -19 13 -8 36 13 25 23 -4 4 -11 1 -15 -6
-7 -11 -10 -11 -14 0 -3 9 -6 10 -6 2z"/>
<path d="M3080 7178 c-19 -4 -54 -5 -78 -2 -37 6 -46 3 -67 -20 -15 -16 -35
-26 -52 -26 -52 0 -224 -95 -296 -163 -106 -101 -150 -187 -232 -444 -21 -68
-22 -77 -2 -74 14 2 7 -15 -28 -69 -19 -30 -35 -58 -35 -62 0 -4 -11 -24 -25
-44 -24 -35 -37 -76 -14 -44 8 11 9 8 4 -15 -4 -16 -7 -30 -8 -31 -1 -1 -58
-11 -127 -23 -69 -13 -152 -29 -185 -36 -33 -8 -91 -21 -130 -29 -117 -25
-317 -70 -630 -142 -181 -41 -191 -44 -297 -73 -117 -32 -221 -60 -342 -92
-66 -17 -118 -37 -130 -49 -25 -24 -22 -37 57 -300 56 -188 180 -624 216 -760
10 -41 33 -125 50 -186 56 -198 99 -378 94 -389 -2 -7 -26 -22 -54 -34 -66
-30 -145 -93 -165 -133 -28 -53 -13 -227 35 -423 21 -88 49 -203 61 -255 12
-52 42 -165 65 -250 23 -85 41 -156 40 -158 -1 -1 -35 -11 -76 -23 -67 -18
-110 -27 -279 -58 -30 -6 -86 -18 -125 -26 -38 -9 -99 -21 -135 -26 -36 -5
-81 -14 -100 -18 -19 -5 -47 -12 -62 -15 l-28 -6 0 -215 c0 -198 1 -215 18
-215 21 1 127 26 139 33 19 12 117 17 129 6 9 -7 14 -33 14 -69 0 -63 -15 -85
-61 -88 -14 -1 -64 -11 -110 -22 -46 -11 -94 -20 -106 -20 -23 0 -23 -2 -23
-115 0 -63 3 -115 8 -115 4 0 14 18 23 39 14 33 24 42 59 51 39 11 41 13 35
41 -5 23 -3 30 12 35 10 3 26 10 35 15 10 5 33 9 51 9 18 0 37 4 43 9 5 5 32
14 59 19 28 6 61 13 75 16 14 4 45 11 70 16 92 18 155 44 155 64 0 10 7 22 15
26 8 4 24 12 35 17 33 17 105 26 105 14 0 -6 8 -20 18 -31 9 -11 19 -30 22
-43 4 -14 15 -23 31 -25 24 -3 161 28 279 63 25 7 74 18 110 24 63 12 142 29
345 77 55 12 237 55 405 94 168 39 406 95 530 124 492 118 462 113 536 86 32
-12 75 -26 94 -30 19 -4 79 -20 133 -34 53 -14 101 -26 105 -26 4 0 -20 14
-53 31 -33 17 -73 39 -90 49 -58 37 -81 48 -165 75 -100 32 -153 70 -213 151
-24 32 -61 71 -83 86 -21 16 -56 48 -77 72 -21 25 -63 71 -93 103 -29 32 -54
61 -54 66 0 4 -7 7 -15 7 -8 0 -15 6 -15 13 0 6 -18 31 -40 55 -21 24 -42 53
-46 65 -3 12 -12 29 -19 37 -7 8 -23 37 -36 64 -13 27 -29 51 -36 53 -7 3 -13
11 -13 19 0 8 -4 14 -10 14 -5 0 -10 5 -10 11 0 6 -12 26 -27 44 -16 17 -34
40 -40 51 -7 10 -40 58 -73 107 -34 49 -113 194 -179 330 -65 133 -139 274
-166 312 -26 39 -64 104 -83 145 -19 41 -52 112 -73 158 -86 184 -100 278 -50
334 24 27 36 32 88 36 52 4 69 0 129 -29 66 -32 135 -76 199 -127 17 -13 35
-41 41 -60 10 -36 13 -37 80 -49 96 -16 150 -37 201 -79 38 -31 94 -114 77
-114 -3 0 6 -20 20 -44 14 -24 23 -46 19 -49 -3 -4 2 -9 11 -13 9 -3 16 -10
16 -16 0 -10 33 -87 80 -183 16 -33 34 -78 41 -100 19 -63 24 -75 65 -157 69
-137 88 -172 115 -208 61 -82 136 -199 157 -245 13 -27 30 -63 38 -78 8 -16
14 -41 14 -56 0 -60 23 -146 44 -164 32 -26 102 -56 196 -83 211 -61 311 -98
359 -133 l34 -24 -6 48 c-7 47 -6 48 41 94 27 25 60 54 74 63 16 11 36 42 50
78 12 33 27 60 33 61 5 0 2 4 -8 8 -16 6 -15 11 17 51 20 25 36 51 36 58 0 7
11 17 23 23 29 13 26 50 -6 64 -12 6 -27 20 -33 32 -6 13 -19 32 -28 42 -10
11 -15 25 -11 30 3 6 1 11 -4 11 -14 0 -14 97 0 106 6 3 8 15 5 27 -8 32 38
81 108 116 35 17 66 31 70 31 3 0 15 9 26 20 11 11 26 20 33 19 10 0 10 -2 0
-6 -29 -11 -10 -18 42 -16 37 1 55 -2 55 -10 1 -7 9 -30 20 -52 22 -45 25 -65
10 -65 -5 0 -10 -6 -10 -12 0 -7 -7 -26 -15 -41 -9 -19 -12 -35 -6 -45 5 -10
4 -27 -2 -42 -5 -14 -9 -32 -8 -41 1 -9 -5 -22 -14 -29 -8 -7 -15 -25 -15 -39
0 -28 -36 -111 -52 -122 -14 -9 -2 -83 20 -123 3 -5 -2 -7 -11 -3 -16 6 -24
-11 -17 -38 6 -25 5 -77 -2 -81 -14 -9 -9 -23 20 -53 15 -16 35 -41 45 -55 11
-14 28 -26 40 -28 13 -2 31 -23 49 -58 39 -72 40 -73 74 -56 16 7 120 35 231
62 l201 49 6 40 c5 31 21 158 25 197 1 4 8 13 16 21 11 11 13 28 8 66 -3 28
-10 48 -14 45 -5 -3 -9 4 -9 16 0 27 -211 347 -250 380 -26 21 -130 199 -161
274 -45 111 -102 372 -97 451 6 113 -4 578 -16 699 -3 27 -11 53 -18 58 -10 6
-10 10 -1 16 15 9 11 152 -5 192 -21 55 -24 71 -12 68 7 -2 14 2 17 9 6 18
-35 11 -43 -7 -13 -30 -16 -247 -4 -355 6 -60 14 -147 17 -192 l6 -82 -27 -7
c-15 -3 -30 -3 -34 0 -3 4 -10 75 -14 159 -4 84 -10 167 -13 185 -9 49 -24
175 -34 282 -12 123 -51 214 -123 281 -28 26 -65 53 -82 60 -17 7 -32 13 -34
14 -1 1 5 33 14 71 27 116 3 253 -91 529 -19 55 -32 109 -29 120 8 32 -22 102
-68 156 -82 98 -204 215 -239 229 -19 8 -63 34 -98 57 -35 24 -76 46 -90 50
-14 3 -31 10 -38 15 -21 17 -76 25 -113 16z m-183 -626 c-22 -4 -57 16 -57 33
0 25 25 23 49 -3 20 -23 22 -28 8 -30z m-212 28 c-3 -5 -12 -10 -18 -10 -7 0
-6 4 3 10 19 12 23 12 15 0z m458 -110 c21 -30 141 -49 166 -26 22 20 52 15
120 -17 51 -25 60 -32 64 -49 3 -10 12 -18 20 -18 23 0 36 -48 39 -145 1 -67
6 -93 18 -102 13 -10 13 -13 -5 -27 -11 -9 -60 -37 -110 -62 -107 -56 -144
-93 -145 -146 0 -45 11 -54 33 -27 19 21 53 26 59 7 5 -14 85 20 136 59 18 13
40 23 50 21 23 -4 24 -66 3 -158 -14 -61 -23 -78 -66 -123 -28 -28 -57 -63
-66 -76 -14 -23 -16 -23 -33 -6 -18 18 -18 19 0 33 18 13 18 13 -5 10 -15 -2
-31 -15 -41 -33 -40 -72 -111 -124 -181 -132 -40 -5 -47 -8 -38 -19 9 -11 8
-18 -1 -29 -18 -21 -9 -26 47 -28 64 -2 76 -18 51 -68 -12 -26 -23 -37 -33
-33 -9 4 -35 1 -59 -5 -30 -7 -53 -7 -77 0 -19 6 -95 12 -169 13 -109 2 -145
6 -187 23 -99 39 -188 138 -146 161 38 22 53 137 32 248 -13 70 -18 81 -31 63
-5 -9 -6 -1 -2 22 7 43 -9 59 -35 35 -10 -9 -26 -16 -35 -16 -16 0 -18 8 -12
78 3 42 7 84 8 92 1 8 -2 26 -6 39 -5 15 -5 21 2 17 6 -4 8 2 4 16 -5 21 -6
21 -13 2 -4 -10 -8 -29 -8 -41 -1 -12 -5 -24 -10 -27 -20 -12 16 281 45 371 9
27 25 60 36 73 l20 25 -14 -25 c-9 -15 -15 -56 -16 -105 -1 -44 -5 -125 -10
-180 -7 -83 -5 -114 10 -180 10 -44 21 -87 24 -95 8 -21 34 42 45 110 20 119
25 130 74 170 24 19 44 40 44 46 1 17 -42 50 -61 46 -23 -4 -23 6 -1 30 16 18
16 19 -3 12 -17 -6 -17 -5 2 9 42 32 102 29 125 -5 14 -22 109 57 109 91 0 25
33 41 125 63 36 8 59 18 58 26 -5 20 35 14 50 -8z m-938 -540 c31 -45 30 -80
-4 -96 -13 -7 -28 -18 -32 -26 -6 -8 -9 -9 -9 -1 0 8 -13 7 -46 -3 -43 -13
-46 -12 -40 4 4 10 -1 8 -12 -7 -11 -13 -24 -21 -30 -17 -6 3 -16 -2 -22 -11
-9 -15 -10 -14 -5 7 6 24 5 24 -9 6 -8 -10 -19 -15 -25 -11 -6 3 -16 -6 -23
-20 -8 -19 -14 -22 -20 -13 -6 10 -10 10 -18 -2 -7 -11 -10 -11 -10 -2 0 8 -5
10 -12 5 -7 -4 -23 -8 -34 -8 -12 0 -29 -7 -38 -14 -13 -11 -16 -11 -16 0 0 8
-6 5 -14 -7 -9 -12 -24 -20 -38 -19 -13 1 -29 -2 -35 -8 -7 -5 -13 -6 -13 -2
0 5 -9 0 -20 -10 -11 -10 -20 -15 -20 -10 0 4 -7 2 -15 -5 -9 -7 -18 -10 -22
-7 -3 4 -11 3 -17 -2 -7 -6 -25 -12 -41 -15 -15 -3 -32 -11 -37 -18 -6 -10 -8
-10 -8 2 -1 12 -3 11 -11 -3 -6 -9 -15 -14 -21 -11 -6 4 -14 0 -19 -7 -6 -9
-9 -10 -9 -2 0 8 -9 7 -30 -3 -16 -9 -34 -13 -40 -9 -5 3 -10 1 -10 -5 0 -7
-6 -10 -14 -7 -7 3 -19 0 -25 -6 -6 -6 -11 -7 -11 -2 0 4 -10 0 -22 -11 -21
-19 -21 -19 -15 1 6 18 5 18 -5 4 -7 -9 -30 -22 -50 -29 -21 -8 -38 -18 -38
-22 0 -4 -3 -7 -7 -7 -5 1 -11 0 -15 -1 -12 -4 -27 -7 -37 -9 -11 -1 -29 -50
-28 -76 0 -11 -3 -31 -7 -45 -8 -24 -8 -24 8 -5 8 11 16 16 16 12 0 -13 -22
-51 -34 -59 -6 -4 -7 -11 -2 -15 4 -4 14 0 21 10 10 14 14 15 18 5 3 -7 5 -2
4 11 -1 13 3 25 8 27 6 2 11 -10 12 -26 2 -24 -2 -30 -17 -30 -11 0 -20 -4
-20 -9 0 -4 18 -6 41 -4 39 4 40 3 34 -19 -7 -22 -7 -23 8 -3 9 11 19 17 22
13 4 -4 0 -14 -9 -23 -9 -9 -16 -21 -16 -28 0 -6 7 -2 15 9 17 22 20 12 4 -19
-10 -21 -9 -21 10 2 27 30 27 16 1 -29 -19 -33 -19 -34 -1 -12 10 12 22 22 25
22 4 0 2 -10 -4 -22 -8 -17 -4 -15 15 7 l26 30 -26 -56 c-30 -66 -25 -109 7
-62 18 25 19 26 13 4 -5 -16 -4 -21 4 -17 16 10 14 1 -9 -44 -25 -48 -18 -53
11 -7 l21 32 -6 -28 c-5 -22 -4 -27 6 -21 7 4 4 -2 -6 -15 -17 -19 -18 -26 -8
-55 7 -18 10 -42 6 -52 -5 -18 -5 -18 10 0 9 11 16 24 16 30 0 5 3 7 6 4 3 -4
-2 -20 -10 -37 -19 -35 -19 -41 -6 -41 6 0 10 6 10 14 0 8 4 17 8 20 9 6 8
-72 -2 -81 -11 -11 -6 -23 9 -23 8 0 15 -5 15 -10 0 -6 -11 -8 -25 -4 -18 5
-25 2 -25 -9 0 -8 6 -18 13 -20 7 -4 6 -6 -4 -6 -9 -1 -20 6 -23 15 -3 8 -10
13 -15 10 -5 -3 -7 16 -6 42 l3 47 -16 -32 c-9 -18 -19 -33 -24 -33 -10 0 -10
13 0 26 4 5 -1 1 -10 -9 -11 -12 -18 -14 -18 -7 0 9 -7 7 -20 -5 -19 -18 -20
-17 -20 3 0 12 -4 22 -10 22 -12 0 -14 -47 -2 -54 5 -3 7 -21 6 -40 -3 -33 15
-54 36 -41 5 3 12 0 16 -6 4 -8 3 -9 -4 -5 -7 4 -12 1 -12 -8 0 -9 9 -21 19
-28 19 -12 19 -12 0 -36 -23 -30 -25 -50 -3 -28 24 24 36 19 19 -8 -16 -23
-15 -25 14 -42 17 -10 31 -24 31 -32 0 -9 -8 -7 -27 7 -14 12 -29 18 -32 15
-3 -3 4 -13 17 -21 12 -9 22 -25 22 -37 0 -17 2 -18 10 -6 5 8 10 10 10 5 0
-6 -5 -16 -11 -22 -6 -6 -14 -38 -18 -70 -5 -48 -3 -62 12 -79 10 -12 31 -47
47 -79 23 -46 26 -62 19 -87 -5 -19 -5 -38 1 -49 14 -26 12 -31 -10 -24 -15 5
-20 2 -20 -12 0 -11 5 -24 11 -30 8 -8 8 -17 1 -30 -10 -17 -11 -17 -19 4 -6
17 -12 20 -23 13 -10 -7 -11 -10 -2 -10 6 0 12 -4 12 -10 0 -16 -27 -12 -34 5
-3 8 4 21 17 30 14 10 18 18 11 25 -15 15 -54 0 -60 -25 -3 -13 -12 -26 -20
-29 -16 -6 -19 10 -3 20 7 4 1 13 -16 24 -19 13 -23 20 -14 25 7 5 17 1 24 -8
13 -18 42 -6 30 12 -5 9 4 11 31 9 31 -2 39 1 40 15 2 14 1 14 -3 1 -3 -10
-11 -14 -24 -10 -10 3 -28 9 -39 12 -14 4 -20 2 -20 -8 0 -11 -9 -13 -31 -10
-24 4 -28 7 -16 13 12 7 13 13 4 34 -14 30 -31 34 -22 5 3 -11 3 -20 -2 -20
-6 0 -43 99 -49 130 0 3 -4 12 -7 20 -3 8 -17 54 -31 102 -14 49 -28 93 -31
98 -4 6 -9 23 -11 38 -3 15 -30 104 -60 199 -30 94 -56 187 -57 206 -1 19 -6
32 -11 29 -5 -3 -7 5 -4 16 4 12 2 20 -2 17 -5 -3 -13 9 -19 27 -12 41 -34
121 -35 130 -1 3 -4 9 -8 13 -4 4 -4 14 -1 23 4 10 2 13 -5 8 -9 -5 -9 0 -2
19 14 36 12 43 -5 21 -18 -23 -19 -17 -5 20 10 25 9 26 -6 13 -16 -13 -17 -11
-10 14 5 20 3 27 -5 22 -8 -6 -8 -2 0 13 16 30 13 49 -4 26 -20 -27 -20 4 0
34 14 20 14 21 0 16 -8 -3 -15 -11 -15 -18 0 -28 -39 60 -74 166 -23 73 -36
127 -32 142 6 26 59 56 98 56 13 0 29 5 36 12 7 7 12 9 12 5 0 -3 11 -2 25 3
31 12 210 60 245 66 14 2 34 5 45 7 11 2 33 9 48 15 15 7 31 11 35 11 4 -1 9
0 12 1 3 1 16 4 30 5 14 1 37 7 53 13 30 13 163 47 212 56 42 7 153 32 200 44
22 6 58 14 80 18 44 7 67 11 75 14 3 1 10 3 15 5 6 1 12 3 15 5 3 1 16 3 30 4
14 1 30 4 35 8 6 3 55 13 110 23 55 9 102 19 105 21 2 3 8 -7 12 -22 4 -14 19
-43 33 -64z m1272 35 c20 -21 13 -26 -36 -27 -47 0 -56 4 -48 27 8 20 64 20
84 0z m319 -62 c-9 -65 -24 -111 -50 -153 -11 -19 -19 -43 -18 -53 2 -9 -5
-20 -14 -24 -10 -3 -27 -16 -38 -27 -20 -20 -21 -20 -24 -2 -4 19 20 40 48 41
10 0 14 8 13 23 -2 13 13 57 32 98 19 41 35 83 35 93 0 11 3 26 6 35 12 31 16
16 10 -31z m-1332 -93 l-7 -25 -7 26 c-4 15 -5 40 -2 55 l5 29 9 -30 c4 -16 5
-41 2 -55z m-65 -84 c1 -30 -3 -57 -9 -61 -5 -3 -10 0 -10 8 0 8 -7 20 -15 27
-15 13 -11 64 8 88 15 19 23 0 26 -62z m81 29 c0 -8 -4 -17 -10 -20 -6 -4 -10
5 -10 20 0 15 4 24 10 20 6 -3 10 -12 10 -20z m1557 -262 c-3 -5 1 -51 9 -103
7 -52 14 -167 14 -255 1 -88 6 -191 12 -230 6 -38 11 -92 12 -118 0 -26 6 -51
12 -55 6 -4 12 -33 13 -64 0 -31 6 -69 12 -84 15 -42 36 -208 29 -230 -4 -10
-3 -29 3 -41 7 -15 6 -36 -3 -67 -12 -45 -7 -72 12 -60 6 4 8 2 4 -4 -3 -6 -2
-13 3 -16 5 -3 12 -29 16 -56 6 -45 4 -54 -19 -84 -23 -31 -30 -34 -78 -33
-39 0 -67 -7 -108 -28 -30 -15 -57 -31 -60 -35 -3 -4 -20 -12 -39 -18 -27 -9
-41 -9 -62 0 -33 15 -40 42 -45 173 -5 115 -38 421 -60 551 -19 117 -14 177
21 227 12 19 26 45 30 57 4 13 19 44 34 69 45 76 69 143 76 210 13 113 104
301 147 301 10 0 17 -3 15 -7z m-2338 -75 c-5 -10 -14 -17 -20 -15 -6 1 -19
-13 -29 -32 -24 -43 -45 -65 -34 -36 7 18 6 19 -11 5 -17 -14 -17 -14 -4 8 8
12 16 17 18 11 2 -6 12 2 22 17 10 15 15 32 12 37 -3 6 -1 7 4 4 6 -4 14 4 17
18 5 21 9 23 20 13 10 -9 11 -18 5 -30z m-98 -35 c-12 -23 -20 -31 -21 -20 0
10 -4 15 -10 12 -15 -9 -12 9 5 31 13 16 14 16 9 2 -3 -10 -1 -18 4 -18 6 0
14 9 17 21 4 11 9 18 12 16 2 -3 -5 -22 -16 -44z m32 12 c-3 -9 -8 -14 -10
-11 -3 3 -2 9 2 15 9 16 15 13 8 -4z m927 0 c0 -8 5 -15 11 -15 6 0 9 -9 6
-20 -3 -13 2 -28 12 -38 10 -9 21 -29 25 -44 3 -15 13 -33 21 -42 8 -8 15 -26
15 -40 0 -14 5 -28 10 -31 12 -8 13 -55 1 -55 -5 0 -11 17 -15 38 -3 22 -16
48 -31 62 -14 13 -25 31 -25 41 0 9 -6 19 -14 22 -26 10 -50 137 -26 137 6 0
10 -7 10 -15z m-1028 -37 c-8 -8 -9 -4 -5 13 4 13 8 18 11 10 2 -7 -1 -18 -6
-23z m-71 -31 c-10 -9 -11 -8 -5 6 3 10 9 15 12 12 3 -3 0 -11 -7 -18z m86
-25 c1 -36 1 -36 -7 -8 -8 24 -6 46 3 46 1 0 3 -17 4 -38z m36 -2 c-3 -12 -8
-19 -11 -16 -5 6 5 36 12 36 2 0 2 -9 -1 -20z m-109 -5 c-4 -8 -8 -15 -10 -15
-2 0 -4 7 -4 15 0 8 4 15 10 15 5 0 7 -7 4 -15z m146 -20 c0 -5 -5 -3 -10 5
-8 12 -10 12 -10 1 0 -8 -2 -12 -5 -9 -3 3 -2 13 1 22 5 14 9 15 15 4 5 -7 9
-17 9 -23z m-259 -20 c5 4 6 -1 3 -9 -5 -12 -9 -13 -19 -3 -7 7 -10 16 -7 22
3 5 7 4 10 -3 2 -7 8 -10 13 -7z m-83 -20 c-3 -3 -9 2 -12 12 -6 14 -5 15 5 6
7 -7 10 -15 7 -18z m332 17 c0 -5 -7 -17 -15 -28 -14 -18 -14 -17 -4 9 12 27
19 34 19 19z m1670 -2 c0 -5 -4 -10 -10 -10 -5 0 -10 5 -10 10 0 6 5 10 10 10
6 0 10 -4 10 -10z m-1959 -37 c-12 -20 -14 -14 -5 12 4 9 9 14 11 11 3 -2 0
-13 -6 -23z m50 -6 c-10 -9 -11 -8 -5 6 3 10 9 15 12 12 3 -3 0 -11 -7 -18z
m-31 -7 c-6 -11 -13 -20 -16 -20 -2 0 0 9 6 20 6 11 13 20 16 20 2 0 0 -9 -6
-20z m1360 -41 c0 -17 -4 -28 -10 -24 -5 3 -10 17 -10 31 0 13 5 24 10 24 6 0
10 -14 10 -31z m-1425 -34 c-9 -20 -18 -35 -21 -32 -3 2 3 21 12 41 23 47 29
40 9 -9z m1485 8 c-1 -21 -19 -35 -36 -29 -18 7 -18 8 0 22 22 15 36 18 36 7z
m457 -15 c-3 -8 -6 -5 -6 6 -1 11 2 17 5 13 3 -3 4 -12 1 -19z m-1872 -54 c-8
-16 -15 -23 -15 -16 0 13 22 53 27 48 2 -2 -3 -16 -12 -32z m1465 29 c-1 -19
-19 -35 -34 -30 -21 8 -20 24 2 30 28 7 32 7 32 0z m-1449 -50 c-12 -20 -14
-14 -5 12 4 9 9 14 11 11 3 -2 0 -13 -6 -23z m1497 0 c2 -8 -5 -13 -17 -13
-12 0 -21 6 -21 16 0 18 31 15 38 -3z m62 -33 c0 -5 -9 -10 -20 -10 -11 0 -20
5 -20 10 0 6 9 10 20 10 11 0 20 -4 20 -10z m360 -6 c0 -8 -5 -12 -10 -9 -6 4
-8 11 -5 16 9 14 15 11 15 -7z m-314 -31 c-10 -10 -19 5 -10 18 6 11 8 11 12
0 2 -7 1 -15 -2 -18z m-1646 -3 c0 -5 -4 -10 -10 -10 -5 0 -10 5 -10 10 0 6 5
10 10 10 6 0 10 -4 10 -10z m1430 -70 c0 -11 -4 -20 -10 -20 -5 0 -10 9 -10
20 0 11 5 20 10 20 6 0 10 -9 10 -20z m347 -112 c-3 -8 -6 -5 -6 6 -1 11 2 17
5 13 3 -3 4 -12 1 -19z m-1834 -25 c-3 -18 -9 -33 -14 -33 -11 0 -11 0 2 39
14 39 18 37 12 -6z m-34 -7 c0 -12 -3 -15 -6 -8 -7 17 -23 15 -23 -3 0 -8 5
-15 10 -15 6 0 10 -10 10 -22 0 -20 -3 -19 -20 10 -15 24 -18 38 -11 46 17 20
41 15 40 -8z m2060 -13 c0 -35 -1 -36 -10 -14 -5 14 -7 31 -5 38 10 24 16 13
15 -24z m-208 -10 c-8 -15 -10 -15 -11 -2 0 17 10 32 18 25 2 -3 -1 -13 -7
-23z m56 -15 c-3 -8 -6 -5 -6 6 -1 11 2 17 5 13 3 -3 4 -12 1 -19z m-1937 -18
c0 -5 -5 -10 -11 -10 -5 0 -7 5 -4 10 3 6 8 10 11 10 2 0 4 -4 4 -10z m1632
-32 c-9 -9 -12 -7 -12 12 0 19 3 21 12 12 9 -9 9 -15 0 -24z m478 -153 c0 -8
-4 -15 -10 -15 -5 0 -10 7 -10 15 0 8 5 15 10 15 6 0 10 -7 10 -15z m-400 -54
c0 -6 -4 -13 -10 -16 -5 -3 -10 1 -10 9 0 9 5 16 10 16 6 0 10 -4 10 -9z m394
-186 c-4 -8 -8 -15 -10 -15 -2 0 -4 7 -4 15 0 8 4 15 10 15 5 0 7 -7 4 -15z
m-324 -25 c0 -5 -4 -10 -10 -10 -5 0 -10 5 -10 10 0 6 5 10 10 10 6 0 10 -4
10 -10z m270 -190 c0 -5 -5 -10 -11 -10 -5 0 -7 5 -4 10 3 6 8 10 11 10 2 0 4
-4 4 -10z m-2030 -116 c0 -8 -4 -12 -10 -9 -5 3 -10 10 -10 16 0 5 5 9 10 9 6
0 10 -7 10 -16z m81 -197 c-8 -8 -11 -7 -11 4 0 20 13 34 18 19 3 -7 -1 -17
-7 -23z m-298 -106 c23 -10 63 -28 90 -39 26 -12 47 -25 47 -29 0 -4 -19 -26
-41 -48 -51 -50 -79 -103 -79 -150 0 -20 9 -89 20 -152 12 -64 19 -123 18
-132 -4 -17 -140 391 -159 476 -14 58 -5 78 34 86 12 2 23 5 25 6 2 0 22 -7
45 -18z m3117 -347 c0 -8 -4 -12 -10 -9 -5 3 -10 10 -10 16 0 5 5 9 10 9 6 0
10 -7 10 -16z m-3140 -473 c0 -5 -7 -12 -16 -15 -22 -9 -24 -8 -24 9 0 8 9 15
20 15 11 0 20 -4 20 -9z m-513 -507 c-3 -3 -12 -4 -19 -1 -8 3 -5 6 6 6 11 1
17 -2 13 -5z m273 -45 c0 -5 -4 -9 -10 -9 -5 0 -10 7 -10 16 0 8 5 12 10 9 6
-3 10 -10 10 -16z"/>
<path d="M2975 5960 c-6 -10 34 -30 63 -30 9 0 26 -7 36 -15 16 -12 17 -18 8
-27 -18 -18 -148 -24 -167 -8 -18 15 -28 9 -20 -12 15 -37 139 -54 166 -22 6
8 17 14 25 14 7 0 20 7 28 16 14 14 14 17 1 30 -21 21 -19 31 6 39 17 6 19 9
8 16 -19 12 -146 11 -154 -1z"/>
<path d="M3367 5736 c-21 -16 -22 -46 -2 -46 9 0 18 -7 21 -15 8 -19 28 -19
43 -2 8 11 4 21 -17 44 -23 27 -30 29 -45 19z"/>
<path d="M3450 5614 c0 -8 5 -12 10 -9 6 3 10 10 10 16 0 5 -4 9 -10 9 -5 0
-10 -7 -10 -16z"/>
<path d="M3000 5516 c0 -10 71 -47 83 -43 7 2 -3 13 -23 25 -32 20 -60 28 -60
18z"/>
<path d="M3233 5503 c9 -2 25 -2 35 0 9 3 1 5 -18 5 -19 0 -27 -2 -17 -5z"/>
<path d="M1145 5769 c-4 -6 -5 -12 -2 -15 2 -3 7 2 10 11 7 17 1 20 -8 4z"/>
<path d="M1175 5769 c-4 -6 -5 -12 -2 -15 2 -3 7 2 10 11 7 17 1 20 -8 4z"/>
<path d="M1585 5660 c-3 -5 -1 -10 4 -10 6 0 11 5 11 10 0 6 -2 10 -4 10 -3 0
-8 -4 -11 -10z"/>
<path d="M1102 5465 c-17 -37 -14 -45 4 -12 9 16 14 31 11 33 -2 2 -9 -7 -15
-21z"/>
<path d="M1051 5423 c-10 -26 -10 -27 4 -9 8 11 15 23 15 28 0 15 -7 8 -19
-19z"/>
<path d="M1066 5404 c-9 -24 -2 -26 12 -4 7 11 8 20 3 20 -5 0 -12 -7 -15 -16z"/>
<path d="M1026 5375 c-9 -26 -7 -32 5 -12 6 10 9 21 6 23 -2 3 -7 -2 -11 -11z"/>
<path d="M1077 5373 c-4 -3 -7 -11 -7 -17 0 -6 5 -5 12 2 6 6 9 14 7 17 -3 3
-9 2 -12 -2z"/>
<path d="M1042 5350 c-15 -24 -15 -33 -1 -24 13 8 4 -25 -18 -69 -8 -16 -13
-31 -10 -33 4 -4 19 27 56 110 2 5 -2 5 -9 1 -9 -5 -10 -2 -5 14 8 26 3 27
-13 1z"/>
<path d="M845 5330 c-9 -16 -13 -30 -11 -30 3 0 12 14 21 30 9 17 13 30 11 30
-3 0 -12 -13 -21 -30z"/>
<path d="M897 5337 c-10 -25 -9 -29 4 -21 9 5 10 -1 5 -22 -9 -34 -5 -31 17
15 12 25 13 30 3 21 -11 -9 -15 -7 -18 7 -3 17 -4 17 -11 0z"/>
<path d="M810 5319 c-7 -11 -10 -23 -7 -25 2 -2 9 7 15 21 14 30 7 33 -8 4z"/>
<path d="M854 5294 c-11 -24 -17 -44 -13 -44 7 0 42 80 37 86 -2 1 -13 -17
-24 -42z"/>
<path d="M995 5310 c-13 -26 -14 -29 0 -24 17 7 21 -11 5 -21 -5 -3 -10 -11
-10 -18 0 -8 3 -8 12 1 9 9 19 92 11 92 -1 0 -9 -13 -18 -30z"/>
<path d="M937 5303 c-4 -3 -7 -13 -7 -22 1 -13 3 -13 11 2 11 19 8 33 -4 20z"/>
<path d="M957 5293 c-4 -3 -7 -11 -7 -17 0 -6 5 -5 12 2 6 6 9 14 7 17 -3 3
-9 2 -12 -2z"/>
<path d="M866 5263 c-6 -14 -5 -15 5 -6 7 7 10 15 7 18 -3 3 -9 -2 -12 -12z"/>
<path d="M966 5255 c-9 -26 -7 -32 5 -12 6 10 9 21 6 23 -2 3 -7 -2 -11 -11z"/>
<path d="M880 5239 c-7 -11 -10 -23 -7 -25 2 -2 9 7 15 21 14 30 7 33 -8 4z"/>
<path d="M1026 5215 c-9 -26 -7 -32 5 -12 6 10 9 21 6 23 -2 3 -7 -2 -11 -11z"/>
<path d="M817 5178 c-5 -16 3 -48 12 -48 3 0 6 14 7 30 1 30 -11 41 -19 18z"/>
<path d="M1276 4955 c4 -11 7 -31 7 -45 -1 -20 0 -21 8 -7 7 11 5 25 -6 44 -9
16 -13 19 -9 8z"/>
<path d="M1065 4929 c-4 -6 -5 -12 -2 -15 2 -3 7 2 10 11 7 17 1 20 -8 4z"/>
<path d="M1080 4839 c0 -5 5 -7 10 -4 6 3 10 8 10 11 0 2 -4 4 -10 4 -5 0 -10
-5 -10 -11z"/>
<path d="M1215 4829 c-4 -6 -5 -12 -2 -15 2 -3 7 2 10 11 7 17 1 20 -8 4z"/>
<path d="M1300 4820 c0 -5 5 -10 10 -10 6 0 10 5 10 10 0 6 -4 10 -10 10 -5 0
-10 -4 -10 -10z"/>
<path d="M1070 4811 c0 -6 5 -13 10 -16 6 -3 10 1 10 9 0 9 -4 16 -10 16 -5 0
-10 -4 -10 -9z"/>
<path d="M1106 4780 c-15 -5 -16 -9 -7 -14 7 -5 18 -3 24 3 14 14 6 20 -17 11z"/>
<path d="M1128 4693 c7 -3 16 -2 19 1 4 3 -2 6 -13 5 -11 0 -14 -3 -6 -6z"/>
<path d="M1186 4613 c10 -40 14 -41 14 -5 0 18 -5 32 -10 32 -6 0 -8 -11 -4
-27z"/>
<path d="M1130 4264 c0 -8 5 -12 10 -9 6 4 8 11 5 16 -9 14 -15 11 -15 -7z"/>
<path d="M1150 4150 c19 -13 30 -13 30 0 0 6 -10 10 -22 10 -19 0 -20 -2 -8
-10z"/>
<path d="M1300 4141 c0 -8 -7 -11 -17 -7 -15 5 -15 3 1 -9 24 -18 48 -3 28 17
-9 9 -12 9 -12 -1z"/>
<path d="M1170 4122 c0 -12 19 -26 26 -19 2 2 -2 10 -11 17 -9 8 -15 8 -15 2z"/>
<path d="M1681 5424 c0 -11 3 -14 6 -6 3 7 2 16 -1 19 -3 4 -6 -2 -5 -13z"/>
<path d="M5264 7078 l-19 -23 23 19 c12 11 22 21 22 23 0 8 -8 2 -26 -19z"/>
<path d="M5161 6937 c-13 -21 -12 -21 5 -5 10 10 16 20 13 22 -3 3 -11 -5 -18
-17z"/>
<path d="M5130 6819 c0 -5 5 -7 10 -4 6 3 10 8 10 11 0 2 -4 4 -10 4 -5 0 -10
-5 -10 -11z"/>
<path d="M4967 6782 c-16 -40 -22 -156 -8 -147 13 7 32 95 26 114 -3 10 4 30
16 44 20 26 20 27 1 27 -14 0 -25 -12 -35 -38z"/>
<path d="M5220 6726 c0 -3 19 -24 41 -46 46 -44 77 -56 38 -14 -27 29 -79 68
-79 60z"/>
<path d="M5150 6683 c0 -10 15 -28 33 -40 45 -30 125 -64 131 -54 10 16 -25
49 -59 55 -19 4 -47 18 -61 31 -32 29 -44 31 -44 8z"/>
<path d="M5476 6501 c-11 -12 -13 -21 -7 -25 5 -4 15 3 21 15 15 28 7 34 -14
10z"/>
<path d="M5522 6488 c2 -7 29 -26 59 -42 41 -22 67 -28 107 -28 71 2 80 10 36
34 -25 13 -49 18 -70 15 -21 -4 -42 1 -63 14 -36 22 -75 25 -69 7z"/>
<path d="M5880 6430 c0 -34 -39 -125 -75 -175 -19 -27 -37 -61 -40 -75 -10
-46 -67 -89 -170 -131 -53 -21 -122 -43 -153 -48 -31 -5 -70 -16 -87 -25 -40
-21 -121 -20 -171 3 -54 25 -100 83 -119 151 -22 76 -25 84 -31 78 -2 -3 3
-38 12 -77 9 -40 14 -75 11 -77 -9 -9 -40 102 -47 171 -11 104 -67 237 -71
168 0 -10 -5 -3 -10 15 -11 36 -24 41 -39 13 -13 -24 -13 -44 -1 -36 5 3 12 1
16 -5 3 -5 1 -10 -6 -10 -10 0 -10 -3 -1 -12 7 -7 12 -20 12 -31 0 -10 4 -16
9 -13 12 8 24 -41 14 -57 -4 -6 -6 -39 -5 -72 2 -45 10 -76 34 -122 18 -35 35
-63 39 -63 9 0 36 -79 43 -128 7 -50 38 -120 67 -150 11 -12 32 -50 48 -84 23
-50 28 -75 26 -123 -1 -33 3 -66 9 -74 7 -10 6 -17 -7 -26 -16 -12 -15 -13 9
-19 l26 -7 -23 -21 c-17 -14 -19 -19 -7 -15 22 8 35 -11 14 -19 -9 -3 -16 -10
-16 -15 0 -14 38 -11 43 4 3 6 6 -1 6 -18 1 -16 6 -37 11 -45 8 -12 10 -10 11
10 1 14 0 30 -1 35 -1 6 -2 49 -1 97 0 48 -4 90 -10 94 -6 4 -6 11 1 19 7 8 8
20 4 27 -11 17 -14 58 -5 58 4 0 12 -5 19 -12 17 -17 28 -2 12 17 -9 10 -9 19
-2 28 8 9 1 28 -25 70 -45 72 -39 84 8 15 51 -76 57 -78 125 -33 85 56 158
129 211 210 26 38 50 71 54 73 4 2 13 19 19 38 7 20 14 33 17 31 8 -9 -25 -75
-78 -154 -68 -101 -213 -243 -249 -243 -13 0 -13 -17 0 -25 6 -3 13 1 16 9 3
9 12 16 18 16 7 0 38 16 70 35 32 19 67 35 77 35 12 0 32 24 59 69 23 38 50
77 60 86 23 20 24 17 10 -19 -5 -14 -6 -26 -1 -26 5 0 16 21 26 48 10 26 34
75 52 109 29 53 59 122 80 186 3 9 9 17 13 17 8 0 22 45 45 141 17 75 20 129
5 129 -5 0 -10 -9 -10 -20z m-800 -405 c0 -8 -2 -15 -4 -15 -2 0 -6 7 -10 15
-3 8 -1 15 4 15 6 0 10 -7 10 -15z m100 -186 c0 -6 -4 -7 -10 -4 -5 3 -10 11
-10 16 0 6 5 7 10 4 6 -3 10 -11 10 -16z m24 -34 c3 -8 1 -15 -4 -15 -6 0 -10
7 -10 15 0 8 2 15 4 15 2 0 6 -7 10 -15z"/>
<path d="M5142 6299 c7 -19 14 -27 20 -21 6 6 5 17 -4 31 -19 31 -29 26 -16
-10z"/>
<path d="M5165 6229 c9 -17 19 -29 21 -26 8 7 -15 57 -26 57 -6 0 -4 -13 5
-31z"/>
<path d="M5445 6183 c-16 -3 -33 -9 -36 -15 -9 -15 -117 -12 -134 2 -12 10
-18 10 -30 0 -22 -18 -19 -26 14 -40 50 -20 120 -14 183 16 31 15 55 31 52 36
-3 4 -8 7 -12 7 -4 -1 -20 -4 -37 -6z"/>
<path d="M4842 6117 c-9 -20 -9 -33 0 -52 16 -36 25 -31 20 13 -6 64 -8 69
-20 39z"/>
<path d="M4237 5976 c-4 -10 -5 -21 -2 -24 9 -9 17 6 13 25 -3 17 -4 17 -11
-1z"/>
<path d="M6230 5924 c0 -8 5 -12 10 -9 6 3 10 10 10 16 0 5 -4 9 -10 9 -5 0
-10 -7 -10 -16z"/>
<path d="M4555 5909 c6 -16 4 -20 -6 -14 -8 5 -6 -1 4 -12 10 -12 17 -32 16
-45 -2 -14 6 -36 19 -53 13 -17 20 -35 17 -47 -4 -10 -2 -18 3 -18 9 0 23 -31
26 -56 1 -6 6 -18 12 -25 17 -22 40 -102 36 -126 -4 -27 -17 -29 -38 -8 -17
17 -64 20 -64 5 0 -6 11 -23 25 -38 30 -32 31 -39 5 -47 -28 -9 -25 -20 15
-49 19 -15 50 -37 69 -51 l34 -25 -13 -44 c-19 -62 -30 -202 -17 -210 14 -8
32 76 43 199 5 55 11 126 15 158 4 39 3 57 -5 57 -6 0 -11 11 -11 24 0 14 -4
27 -9 30 -4 3 -11 18 -14 34 -3 15 -21 61 -40 103 -20 41 -40 95 -47 120 -16
60 -61 159 -72 159 -5 0 -6 -10 -3 -21z"/>
<path d="M4870 5910 c-10 -7 -11 -13 -4 -17 6 -5 10 -42 9 -89 -1 -70 1 -81
15 -77 13 4 15 17 13 79 -5 92 -12 117 -33 104z"/>
<path d="M6180 5900 c0 -5 5 -10 10 -10 6 0 10 5 10 10 0 6 -4 10 -10 10 -5 0
-10 -4 -10 -10z"/>
<path d="M6356 5893 c-6 -14 -5 -15 5 -6 7 7 10 15 7 18 -3 3 -9 -2 -12 -12z"/>
<path d="M4222 5877 c-12 -13 -22 -30 -22 -38 0 -9 -3 -19 -7 -23 -5 -4 -8
-34 -8 -66 -1 -46 2 -58 15 -58 8 0 26 -4 39 -8 21 -6 23 -5 16 16 -11 35 4
109 27 132 l21 21 -27 -7 c-23 -6 -27 -4 -22 11 3 10 2 24 -2 31 -6 9 -14 6
-30 -11z"/>
<path d="M6420 5879 c0 -5 5 -7 10 -4 6 3 10 8 10 11 0 2 -4 4 -10 4 -5 0 -10
-5 -10 -11z"/>
<path d="M6484 5796 c-1 -18 2 -23 13 -19 15 6 14 34 -2 40 -5 1 -11 -8 -11
-21z"/>
<path d="M4740 5753 c0 -13 5 -23 10 -23 13 0 13 11 0 30 -8 12 -10 11 -10 -7z"/>
<path d="M5631 5737 c-11 -19 -21 -41 -21 -50 0 -9 -6 -22 -13 -29 -16 -15
-28 -68 -16 -68 4 0 14 12 21 28 8 15 19 36 25 47 16 30 35 96 30 101 -3 3
-14 -10 -26 -29z"/>
<path d="M6277 5729 c-9 -5 -21 -8 -26 -4 -20 12 -71 -53 -76 -98 -1 -11 -7
-22 -14 -27 -7 -4 -12 -18 -10 -31 5 -42 -33 -218 -53 -249 -8 -12 -9 -12 -4
3 3 9 1 17 -4 17 -6 0 -10 -12 -10 -26 0 -19 -4 -25 -17 -22 -13 3 -17 12 -15
36 1 19 -3 32 -9 32 -8 0 -10 12 -6 35 9 57 -11 30 -24 -33 -7 -31 -16 -65
-21 -74 -5 -10 -13 -37 -18 -60 -5 -24 -17 -81 -28 -128 -14 -64 -16 -90 -8
-103 8 -13 8 -20 0 -25 -6 -4 -16 -38 -22 -76 -17 -107 -32 -104 -27 5 3 87 3
92 -10 59 -7 -19 -14 -45 -14 -57 -1 -12 -6 -25 -13 -29 -8 -5 -9 -2 -4 11 3
10 9 46 13 79 3 34 12 70 19 81 13 21 8 195 -5 195 -18 0 -80 -234 -81 -305 0
-22 -13 -98 -29 -170 l-28 -130 -8 69 c-5 42 -3 106 4 162 14 120 13 155 -4
79 -8 -33 -20 -89 -28 -125 -8 -36 -21 -92 -27 -125 -9 -43 -15 -54 -20 -41
-5 16 -8 14 -19 -15 -20 -53 -28 -64 -43 -61 -8 1 -20 -13 -28 -33 -14 -35
-30 -47 -30 -22 0 7 -9 18 -21 25 -18 11 -24 11 -41 -5 -19 -17 -19 -17 -7 10
10 23 10 30 0 36 -7 5 -13 24 -14 44 0 20 -4 34 -8 31 -4 -2 -10 0 -14 6 -10
17 -26 0 -20 -21 4 -10 4 -19 0 -19 -10 0 -28 54 -27 80 2 23 1 23 -7 5 -5
-11 -23 -36 -40 -55 l-31 -35 6 30 6 30 -21 -25 -21 -25 0 28 c0 36 -16 27
-25 -14 -5 -23 -11 -29 -23 -26 -90 28 -181 64 -198 79 -11 10 -31 18 -45 18
-13 0 -37 2 -54 4 -16 2 -36 4 -42 5 -7 0 -13 10 -13 21 0 23 -10 26 -28 8 -9
-9 -15 -9 -24 0 -9 9 -8 12 8 12 16 0 16 2 4 10 -8 5 -23 7 -32 4 -11 -3 -18
0 -18 7 0 6 -7 17 -14 23 -8 6 -26 56 -40 111 l-25 100 2 -115 c1 -63 9 -153
17 -200 12 -61 14 -107 9 -165 -8 -94 -6 -107 33 -204 37 -92 72 -200 88 -270
15 -62 40 -129 97 -251 22 -47 46 -103 53 -125 16 -49 73 -102 120 -111 39 -8
145 -58 155 -74 9 -14 31 -1 106 61 43 36 59 56 56 69 -3 13 3 19 22 23 14 3
53 32 86 64 33 33 89 78 124 102 115 79 216 171 299 276 31 39 90 103 130 143
66 66 73 76 66 100 -10 34 -17 276 -14 501 1 95 -4 205 -10 243 -11 62 -10 71
6 89 17 19 27 59 15 59 -3 0 -7 11 -7 25 -1 14 -5 37 -8 51 -4 16 -3 23 3 20
10 -6 51 31 51 46 0 4 -7 8 -16 8 -10 0 -14 -6 -11 -14 3 -8 -1 -17 -10 -20
-12 -5 -14 -1 -9 19 4 14 11 59 16 100 5 43 20 95 35 124 13 27 21 51 17 54
-4 2 -2 3 4 1 6 -1 28 18 48 42 37 44 38 53 3 33z m-27 -39 c0 -5 -7 -10 -16
-10 -8 0 -12 5 -9 10 3 6 10 10 16 10 5 0 9 -4 9 -10z m-393 -582 c-2 -13 -4
-5 -4 17 -1 22 1 32 4 23 2 -10 2 -28 0 -40z m23 -353 c-6 -15 -13 -25 -16
-23 -2 3 1 17 7 32 16 34 23 27 9 -9z m-820 -215 c0 -5 -4 -10 -10 -10 -5 0
-10 5 -10 10 0 6 5 10 10 10 6 0 10 -4 10 -10z m61 -10 c5 0 10 -10 10 -22 1
-16 3 -18 6 -6 3 11 12 15 31 13 15 -2 33 -4 40 -4 6 -1 12 -8 12 -16 0 -8 7
-15 15 -15 8 0 15 -7 15 -16 0 -10 6 -14 14 -11 8 3 16 1 18 -5 3 -7 16 -7 43
1 80 22 107 5 71 -44 -11 -16 -11 -22 3 -46 12 -21 19 -25 28 -17 9 7 13 7 13
0 0 -6 6 -9 14 -6 8 3 19 -3 25 -14 12 -23 60 -35 79 -20 7 6 16 7 20 3 4 -4
1 -10 -7 -13 -10 -3 -7 -9 10 -19 14 -8 16 -12 6 -9 -13 4 -20 0 -24 -14 -3
-11 -14 -20 -25 -20 -15 0 -18 5 -13 23 4 15 3 18 -3 9 -6 -9 -20 -11 -46 -7
-24 5 -36 4 -36 -4 0 -7 -9 -6 -24 5 -16 10 -23 22 -20 32 5 14 3 14 -10 -2
-14 -17 -16 -17 -30 -3 -9 9 -16 22 -16 30 0 27 -41 62 -74 63 -37 1 -60 13
-68 35 -4 9 -20 23 -37 30 -17 8 -31 17 -31 20 0 4 -16 14 -35 23 -31 15 -34
20 -24 37 6 12 17 18 26 15 8 -3 19 -6 24 -6z m919 -30 c0 -5 -2 -10 -4 -10
-3 0 -8 5 -11 10 -3 6 -1 10 4 10 6 0 11 -4 11 -10z m-35 -11 c11 -16 1 -19
-13 -3 -7 8 -8 14 -3 14 5 0 13 -5 16 -11z m-66 -26 c-8 -9 -16 -10 -22 -4
-13 13 0 31 19 24 11 -4 12 -8 3 -20z m-36 -13 c3 -12 0 -20 -8 -20 -15 0 -28
27 -19 41 8 13 21 3 27 -21z m-109 11 c4 -5 0 -11 -6 -14 -10 -3 -11 -9 0 -26
18 -31 15 -47 -5 -29 -10 9 -22 14 -28 12 -12 -5 -33 37 -27 54 4 14 58 16 66
3z m-116 -43 l1 -43 -16 33 c-15 29 -15 34 -3 42 8 6 15 10 16 10 0 0 1 -19 2
-42z m-44 -124 c-7 -3 -9 -14 -6 -26 3 -14 1 -19 -6 -14 -19 11 -14 46 6 45 9
0 12 -3 6 -5z"/>
<path d="M4758 5645 c3 -44 5 -102 4 -129 -1 -44 0 -48 13 -35 20 20 21 114 2
164 -9 22 -18 49 -21 60 -3 11 -2 -16 2 -60z"/>
<path d="M6565 5656 c-12 -14 -15 -56 -3 -56 4 0 8 11 8 24 0 13 5 26 12 28 7
3 8 7 3 10 -6 3 -14 1 -20 -6z"/>
<path d="M5347 5581 c-4 -17 -3 -21 5 -13 5 5 8 16 6 23 -3 8 -7 3 -11 -10z"/>
<path d="M5290 5541 c0 -5 5 -13 10 -16 6 -3 10 -2 10 4 0 5 -4 13 -10 16 -5
3 -10 2 -10 -4z"/>
<path d="M5508 5503 c-16 -18 -38 -85 -38 -113 1 -12 3 -11 11 3 10 17 48 127
44 127 -1 0 -9 -8 -17 -17z"/>
<path d="M6239 5508 c0 -2 -2 -14 -5 -27 -4 -20 -2 -22 11 -11 17 14 20 40 5
40 -5 0 -10 -1 -11 -2z"/>
<path d="M5563 5458 c-14 -19 -23 -58 -12 -58 8 0 39 51 39 65 0 10 -17 5 -27
-7z"/>
<path d="M5407 5236 c-4 -10 -5 -21 -2 -24 9 -9 17 6 13 25 -3 17 -4 17 -11
-1z"/>
<path d="M5390 5131 c0 -6 5 -13 10 -16 6 -3 10 1 10 9 0 9 -4 16 -10 16 -5 0
-10 -4 -10 -9z"/>
<path d="M5230 5110 c0 -5 5 -10 10 -10 6 0 10 5 10 10 0 6 -4 10 -10 10 -5 0
-10 -4 -10 -10z"/>
<path d="M5361 5051 c-9 -6 -10 -14 -3 -27 10 -20 5 -45 -11 -55 -6 -4 -6 -13
0 -24 8 -13 13 -5 26 42 22 79 21 85 -12 64z"/>
<path d="M5307 4784 c-16 -24 -27 -49 -25 -55 2 -6 16 12 32 41 35 64 31 73
-7 14z"/>
<path d="M8090 3583 c-50 -7 -117 -37 -180 -81 -36 -25 -67 -49 -70 -52 -3 -4
-31 -25 -62 -48 -31 -23 -60 -46 -63 -52 -16 -26 7 -17 81 32 43 28 106 66
140 83 33 17 59 35 57 41 -4 11 68 44 96 44 20 0 47 26 34 32 -4 2 -19 3 -33
1z"/>
<path d="M6265 3443 c-11 -3 -22 -8 -25 -12 -7 -9 -137 -71 -150 -71 -5 0 -10
-4 -10 -8 0 -5 -10 -13 -22 -19 -14 -6 -18 -12 -11 -16 6 -4 17 -1 25 6 7 7
42 25 78 39 36 14 64 30 63 35 -1 6 18 16 42 23 25 7 45 17 45 21 0 10 -3 10
-35 2z"/>
<path d="M5154 3378 c8 -46 13 -58 27 -58 14 0 11 33 -7 68 -21 43 -28 40 -20
-10z"/>
<path d="M5321 3326 c-7 -9 -24 -16 -37 -16 -40 0 -79 -52 -56 -74 4 -4 7 -11
7 -14 1 -4 4 -17 9 -29 12 -38 34 -26 50 26 8 27 22 61 31 75 20 30 16 57 -4
32z"/>
<path d="M6792 3294 c-5 -10 -13 -42 -17 -70 -5 -39 -3 -53 8 -63 20 -16 394
-91 457 -91 31 0 156 66 181 96 13 16 -11 61 -39 71 -9 3 -23 11 -31 17 -22
17 -232 45 -397 52 -143 7 -152 6 -162 -12z"/>
<path d="M5990 3290 c-9 -6 -10 -10 -3 -10 6 0 15 5 18 10 8 12 4 12 -15 0z"/>
<path d="M3966 3207 c2 -7 13 -18 24 -25 23 -14 37 2 20 23 -15 18 -51 20 -44
2z"/>
<path d="M5060 3188 c1 -18 107 -128 124 -128 7 0 25 -9 38 -20 18 -14 24 -26
21 -44 -5 -22 -8 -23 -29 -14 -18 9 -30 8 -49 -2 -19 -10 -30 -11 -50 -2 -14
6 -25 8 -25 4 1 -13 35 -48 53 -55 11 -4 21 -16 24 -27 7 -25 5 -25 54 1 31
16 40 25 36 40 -4 14 0 19 16 19 27 0 67 41 67 68 0 42 -48 65 -88 43 -14 -7
-34 5 -95 60 -77 69 -97 80 -97 57z"/>
<path d="M6699 3151 c-19 -10 -61 -32 -94 -51 -98 -53 -177 -96 -225 -122 -25
-14 -106 -58 -180 -100 -74 -41 -173 -95 -220 -121 -263 -142 -354 -193 -356
-202 -2 -5 23 -32 56 -60 32 -27 62 -57 66 -65 4 -8 8 -43 10 -77 3 -61 2 -61
-18 -45 -11 9 -47 43 -79 74 -32 31 -66 61 -76 66 -28 15 -85 23 -78 12 3 -6
13 -10 21 -10 20 0 130 -114 173 -180 19 -30 37 -57 38 -59 5 -7 75 19 93 34
8 7 47 30 85 50 39 21 104 58 145 82 83 49 84 50 178 100 37 19 74 42 83 49 8
8 19 14 23 14 4 0 46 23 94 51 48 29 112 65 142 82 30 16 57 32 60 36 3 3 25
17 50 30 116 61 177 95 195 110 11 9 41 27 67 40 26 12 50 26 53 30 6 10 -25
40 -166 160 l-107 90 -33 -18z m131 -206 c7 -8 8 -15 2 -15 -5 0 -15 7 -22 15
-7 8 -8 15 -2 15 5 0 15 -7 22 -15z m-322 -38 c4 -21 -25 -34 -40 -19 -8 8 -8
16 2 27 16 19 34 15 38 -8z"/>
<path d="M4800 3101 c0 -16 38 -89 62 -116 21 -25 35 -85 20 -85 -5 0 -17 11
-26 25 -19 29 -33 31 -57 9 -17 -16 -20 -15 -36 15 -22 38 -38 40 -28 4 9 -38
21 -51 85 -91 30 -19 59 -41 63 -49 13 -22 63 -15 97 13 31 27 31 27 37 5 6
-25 3 -25 53 -5 62 25 68 78 15 120 -28 22 -33 22 -59 9 -25 -13 -31 -13 -65
4 -34 18 -76 56 -135 126 -14 17 -26 24 -26 16z m190 -216 c0 -13 -39 -65 -40
-53 0 4 5 19 10 33 7 18 7 33 -1 48 -12 22 -12 22 10 3 11 -11 21 -25 21 -31z"/>
<path d="M3884 3005 c-4 -15 -13 -25 -24 -25 -10 0 -18 -6 -17 -12 2 -63 -5
-90 -34 -123 -24 -27 -27 -35 -15 -35 23 0 66 48 66 74 0 16 2 18 9 7 10 -15
14 2 26 92 7 50 0 64 -11 22z"/>
<path d="M5406 2994 c-4 -10 -1 -14 6 -12 15 5 23 28 10 28 -5 0 -13 -7 -16
-16z"/>
<path d="M4061 2917 c-6 -6 -11 -15 -11 -19 0 -5 -23 -57 -52 -116 -65 -134
-68 -140 -25 -72 62 98 75 111 109 105 17 -3 35 -8 39 -11 18 -11 17 16 -1 52
-11 21 -20 44 -20 50 0 17 -26 24 -39 11z"/>
<path d="M4277 2826 c-4 -10 -7 -28 -7 -42 0 -27 -34 -99 -63 -131 -18 -21
-21 -58 -3 -58 11 0 17 11 52 92 15 35 32 67 38 72 7 6 42 -1 96 -20 47 -16
86 -29 88 -29 2 0 -9 11 -24 25 -15 14 -34 25 -43 25 -9 0 -29 9 -46 20 -16
11 -37 20 -46 20 -9 0 -20 10 -26 22 -8 20 -10 20 -16 4z"/>
<path d="M4545 2698 c-19 -11 -19 -11 0 -18 23 -9 58 6 50 21 -8 12 -25 11
-50 -3z"/>
<path d="M5546 2682 c2 -2 -6 -18 -18 -34 -14 -20 -17 -33 -10 -40 6 -6 15 -7
20 -4 15 9 26 67 15 76 -6 4 -8 5 -7 2z"/>
<path d="M3908 2637 c-9 -7 -20 -26 -24 -43 l-6 -29 31 33 c17 19 29 38 26 43
-7 11 -6 11 -27 -4z"/>
<path d="M3510 2470 c0 -5 5 -10 11 -10 5 0 7 5 4 10 -3 6 -8 10 -11 10 -2 0
-4 -4 -4 -10z"/>
<path d="M3620 2435 c25 -7 115 -29 200 -50 85 -20 182 -48 215 -61 33 -14 81
-32 106 -40 26 -8 54 -24 62 -37 9 -12 34 -42 57 -67 22 -25 60 -69 83 -99 23
-30 55 -68 71 -85 16 -17 53 -61 82 -97 29 -36 59 -73 66 -80 7 -8 33 -39 58
-69 77 -94 75 -91 179 -205 20 -22 61 -71 91 -110 30 -38 57 -72 60 -75 4 -3
33 -36 65 -75 151 -180 228 -265 241 -265 19 0 54 36 54 56 0 11 -5 14 -17 9
-45 -18 -51 -16 -89 32 -21 26 -46 55 -54 63 -9 8 -40 44 -70 80 -30 36 -58
67 -61 70 -3 3 -12 15 -21 28 -9 13 -38 46 -64 75 -27 29 -101 115 -164 192
-63 77 -117 142 -120 145 -3 3 -37 43 -75 90 -150 185 -169 207 -251 300 -27
30 -71 83 -97 118 -27 34 -55 62 -62 62 -8 0 -61 13 -117 29 -57 15 -141 34
-188 40 -47 7 -121 19 -165 27 -98 17 -136 17 -75 -1z"/>
<path d="M5300 2341 c0 -5 14 -15 30 -23 17 -7 30 -16 30 -20 0 -5 6 -8 13 -8
7 0 53 -40 102 -90 49 -49 96 -90 105 -90 8 0 28 10 44 23 l28 23 -48 39 c-27
22 -53 45 -59 51 -22 26 -102 67 -164 85 -75 22 -81 22 -81 10z"/>
<path d="M4420 2289 c72 -26 194 -58 199 -53 21 20 -145 74 -222 74 -28 -1
-26 -3 23 -21z"/>
<path d="M640 2179 c0 -5 5 -7 10 -4 6 3 10 8 10 11 0 2 -4 4 -10 4 -5 0 -10
-5 -10 -11z"/>
<path d="M5270 2129 c30 -28 85 -69 122 -91 76 -45 84 -53 93 -90 9 -34 -21
-53 -68 -42 -37 8 -164 70 -252 124 -60 37 -192 87 -201 77 -3 -3 -37 3 -75
14 -73 20 -135 26 -110 10 17 -11 -6 -27 -151 -102 -62 -31 -98 -56 -98 -66 0
-9 17 -37 37 -62 41 -50 267 -314 297 -346 10 -11 63 -73 118 -137 55 -65 103
-118 107 -118 7 1 275 156 310 180 18 12 31 52 67 195 87 342 85 327 39 345
-13 5 -75 43 -136 85 -133 90 -185 102 -99 24z m-334 -194 c-21 -16 -32 -13
-21 4 3 6 14 11 23 11 15 -1 15 -2 -2 -15z m-139 -32 c-9 -9 -20 -13 -24 -9
-4 4 1 14 11 22 25 18 35 8 13 -13z m528 -33 c-3 -5 -11 -10 -16 -10 -6 0 -7
5 -4 10 3 6 11 10 16 10 6 0 7 -4 4 -10z m-275 -60 c0 -5 -4 -10 -10 -10 -5 0
-10 5 -10 10 0 6 5 10 10 10 6 0 10 -4 10 -10z m200 -36 c0 -8 -4 -12 -10 -9
-5 3 -10 10 -10 16 0 5 5 9 10 9 6 0 10 -7 10 -16z m194 -5 c15 -18 15 -23 5
-30 -17 -11 -29 -11 -29 -1 0 4 -3 17 -6 30 -8 28 6 28 30 1z m-324 -9 c0 -9
-32 -30 -46 -30 -4 0 1 9 11 20 19 21 35 26 35 10z m20 -44 c0 -3 -4 -8 -10
-11 -5 -3 -10 -1 -10 4 0 6 5 11 10 11 6 0 10 -2 10 -4z m280 -105 c0 -11 -31
-24 -39 -16 -3 3 1 10 9 15 19 12 30 12 30 1z m-125 -77 c-23 -17 -32 -10 -15
11 7 8 17 12 23 8 6 -4 3 -11 -8 -19z m-105 -53 c0 -5 -7 -12 -16 -15 -24 -9
-28 -7 -14 9 14 17 30 20 30 6z"/>
<path d="M3666 2133 c-3 -4 -6 -17 -6 -29 0 -17 10 -29 35 -42 20 -10 43 -33
53 -52 21 -41 48 -55 37 -19 -18 63 -59 128 -86 138 -15 5 -30 7 -33 4z"/>
<path d="M3086 2049 c3 -5 26 -9 51 -9 26 0 44 2 42 4 -9 8 -98 13 -93 5z"/>
<path d="M3240 2009 c0 -5 3 -9 8 -9 4 -1 26 -5 50 -9 24 -5 45 -5 48 0 6 11
-8 16 -63 22 -24 3 -43 1 -43 -4z"/>
<path d="M3116 1990 c5 -4 32 -12 59 -15 41 -6 48 -5 38 6 -7 7 -34 14 -59 15
-27 2 -43 -1 -38 -6z"/>
<path d="M3820 1835 c0 -9 20 -59 45 -112 25 -52 45 -99 45 -103 0 -4 6 -13
14 -19 14 -11 -19 90 -64 199 -19 46 -40 64 -40 35z"/>
<path d="M3660 1762 c0 -6 14 -15 31 -21 43 -15 58 -14 34 3 -28 19 -65 29
-65 18z"/>
<path d="M7 1716 c-4 -10 -5 -21 -2 -24 9 -9 17 6 13 25 -3 17 -4 17 -11 -1z"/>
<path d="M8050 1663 c0 -42 13 -63 36 -63 15 0 24 -6 24 -15 0 -9 15 -40 34
-69 19 -29 56 -98 82 -152 26 -55 51 -100 56 -102 4 -2 8 -8 8 -13 0 -10 9
-28 108 -224 84 -165 78 -159 148 -146 31 6 59 13 61 15 3 2 0 13 -6 25 -10
17 -18 19 -59 14 -46 -5 -48 -4 -65 28 -9 19 -30 57 -45 84 -112 196 -181 322
-225 410 -35 71 -140 225 -152 225 -3 0 -5 -8 -5 -17z"/>
<path d="M1 1373 l0 -167 22 25 c12 13 37 41 55 63 32 37 116 106 128 106 4 0
13 -8 20 -17 12 -17 14 -17 41 3 39 29 42 61 6 70 -15 4 -34 13 -41 21 -7 7
-19 13 -25 13 -7 0 -48 -36 -92 -79 -44 -44 -82 -77 -85 -74 -3 2 -6 30 -6 61
-1 32 -2 76 -3 100 0 23 -5 42 -11 42 -6 0 -10 -63 -9 -167z"/>
<path d="M10228 1524 c-5 -4 -8 -18 -8 -30 0 -13 -9 -28 -20 -34 -24 -13 -27
-45 -5 -54 8 -3 21 -18 27 -33 12 -27 13 -27 16 20 4 65 -1 140 -10 131z"/>
<path d="M3718 1367 c-9 -17 -19 -19 -79 -15 -68 4 -68 3 -74 -24 -4 -15 -4
-32 0 -37 3 -6 43 -10 88 -10 45 1 95 -4 110 -10 32 -12 127 -15 142 -3 24 18
12 42 -24 48 -55 9 -59 11 -63 36 -2 19 -11 24 -46 29 -36 5 -45 2 -54 -14z"/>
<path d="M3374 1333 c-7 -11 -24 -18 -47 -19 -21 0 -40 -4 -45 -8 -10 -11 28
-36 55 -36 13 0 32 -9 43 -20 16 -16 25 -18 45 -10 34 13 31 29 -7 42 -27 10
-29 12 -13 18 10 3 19 14 21 23 2 13 -2 15 -16 7 -14 -8 -19 -6 -22 5 -2 13
-5 13 -14 -2z m1 -43 c3 -5 1 -10 -4 -10 -6 0 -11 5 -11 10 0 6 2 10 4 10 3 0
8 -4 11 -10z"/>
<path d="M10225 1311 c-3 -5 -1 -12 5 -16 5 -3 10 1 10 9 0 18 -6 21 -15 7z"/>
<path d="M10174 1119 c-32 -26 -35 -30 -14 -24 44 13 81 36 75 45 -10 16 -20
12 -61 -21z"/>
<path d="M10020 1059 c-47 -16 -121 -41 -165 -55 -44 -14 -102 -34 -130 -45
-27 -10 -68 -23 -90 -28 -22 -5 -98 -28 -170 -50 -71 -23 -166 -51 -210 -62
-44 -12 -84 -25 -90 -29 -5 -4 -24 -11 -42 -14 -17 -4 -37 -13 -43 -21 -10
-12 -5 -12 27 -4 142 38 1003 317 1018 330 17 16 -18 9 -105 -22z"/>
<path d="M10170 944 c-30 -14 -80 -35 -110 -46 -30 -11 -77 -31 -105 -43 -27
-13 -99 -45 -160 -71 -60 -25 -132 -57 -160 -70 -27 -12 -106 -46 -175 -75
-69 -28 -204 -85 -300 -127 -96 -41 -213 -90 -260 -109 -47 -18 -103 -42 -125
-52 -22 -10 -91 -40 -154 -65 -62 -26 -132 -55 -155 -65 -22 -11 -131 -55
-241 -100 -111 -44 -219 -90 -240 -100 l-40 -20 1148 -1 1147 0 0 485 c0 267
-3 485 -7 484 -5 0 -33 -12 -63 -25z"/>
<path d="M1535 903 c-68 -186 -236 -385 -408 -485 -43 -25 -61 -48 -38 -48 5
0 7 -9 4 -21 -4 -12 -11 -18 -20 -15 -8 3 -19 6 -24 6 -5 0 -9 7 -9 15 0 17
-11 20 -26 6 -19 -19 -164 -43 -274 -47 -68 -3 -116 -8 -119 -15 -11 -35 61
-205 102 -241 53 -45 78 -51 202 -52 151 0 245 7 245 17 0 5 5 5 10 2 6 -4 8
-11 5 -16 -4 -5 17 -9 48 -9 131 0 346 186 418 360 9 23 14 72 14 141 0 98 -2
109 -32 170 -24 50 -33 82 -37 144 -5 73 -22 135 -37 135 -4 0 -14 -21 -24
-47z"/>
<path d="M1 565 c0 -177 2 -195 13 -159 7 22 11 65 9 95 -2 30 1 61 6 69 9 12
14 11 38 -12 43 -41 160 -94 152 -69 -2 5 -44 54 -94 107 -50 53 -98 113 -107
133 -16 35 -17 31 -17 -164z"/>
</g>
</svg>
