<?xml version="1.0" standalone="no"?>
<!DOCTYPE svg PUBLIC "-//W3C//DTD SVG 20010904//EN"
 "http://www.w3.org/TR/2001/REC-SVG-20010904/DTD/svg10.dtd">
<svg version="1.0" xmlns="http://www.w3.org/2000/svg"
 width="1024.000000pt" height="682.000000pt" viewBox="0 0 1024.000000 682.000000"
 preserveAspectRatio="xMidYMid meet">

<g transform="translate(0.000000,682.000000) scale(0.100000,-0.100000)"
fill="#000000" stroke="none">
<path d="M6225 6768 c-18 -160 -90 -816 -110 -1018 -27 -261 -69 -647 -85
-785 -21 -183 -13 -164 -94 -232 -44 -38 -79 -78 -89 -100 -51 -119 -94 -245
-127 -378 -21 -82 -50 -175 -63 -206 l-25 -56 -179 -6 c-191 -7 -386 -29 -469
-52 -117 -33 -191 -113 -223 -241 l-17 -67 -47 74 c-25 41 -73 107 -105 148
-33 40 -65 92 -72 115 -17 58 -24 63 -88 71 -45 5 -78 1 -157 -20 -59 -16
-135 -28 -185 -29 -47 -2 -74 0 -60 3 l25 7 -30 8 c-16 4 -56 19 -88 33 -58
26 -87 25 -51 -2 10 -8 41 -22 67 -31 27 -9 46 -18 44 -21 -3 -2 -33 7 -68 21
-34 14 -66 23 -69 21 -4 -3 -5 -16 -2 -30 6 -36 -4 -31 -24 12 -26 53 -29 23
-9 -76 18 -86 47 -152 81 -182 27 -24 97 -33 126 -18 20 11 22 10 10 -3 -37
-45 -151 -15 -177 47 -7 18 -9 18 -12 3 -3 -10 3 -25 12 -34 11 -12 13 -20 6
-27 -6 -6 -12 -25 -12 -41 l-2 -31 -4 29 c-13 87 -53 260 -61 265 -5 3 -12 25
-15 49 -3 24 -8 46 -10 49 -3 3 -20 2 -38 -2 -23 -5 -34 -15 -43 -39 -20 -56
-107 -226 -116 -226 -4 0 -16 -22 -26 -50 -10 -27 -23 -50 -29 -50 -7 0 -17
-11 -23 -25 -6 -14 -8 -25 -3 -25 5 0 11 6 14 13 2 6 8 9 12 5 4 -4 -12 -58
-36 -120 -42 -113 -64 -163 -145 -337 -25 -52 -42 -96 -39 -99 3 -3 5 0 5 6 0
6 6 17 13 24 32 34 217 456 233 532 2 10 9 24 15 32 10 12 9 13 -6 8 -13 -5
-16 -3 -13 7 3 8 13 16 22 17 16 3 17 -1 10 -30 -10 -44 -11 -138 -2 -138 4 0
11 -18 14 -40 4 -24 12 -40 20 -40 8 0 14 -6 14 -14 0 -8 5 -16 10 -18 17 -5
-16 -154 -44 -202 -13 -22 -36 -52 -50 -65 -14 -14 -26 -29 -26 -34 0 -6 -16
-42 -34 -81 -19 -39 -42 -96 -51 -126 -26 -86 -93 -133 -136 -94 -18 16 -19
16 -13 1 5 -13 2 -16 -10 -11 -10 4 -16 1 -16 -9 0 -8 -3 -17 -7 -19 -17 -7
-52 -96 -57 -143 -3 -27 0 -79 7 -115 14 -77 30 -85 104 -49 53 26 93 78 135
176 50 115 156 442 183 563 68 301 78 341 83 336 8 -9 25 -114 28 -181 3 -77
18 -143 44 -199 11 -25 20 -51 20 -57 0 -7 45 -148 99 -314 137 -415 164 -518
165 -630 0 -66 -4 -98 -16 -120 -16 -29 -70 -85 -82 -85 -7 0 -48 -33 -83 -67
-13 -13 -27 -23 -30 -23 -3 0 -22 -12 -42 -28 -20 -15 -56 -38 -81 -52 -132
-73 -210 -124 -200 -130 8 -5 5 -10 -7 -15 -10 -5 -21 -8 -25 -7 -3 1 -9 -5
-11 -13 -4 -9 1 -14 16 -13 43 0 77 10 71 19 -3 5 4 9 15 9 12 0 21 -5 21 -10
0 -6 10 -15 23 -21 l22 -10 -23 5 c-18 3 -32 -4 -55 -31 -52 -58 -54 -65 -77
-232 -4 -35 -14 -68 -20 -75 -9 -8 -11 -7 -10 4 1 8 2 24 1 35 -1 18 -3 17
-14 -5 -27 -52 -49 -79 -69 -86 -15 -4 -17 -8 -8 -14 9 -5 9 -9 1 -14 -14 -9
-41 17 -42 41 0 15 -2 14 -11 -4 -19 -39 -27 -25 -13 20 11 37 11 44 -1 44 -7
0 -11 -5 -8 -11 3 -6 -2 -2 -10 8 -11 14 -16 16 -16 6 0 -12 -3 -11 -16 2 -13
13 -14 20 -4 39 12 22 13 22 28 3 12 -15 13 -16 9 -2 -4 11 1 19 14 23 18 6
23 20 21 55 0 8 5 18 11 22 36 22 -75 43 -123 24 -18 -7 -87 -2 -113 9 -12 5
-24 1 -37 -13 -18 -19 -18 -20 3 -30 22 -11 22 -11 -3 -12 l-25 -1 24 -13 c18
-10 20 -15 10 -19 -12 -5 -12 -7 1 -16 12 -9 9 -11 -14 -11 -29 0 -179 67
-229 102 -15 11 -25 24 -21 29 4 6 11 6 20 -2 11 -9 14 -9 14 1 0 6 6 10 13 7
6 -2 11 -11 9 -18 -1 -9 3 -8 11 3 8 10 28 18 45 18 17 0 34 5 37 10 3 6 17
10 31 10 14 0 34 5 45 11 11 5 41 12 67 15 26 3 69 10 95 16 26 5 68 7 92 3
25 -3 51 -3 57 2 7 4 21 9 31 10 45 7 87 33 87 52 0 25 -5 25 -60 6 -56 -20
-58 -19 -63 13 l-4 27 -2 -27 c-1 -25 -5 -27 -58 -33 -32 -3 -88 -9 -125 -14
-45 -5 -72 -4 -79 3 -8 8 -13 7 -16 -1 -3 -7 -14 -12 -26 -12 -21 1 -21 2 -2
6 15 4 9 9 -24 19 -25 7 -48 11 -53 8 -4 -3 -8 -1 -8 5 0 6 -13 9 -30 7 -16
-2 -31 -1 -34 1 -2 3 6 32 19 66 12 34 32 105 43 157 38 178 47 292 46 605 -1
318 -15 504 -56 717 -22 121 -37 422 -20 403 5 -5 18 -35 27 -65 10 -30 33
-86 50 -125 18 -38 35 -77 38 -85 4 -11 6 -11 6 -2 1 8 -19 65 -44 127 -40
101 -62 172 -68 215 -1 8 -6 18 -12 22 -6 4 -2 8 9 8 13 0 16 -5 12 -17 -7
-18 9 -33 35 -33 27 0 11 48 -22 64 -20 10 -29 11 -32 2 -3 -6 -8 -3 -12 7 -5
11 -3 23 5 30 10 9 11 9 6 0 -4 -7 -2 -13 5 -13 7 0 9 10 7 25 -3 14 -3 25 0
25 17 0 79 -49 103 -83 16 -22 29 -37 29 -32 0 4 7 2 15 -5 12 -10 18 -10 29
-1 9 7 38 11 73 9 52 -3 58 -1 58 17 0 11 -7 23 -15 27 -11 5 -10 7 5 7 15 1
5 16 -48 65 -37 36 -67 69 -67 75 0 6 -9 15 -19 20 -10 6 -33 45 -51 87 -30
71 -30 77 -15 100 9 14 13 29 10 34 -3 5 0 12 6 16 8 5 9 3 4 -6 -5 -9 -4 -11
3 -6 9 5 9 13 1 27 -11 22 2 49 25 49 6 1 20 15 32 33 11 18 27 31 36 29 12
-2 18 9 23 38 4 23 4 44 1 47 -3 4 4 18 16 31 l23 25 -24 -13 c-21 -11 -23
-10 -18 4 7 16 4 16 -50 -12 -28 -15 -33 -15 -33 -1 0 5 4 7 10 4 6 -3 10 1
10 9 0 9 -3 16 -8 16 -16 0 -92 81 -92 99 0 20 25 35 42 25 6 -4 6 2 -1 14
-14 25 -14 43 -1 22 5 -8 10 -10 10 -4 0 19 51 26 84 13 39 -16 46 -26 46 -69
l1 -35 15 35 c13 29 13 36 1 45 -8 5 -12 16 -10 22 3 7 -5 28 -16 47 -21 34
-16 51 11 41 7 -3 20 8 30 25 23 41 37 38 44 -11 5 -27 10 -36 15 -27 6 9 9 9
9 1 0 -6 -7 -18 -15 -27 -20 -20 -19 -25 8 -24 27 2 46 16 58 43 7 16 8 14 4
-9 -6 -26 -4 -28 9 -17 9 8 16 20 16 28 0 13 3 13 15 3 12 -10 16 -7 25 16 15
39 15 94 0 104 -7 4 -10 12 -7 17 3 5 2 38 -3 73 -8 60 -7 67 18 107 24 39
133 181 173 225 8 10 32 50 54 90 21 40 60 98 86 129 27 31 50 66 52 78 2 12
12 32 22 44 13 15 19 39 20 74 2 57 29 106 55 98 8 -2 22 0 30 5 8 5 11 10 5
10 -16 0 18 20 35 20 13 0 13 -1 0 -10 -9 -6 -10 -10 -3 -10 6 0 18 6 26 14 8
8 27 23 43 33 25 16 29 24 30 66 0 26 -3 47 -8 47 -4 0 -8 9 -8 20 0 29 -31
100 -44 100 -6 1 -36 2 -67 3 -38 1 -63 8 -77 20 -23 21 -117 57 -149 57 -12
0 -32 4 -45 9 -114 45 -151 51 -363 53 -212 3 -254 0 -290 -20 -14 -7 -26 -7
-38 -1 -20 11 -117 -4 -171 -26 -91 -38 -217 -153 -269 -247 -20 -37 -37 -73
-37 -81 0 -8 -8 -25 -19 -38 -18 -24 -79 -199 -88 -254 -3 -16 -12 -43 -21
-58 -14 -24 -15 -29 -3 -37 13 -7 12 -18 -2 -76 -17 -70 -15 -97 2 -50 15 39
20 32 20 -29 0 -59 -26 -145 -62 -203 -13 -20 -29 -56 -37 -79 -7 -24 -17 -43
-21 -43 -7 0 -38 -91 -43 -128 -1 -7 -6 -16 -12 -22 -5 -5 -10 15 -11 55 -1
55 1 64 18 68 10 3 22 13 26 24 3 10 11 21 16 24 14 10 12 145 -2 142 -6 -2
-11 4 -11 12 0 10 -10 15 -32 15 -37 0 -214 -16 -333 -30 -44 -6 -150 -15
-235 -20 -170 -12 -193 -14 -325 -31 -141 -18 -304 -17 -315 1 -7 10 -10 11
-10 3 0 -7 -7 -13 -15 -13 -8 0 -24 -5 -34 -12 -15 -9 -23 -9 -37 2 -15 14
-15 15 7 21 24 7 23 7 -3 8 -15 1 -30 6 -33 12 -4 6 -13 8 -21 5 -7 -3 -27 2
-44 12 -25 14 -32 15 -39 3 -6 -9 -18 -11 -35 -7 -14 3 -34 2 -43 -3 -41 -21
-102 -34 -115 -24 -8 7 -39 8 -83 3 -38 -4 -62 -8 -52 -9 10 0 17 -9 17 -21 0
-15 -7 -20 -29 -20 -16 0 -34 -7 -41 -15 -7 -8 -19 -15 -27 -15 -8 0 -11 -5
-7 -11 4 -8 0 -8 -15 0 -11 7 -21 19 -21 29 -1 15 -2 15 -15 -2 -16 -22 -109
-34 -120 -16 -7 12 -57 13 -70 2 -6 -4 -9 -5 -8 -3 2 2 -2 11 -9 18 -9 11 -9
16 2 23 25 15 6 19 -33 7 l-38 -12 1 -222 c1 -210 2 -223 20 -223 10 0 25 6
32 13 7 7 24 13 38 14 45 3 125 19 138 26 8 5 12 2 12 -8 0 -9 6 -15 13 -12 6
2 11 11 9 18 -3 11 -1 11 9 2 8 -8 19 -9 38 -2 14 6 48 11 75 11 40 1 46 3 32
14 -14 10 -12 11 16 9 51 -4 55 -6 28 -15 -24 -8 -25 -8 -2 -9 13 -1 22 -7 21
-13 -3 -26 1 -48 10 -48 5 0 7 8 4 19 -4 14 2 20 24 23 15 3 35 8 43 11 8 4
22 3 30 -2 12 -8 12 -13 -4 -30 -20 -22 -22 -21 25 -25 15 -1 31 42 19 49 -15
9 -12 35 4 35 8 0 16 6 19 13 3 9 7 9 20 -2 15 -12 17 -11 17 3 0 21 17 21 23
-1 3 -13 5 -11 6 6 1 19 4 21 15 12 8 -6 20 -10 27 -9 9 2 16 -24 24 -87 7
-49 16 -98 20 -107 4 -12 3 -18 -5 -18 -8 0 -10 -9 -6 -25 4 -14 2 -25 -3 -25
-5 0 -9 -6 -8 -12 1 -35 -5 -47 -24 -53 -12 -4 -17 -10 -11 -14 12 -7 -16 -44
-38 -49 -26 -6 -31 -27 -7 -34 20 -6 20 -6 -5 -7 -14 -1 -34 -4 -42 -7 -15 -6
-15 -8 1 -19 17 -13 17 -14 1 -20 -10 -4 -16 -11 -13 -15 3 -5 -2 -16 -12 -25
-14 -14 -14 -18 -2 -26 12 -7 12 -9 -1 -9 -18 0 -50 -34 -50 -54 0 -8 -12 -25
-28 -38 -15 -12 -36 -34 -47 -48 -20 -25 -38 -32 -82 -32 -19 0 -22 -4 -17
-24 5 -20 2 -24 -14 -24 -17 0 -20 -5 -17 -29 3 -28 2 -29 -28 -20 -17 5 -33
6 -36 4 -2 -3 0 -5 6 -5 17 0 2 -50 -16 -50 -13 -1 -13 -3 3 -15 19 -15 19
-15 -1 -15 -12 0 -24 -6 -27 -12 -5 -10 -7 -10 -12 0 -9 18 -24 14 -24 -7 0
-10 -16 -35 -35 -56 -34 -36 -37 -37 -50 -19 -20 27 -27 13 -10 -20 21 -39 19
-40 -16 -15 -29 20 -31 20 -27 3 2 -10 14 -24 28 -31 l25 -13 -30 0 c-23 0
-34 7 -47 30 -9 17 -22 30 -27 30 -18 0 -33 -40 -26 -71 5 -21 2 -31 -9 -35
-28 -11 -17 -24 24 -30 41 -7 58 -34 21 -34 -11 0 -23 -4 -26 -10 -6 -10 13
-15 48 -12 9 1 17 -3 17 -8 0 -6 -12 -10 -27 -10 -41 0 -73 -11 -73 -24 0 -12
45 -36 67 -36 7 0 13 -7 13 -15 0 -19 -24 -19 -40 0 -27 33 -40 17 -40 -49 0
-50 4 -65 16 -70 16 -6 16 -8 0 -24 -12 -14 -16 -37 -15 -88 0 -38 3 -62 6
-54 4 8 14 22 24 31 10 8 20 31 22 50 3 20 3 14 2 -13 -1 -26 2 -45 7 -42 4 3
8 -11 8 -30 0 -29 -4 -36 -19 -36 -30 0 -51 -11 -51 -26 0 -8 5 -14 10 -14 6
0 10 7 10 15 0 17 13 19 38 6 10 -4 32 -4 52 2 l35 10 -28 9 c-21 8 -26 14
-22 29 4 10 2 19 -4 19 -5 0 -9 8 -8 18 1 14 7 17 24 14 21 -4 23 -1 23 36 0
43 10 52 61 52 16 0 29 5 29 10 0 6 5 10 10 10 6 0 10 -7 10 -15 0 -8 6 -15
13 -15 6 0 -3 -9 -20 -20 -18 -11 -33 -25 -33 -31 0 -8 5 -7 16 2 13 10 17 10
24 -1 12 -20 40 -4 40 25 0 14 5 25 10 25 6 0 10 -10 10 -22 0 -13 7 -31 14
-41 15 -19 36 -23 36 -7 0 19 43 28 58 14 7 -8 24 -14 37 -14 27 0 95 30 95
41 0 15 -22 21 -33 10 -15 -15 -27 -14 -27 4 0 8 -8 15 -17 15 -14 0 -15 2 -4
13 11 9 14 9 18 0 7 -20 31 -15 44 8 10 19 17 21 60 15 27 -4 56 -9 64 -12 22
-9 18 -26 -4 -19 -10 3 -29 2 -41 -3 l-24 -9 28 -7 c19 -4 26 -12 22 -21 -3
-8 -1 -17 4 -20 6 -4 10 3 10 14 0 18 6 21 40 21 38 0 54 13 28 23 -10 4 -9 8
2 16 23 17 53 14 46 -4 -6 -17 22 -95 34 -95 5 0 11 6 13 13 5 12 11 -39 7
-58 -1 -5 -3 -31 -4 -56 -2 -65 -49 -119 -109 -124 -79 -6 -132 -18 -143 -33
-7 -9 -18 -13 -29 -8 -10 3 -15 9 -12 13 4 3 -1 12 -11 19 -12 9 -19 9 -24 1
-4 -6 -10 7 -14 31 -7 46 -19 54 -30 20 -6 -20 -7 -20 -16 -3 -7 12 -7 20 2
25 8 5 7 9 -5 14 -28 10 -41 8 -27 -6 18 -18 14 -30 -10 -26 -11 2 -23 -3 -25
-9 -3 -7 2 -13 11 -13 19 0 21 -11 4 -28 -9 -9 -7 -12 12 -13 16 -1 19 -3 8
-6 -9 -2 -28 3 -42 13 -25 16 -26 16 -26 -5 0 -12 6 -21 15 -21 8 0 15 -4 15
-10 0 -16 -19 -12 -42 10 -26 24 -88 28 -88 5 0 -9 -11 -21 -25 -27 -14 -6
-25 -17 -25 -25 0 -18 -29 -16 -37 3 -3 8 -15 14 -27 12 -11 -1 -22 1 -23 6
-1 10 -24 26 -36 26 -4 0 -7 -6 -5 -12 2 -7 -2 -13 -7 -13 -12 -1 -7 28 7 36
7 4 6 8 -1 10 -7 3 -16 21 -20 41 -8 32 -6 37 16 47 13 6 21 16 18 21 -4 6
-16 3 -30 -7 -19 -14 -24 -27 -25 -58 0 -23 5 -46 12 -53 9 -9 9 -12 0 -12 -9
0 -12 -302 -12 -1290 0 -1230 2 -1338 26 -1275 4 9 19 15 40 15 19 0 34 4 34
8 0 15 -24 32 -44 32 -15 0 -17 3 -8 12 15 15 69 21 77 8 3 -6 -1 -10 -9 -10
-9 0 -16 -4 -16 -8 0 -14 35 -42 53 -42 9 0 19 -4 22 -10 13 -21 25 -9 25 24
0 19 5 38 10 41 6 3 10 15 10 26 0 10 2 19 4 19 12 0 96 -85 96 -97 0 -7 11
-13 25 -13 14 0 25 -4 25 -10 0 -5 -5 -10 -11 -10 -8 0 -10 -12 -6 -35 5 -33
4 -35 -31 -41 -20 -4 -44 -10 -52 -14 -28 -14 -92 -22 -85 -11 3 6 -1 11 -9
11 -10 0 -13 -6 -9 -17 9 -26 -3 -13 -21 22 -12 23 -23 30 -52 32 -49 3 -94
-24 -94 -55 0 -21 4 -23 24 -18 13 3 39 3 57 -1 l33 -6 -34 -13 c-19 -7 -45
-13 -57 -13 -19 -1 -23 -7 -23 -31 l0 -30 2448 0 2447 0 -64 36 c-35 19 -89
40 -120 45 -118 21 -419 148 -484 203 -15 13 -41 29 -57 36 -18 8 -34 24 -41
44 -11 30 -13 31 -83 34 -86 4 -102 16 -111 85 -4 29 -13 79 -21 112 -7 33
-14 92 -14 131 0 49 -4 75 -14 83 -8 7 -12 21 -9 32 3 12 1 24 -6 28 -16 10
42 124 71 139 19 10 46 7 153 -18 72 -17 142 -33 156 -36 21 -5 27 -2 33 18 7
23 7 23 20 -6 8 -17 15 -24 18 -16 3 10 10 9 31 -4 15 -10 85 -28 164 -41 227
-38 403 -89 509 -146 39 -22 104 -50 144 -64 40 -14 88 -34 107 -45 40 -24 47
-25 40 -6 -5 12 23 32 47 34 5 0 12 6 17 13 16 27 22 -2 9 -43 -8 -24 -12 -50
-11 -58 1 -8 26 -40 56 -70 50 -52 60 -80 29 -80 -8 0 -14 5 -14 11 0 8 -6 7
-17 -2 -13 -11 -17 -11 -20 -1 -3 6 -11 12 -19 12 -8 0 -14 6 -14 14 0 8 -5
18 -12 22 -7 4 -8 3 -4 -4 5 -8 2 -10 -8 -6 -9 3 -13 11 -10 16 4 6 1 9 -6 6
-23 -7 -22 -26 1 -45 12 -10 54 -45 93 -78 39 -34 90 -76 114 -95 24 -19 39
-36 33 -38 -6 -2 -11 -8 -11 -14 0 -6 6 -8 14 -5 22 9 26 -3 10 -27 -8 -13
-11 -26 -7 -29 3 -4 1 -7 -5 -7 -7 0 -12 9 -12 21 0 16 -4 19 -21 14 -19 -6
-21 -4 -16 16 l6 24 -19 -22 c-10 -13 -23 -23 -30 -23 -17 0 -100 39 -155 74
-27 18 -72 40 -100 50 -27 10 -59 24 -70 30 -11 7 -42 20 -70 30 -27 10 -54
23 -59 27 -6 5 -17 9 -25 9 -26 0 1 -16 93 -55 49 -21 109 -53 133 -71 50 -38
157 -101 218 -129 63 -28 68 -34 50 -61 -8 -13 -15 -31 -15 -41 0 -40 -14 -46
-66 -29 -158 50 -277 98 -448 182 -123 61 -205 78 -101 21 33 -18 98 -62 145
-98 47 -35 117 -81 156 -102 l72 -37 331 0 331 0 0 29 c0 16 6 31 15 35 21 8
19 74 -4 155 -31 108 -32 118 -16 135 19 18 19 30 1 45 -17 14 -46 100 -46
135 0 14 -5 48 -11 76 -12 58 -34 70 -25 13 3 -21 10 -103 16 -183 5 -80 11
-169 14 -198 4 -51 4 -52 -20 -46 -16 4 -24 2 -24 -7 0 -11 -2 -11 -9 0 -14
22 -24 -29 -17 -85 l5 -47 -29 28 c-22 21 -39 57 -64 134 -18 59 -37 126 -41
151 -4 24 -14 54 -22 67 -8 12 -18 50 -23 86 -5 35 -21 88 -35 118 -13 30 -25
62 -25 72 0 9 -4 17 -10 17 -5 0 -19 21 -30 48 -23 51 -76 112 -97 112 -7 0
-21 13 -32 30 -10 16 -21 27 -25 23 -10 -11 9 38 39 97 14 28 25 59 23 68 -1
9 2 23 6 31 7 11 5 13 -9 7 -15 -5 -16 -4 -5 9 10 12 15 13 28 3 13 -11 14
-10 3 10 -10 18 -9 22 4 22 8 0 15 5 15 10 0 6 -5 10 -11 10 -14 0 -2 37 23
71 11 14 39 37 61 50 58 33 178 33 255 -1 62 -27 118 -87 133 -142 5 -21 14
-38 19 -38 5 0 7 -7 4 -15 -4 -8 -2 -15 4 -15 13 0 24 -27 28 -76 2 -23 18
-72 35 -110 18 -38 44 -103 58 -144 37 -104 84 -182 128 -213 21 -15 58 -53
82 -87 24 -33 47 -60 52 -60 4 0 27 -26 51 -57 58 -77 62 -84 45 -77 -8 3 -18
1 -21 -5 -9 -13 15 -51 31 -51 7 0 13 -5 13 -11 0 -7 9 -9 21 -6 12 3 22 0 25
-8 22 -57 -73 -3 -129 73 -20 26 -57 67 -84 93 -27 25 -56 54 -64 65 -22 32
-99 97 -105 91 -4 -3 5 -26 20 -51 17 -30 26 -59 26 -89 0 -25 7 -62 16 -83 9
-21 22 -65 29 -98 7 -34 16 -74 20 -91 l7 -30 -20 24 c-11 13 -27 22 -38 19
-25 -4 -31 -61 -9 -94 8 -13 11 -24 5 -24 -13 0 -46 66 -55 110 -4 19 -15 63
-25 96 -10 34 -20 90 -21 125 -2 45 -8 69 -21 82 -9 9 -19 17 -21 17 -10 0
-15 -148 -7 -189 5 -25 11 -78 13 -118 3 -57 2 -70 -9 -66 -9 3 -14 -2 -15
-13 0 -11 -3 -14 -6 -6 -11 27 -33 12 -33 -23 l0 -35 1871 0 1871 0 87 41
c281 134 273 131 265 106 -3 -12 -11 -24 -15 -25 -5 -2 -7 -8 -3 -13 3 -5 1
-9 -5 -9 -5 0 -9 -12 -8 -27 1 -20 -3 -28 -17 -31 -10 -2 -22 1 -26 8 -10 15
-76 -2 -72 -20 2 -9 -5 -10 -23 -6 -20 5 -25 3 -25 -11 0 -15 2 -16 10 -3 6
10 10 11 10 3 0 -18 191 -18 208 -1 9 9 12 9 12 0 0 -7 14 -12 35 -12 19 0 35
5 35 10 0 6 -6 10 -12 9 -7 -1 -26 3 -41 9 -36 15 -47 15 -47 0 0 -6 -2 -9 -5
-7 -2 3 2 25 10 49 11 37 14 40 14 18 1 -16 6 -28 12 -28 7 0 9 10 7 25 -7 35
10 42 17 8 4 -15 11 -37 16 -48 7 -16 8 -13 4 13 -16 99 -28 120 -45 80 -9
-20 -10 -18 -5 11 6 41 7 42 36 44 12 1 33 12 45 24 13 13 30 23 39 23 13 0
15 119 15 1144 l0 1144 -49 21 c-27 11 -52 21 -55 21 -3 0 -30 11 -60 25 -30
14 -59 25 -65 25 -6 0 -25 9 -43 20 -18 11 -40 20 -49 20 -28 0 -138 62 -145
82 -4 14 -15 18 -52 18 -28 0 -85 13 -139 32 l-92 33 -68 -18 c-37 -9 -75 -17
-83 -17 -21 1 -46 38 -54 82 -4 25 -17 44 -41 62 -24 18 -41 45 -56 86 -12 33
-28 65 -35 71 -8 6 -14 16 -14 21 0 6 -11 24 -25 40 -14 16 -23 33 -20 38 3 5
-8 21 -25 37 -16 15 -30 34 -30 41 0 7 -20 33 -44 58 -27 27 -43 51 -39 60 7
18 -23 64 -41 64 -11 0 -11 10 -4 50 8 47 7 53 -16 81 -15 17 -26 26 -26 20 0
-24 -21 -9 -40 28 -12 25 -16 42 -10 46 6 4 7 11 4 17 -5 7 0 9 15 5 14 -3 24
1 31 13 14 25 13 27 -12 34 -22 6 -22 7 -4 18 15 8 21 8 24 0 4 -12 30 -5 49
13 6 7 8 17 3 25 -6 9 -10 8 -18 -6 -10 -17 -11 -18 -17 -2 -4 9 -13 14 -20
12 -7 -3 -16 0 -20 6 -10 17 13 39 35 33 11 -3 20 0 20 6 0 6 5 11 10 11 6 0
10 -9 10 -20 0 -11 5 -20 10 -20 6 0 10 10 10 23 0 18 2 19 10 7 7 -10 12 -12
18 -4 4 6 14 13 22 16 10 4 6 8 -12 13 -41 11 -34 25 12 25 29 0 40 -4 40 -15
0 -17 14 -19 40 -5 12 7 16 17 13 31 -5 19 -3 21 23 15 16 -3 43 -2 59 3 17 5
24 10 17 10 -7 1 -10 6 -6 12 3 6 0 15 -7 20 -21 13 -59 11 -59 -3 -1 -8 -6
-6 -14 5 -16 21 -42 22 -50 2 -4 -12 -10 -14 -25 -5 -25 13 -71 13 -71 0 0 -5
9 -10 19 -10 29 0 35 -17 9 -26 -15 -4 -25 -1 -35 12 -12 16 -15 17 -23 4 -7
-11 -12 -12 -18 -3 -8 12 -62 6 -62 -8 0 -4 8 -13 18 -18 9 -6 12 -11 5 -11
-6 0 -15 5 -18 10 -3 6 -15 10 -25 10 -10 0 -24 8 -29 18 -6 9 -11 11 -11 5 0
-7 -5 -13 -11 -13 -6 0 -9 8 -7 18 2 9 10 16 16 15 7 -2 12 4 12 12 0 15 61
32 79 21 5 -4 12 3 16 14 4 11 11 18 16 14 5 -3 7 -10 4 -15 -9 -14 12 -11 28
5 8 9 19 11 27 6 9 -6 19 -2 27 10 13 18 40 26 110 34 18 2 38 8 45 13 18 14
50 24 44 14 -3 -4 5 -6 18 -4 14 3 23 11 22 21 -1 12 6 16 22 15 15 -2 22 3
22 13 0 13 7 15 30 10 40 -8 81 -55 69 -78 -5 -9 -9 -26 -9 -37 0 -11 -6 -24
-14 -28 -18 -11 -25 -35 -15 -55 6 -11 2 -23 -15 -39 -27 -26 -19 -49 15 -49
18 0 18 -2 5 -37 -8 -21 -16 -46 -18 -57 -2 -11 -17 -23 -38 -30 -24 -7 -36
-18 -38 -33 -2 -13 -13 -24 -28 -27 -24 -6 -34 -26 -13 -26 6 0 9 -9 6 -20 -3
-11 -1 -20 4 -20 5 0 14 -20 20 -45 7 -26 17 -45 25 -45 8 0 14 5 14 10 0 6 6
10 14 10 8 0 12 -8 9 -22 -5 -31 12 -57 27 -42 8 8 9 22 1 49 l-10 37 28 -5
c21 -4 34 -1 46 13 9 10 30 22 46 25 15 4 46 15 67 25 30 15 62 19 135 19 86
0 99 -3 133 -25 20 -14 43 -23 50 -20 8 3 27 1 42 -6 15 -6 36 -14 47 -18 11
-3 41 -17 67 -29 32 -16 56 -21 73 -17 20 5 32 0 56 -24 30 -30 30 -30 7 -32
-13 0 -30 -1 -38 0 -19 1 -50 -16 -50 -28 0 -32 125 -46 142 -17 8 16 12 16
38 2 l30 -16 0 1432 c0 788 -2 1430 -4 1428 -2 -2 -38 -161 -80 -354 -42 -192
-85 -388 -96 -435 -36 -154 -138 -631 -185 -860 -25 -124 -49 -240 -53 -259
-12 -57 -28 -59 -148 -24 -104 30 -109 30 -158 16 -28 -8 -62 -21 -76 -29 -28
-14 -116 -36 -243 -61 -45 -8 -113 -22 -152 -30 -182 -37 -246 -46 -257 -35
-9 9 -9 27 0 74 64 347 88 480 162 901 47 266 59 329 95 512 18 94 45 235 60
315 14 80 37 197 50 260 23 111 87 421 104 508 l9 42 -1518 0 -1519 0 -6 -52z
m1814 -590 c-23 -46 -60 -87 -90 -102 -42 -21 -46 -20 -25 3 10 11 15 24 12
30 -3 5 14 20 39 32 24 12 47 31 51 41 3 10 10 18 15 18 6 0 5 -9 -2 -22z
m-319 -77 c0 -23 -1 -24 -20 -6 -11 10 -20 26 -20 37 0 16 3 16 20 6 11 -7 20
-24 20 -37z m280 -15 c0 -2 -8 -10 -17 -17 -16 -13 -17 -12 -4 4 13 16 21 21
21 13z m40 1 c0 -2 -10 -12 -22 -23 l-23 -19 19 23 c18 21 26 27 26 19z m195
-7 c3 -6 -1 -7 -9 -4 -18 7 -21 14 -7 14 6 0 13 -4 16 -10z m74 -50 c13 -11
22 -22 20 -24 -2 -2 -22 12 -44 31 -22 19 -31 30 -20 24 11 -6 31 -20 44 -31z
m-156 -57 c-7 -2 -19 -2 -25 0 -7 3 -2 5 12 5 14 0 19 -2 13 -5z m-78 -56 c7
-6 0 -7 -20 -3 -16 4 -34 12 -40 17 -7 7 0 8 20 3 17 -3 35 -11 40 -17z m301
-24 c10 10 78 -104 119 -199 39 -92 65 -210 65 -298 0 -49 -2 -57 -16 -52 -12
5 -15 2 -10 -11 14 -36 26 -105 20 -114 -3 -6 -5 -50 -4 -97 3 -103 3 -86 -3
-284 -2 -87 -9 -163 -14 -170 -6 -7 -13 -30 -16 -52 -5 -34 -4 -38 13 -33 13
3 20 0 20 -9 0 -8 9 -14 21 -14 15 0 19 -4 15 -16 -4 -12 -2 -15 9 -10 8 3 16
0 16 -7 1 -7 3 -22 4 -33 1 -12 5 -26 9 -32 9 -15 -9 -23 -61 -28 -59 -6 -64
-10 -57 -42 l7 -27 -27 29 c-27 28 -50 30 -26 1 22 -26 -6 -16 -39 14 -17 16
-31 36 -31 45 0 9 -4 16 -10 16 -5 0 -10 -12 -10 -26 0 -15 -10 -54 -22 -86
-18 -50 -23 -57 -35 -45 -11 10 -11 20 -3 41 5 15 10 39 9 54 -1 26 -1 26 -15
-7 -8 -18 -13 -39 -10 -46 2 -7 -4 -12 -17 -11 -24 1 -27 21 -12 66 7 23 6 24
-9 11 -10 -8 -26 -32 -37 -53 -11 -21 -24 -38 -30 -38 -6 0 -1 15 10 34 20 33
28 71 14 64 -57 -27 -82 -45 -103 -74 -14 -20 -36 -49 -48 -65 -21 -26 -22
-32 -11 -58 9 -20 16 -26 21 -18 6 8 14 5 28 -13 23 -30 10 -51 -20 -32 -17
10 -20 10 -20 -5 0 -13 -3 -14 -12 -5 -15 15 -20 102 -7 118 5 6 6 19 3 28 -6
14 -9 15 -23 3 -9 -7 -28 -18 -43 -25 -23 -10 -28 -9 -28 3 0 8 6 15 13 15 8
0 24 11 38 26 21 22 21 24 4 18 -20 -7 -20 -7 0 17 11 13 22 26 25 29 15 15
40 80 46 118 4 23 10 42 15 42 15 0 80 150 90 208 6 31 20 93 31 137 11 44 26
111 33 148 14 76 35 112 35 60 0 -39 14 -51 16 -15 17 301 15 477 -3 458 -3
-3 -21 31 -39 76 -39 97 -84 148 -141 157 -36 7 -37 7 -15 19 17 10 27 10 45
1 40 -21 108 -81 119 -105 6 -13 15 -21 21 -17 5 3 5 8 0 12 -5 3 -24 31 -41
62 -32 57 -121 149 -143 149 -7 0 -9 3 -6 7 11 11 115 -66 155 -116 50 -60
142 -198 142 -212 0 -7 16 -34 35 -60 19 -27 35 -52 35 -55 0 -3 8 -17 19 -30
l19 -24 7 23 c6 20 8 18 21 -18 14 -40 14 -39 9 36 -2 42 -7 83 -11 92 -11 29
-23 8 -18 -31 3 -31 3 -33 -5 -12 -17 46 -44 135 -46 150 -5 41 -38 130 -47
130 -6 0 -9 3 -5 6 11 11 -20 59 -63 98 -22 20 -38 41 -34 47 4 7 17 0 35 -17
16 -15 32 -25 35 -21z m-810 -155 c13 -6 24 -15 24 -20 0 -4 9 -8 19 -8 11 0
23 -4 26 -10 3 -5 28 -10 55 -10 54 0 96 -19 150 -69 19 -17 38 -31 43 -31 16
0 63 -56 96 -115 l34 -59 -16 -71 c-9 -38 -18 -96 -21 -127 -9 -101 -14 -110
-50 -102 -27 6 -29 5 -18 -9 8 -9 23 -17 35 -19 19 -3 22 -9 20 -48 -9 -161
-24 -290 -38 -323 -21 -51 -16 -63 17 -38 33 27 37 26 30 -1 -3 -13 -67 -86
-142 -163 -116 -119 -220 -246 -220 -270 0 -4 -9 -18 -20 -32 -12 -16 -20 -41
-20 -64 0 -38 14 -60 23 -37 3 7 6 3 6 -9 1 -13 18 -40 39 -61 51 -51 142
-209 142 -247 0 -40 -55 -256 -82 -325 -12 -30 -39 -84 -60 -120 -22 -36 -44
-77 -51 -92 -6 -16 -17 -28 -23 -28 -7 0 -17 -13 -23 -30 -10 -32 -20 -37 -37
-20 -7 7 -15 -12 -23 -57 -8 -38 -17 -75 -22 -84 -10 -20 -19 -61 -26 -124 -3
-27 -19 -71 -35 -98 -16 -27 -26 -52 -22 -56 4 -3 9 0 11 7 3 6 9 12 14 12 4
0 6 -8 2 -17 -6 -17 -5 -17 13 -1 19 16 20 16 20 -1 0 -14 -7 -17 -29 -15 -20
3 -26 0 -21 -9 6 -9 5 -9 -7 0 -12 10 -20 2 -48 -47 -26 -48 -37 -60 -57 -60
-52 0 -106 43 -142 115 -22 43 -61 89 -69 81 -2 -2 -5 -25 -5 -51 0 -45 0 -46
-19 -29 -12 11 -19 30 -19 56 0 24 -7 45 -19 57 -11 11 -24 29 -31 40 -20 38
-28 29 -44 -42 -4 -15 -11 -25 -17 -22 -6 4 -7 55 -4 138 8 203 7 247 -9 247
-6 0 -17 -14 -25 -30 -14 -33 -54 -65 -69 -56 -21 13 -3 183 31 303 19 65 37
135 41 156 4 20 11 37 16 37 8 0 26 -58 22 -73 -7 -25 23 -93 54 -120 19 -18
34 -38 34 -44 0 -7 7 -13 15 -13 14 0 -14 68 -96 236 -29 58 -30 64 -20 120 8
45 30 294 31 347 0 14 36 -29 70 -86 19 -32 45 -68 57 -79 l23 -21 0 20 c0 12
-8 23 -20 26 -11 3 -25 16 -31 29 -15 33 -45 85 -56 100 -6 7 -13 34 -16 60
-7 47 -6 47 13 28 11 -11 23 -20 28 -20 4 0 15 -14 24 -30 20 -35 36 -39 33
-7 -1 12 -3 34 -4 48 0 14 -11 36 -23 49 -17 18 -18 22 -5 17 9 -3 17 -3 17 2
0 13 -26 32 -33 24 -4 -3 -7 6 -7 21 0 16 -4 25 -10 21 -6 -4 -10 7 -10 25 0
22 -4 29 -12 24 -10 -6 -10 -5 -1 7 13 16 6 59 -11 71 -8 5 -7 8 1 8 7 0 10 6
8 13 -3 6 5 18 17 26 19 12 24 11 39 -8 17 -21 18 -21 16 14 -1 19 -5 35 -9
35 -5 0 -8 8 -8 17 0 9 -6 24 -14 32 -33 36 -115 355 -101 390 4 9 9 45 11 81
9 118 79 350 107 350 6 0 8 3 4 6 -3 3 8 33 25 66 22 44 33 56 39 47 6 -10 9
-11 9 -1 0 11 8 22 56 74 9 9 13 21 9 27 -3 6 -1 11 5 11 14 0 40 25 40 39 0
6 4 11 9 11 5 0 14 14 20 31 8 24 16 30 33 28 13 -2 30 1 38 6 8 5 24 11 34
12 11 2 25 8 32 14 7 6 17 8 21 6 5 -3 24 -2 43 3 39 9 89 5 126 -12z m-3877
-196 c-28 -70 -96 -194 -159 -287 -66 -97 -235 -308 -309 -382 -33 -35 -61
-68 -61 -74 0 -5 -4 -8 -9 -5 -5 3 -15 -2 -22 -11 -12 -14 -12 -16 1 -8 8 5
-1 -7 -21 -26 -37 -35 -120 -149 -134 -184 -4 -11 -7 -27 -6 -35 2 -8 -1 -12
-5 -7 -15 14 -62 -79 -79 -156 -10 -46 -21 -74 -27 -71 -6 4 -8 -1 -5 -12 10
-36 17 -110 9 -89 -8 17 -10 14 -16 -19 -4 -21 -5 -41 -2 -44 3 -3 6 6 7 19 0
13 3 18 6 11 3 -7 -3 -31 -12 -54 -11 -28 -14 -55 -10 -82 5 -30 3 -37 -4 -26
-10 13 -11 13 -12 0 0 -8 -7 -1 -14 15 -8 17 -15 23 -15 15 -1 -10 -3 -11 -7
-2 -2 6 -8 10 -11 8 -4 -2 -7 34 -7 80 -1 101 -20 136 -31 55 -4 -28 -10 -51
-15 -51 -5 0 -9 -9 -9 -19 0 -10 -18 -77 -40 -147 -22 -71 -40 -134 -40 -140
0 -6 -7 -28 -15 -49 -13 -30 -18 -35 -30 -25 -12 10 -15 42 -15 149 0 99 -3
132 -11 121 -8 -11 -9 -7 -5 19 6 31 4 33 -17 27 -38 -12 -146 -22 -141 -14 7
11 -5 10 -46 -3 -85 -28 -337 -40 -351 -17 -18 28 -219 17 -219 -13 0 -5 -7
-9 -16 -9 -8 0 -39 -22 -68 -50 -29 -27 -55 -50 -58 -50 -12 0 0 41 18 61 10
12 12 19 4 14 -32 -19 -48 -39 -42 -53 4 -11 2 -13 -8 -7 -9 5 -11 4 -6 -3 4
-6 -2 -20 -13 -31 -11 -11 -18 -27 -15 -35 3 -9 -3 -20 -15 -28 -12 -7 -21
-19 -21 -26 0 -7 -5 -10 -12 -6 -6 4 -8 3 -5 -4 4 -5 -9 -29 -28 -52 -19 -23
-35 -46 -35 -51 0 -4 -9 -17 -21 -28 -12 -11 -18 -24 -15 -29 3 -6 -7 -37 -24
-68 -16 -32 -30 -66 -30 -76 0 -21 -6 -25 -55 -33 -36 -5 -38 -5 -19 7 12 7
19 19 17 26 -3 6 1 12 7 12 7 0 9 8 5 20 -4 13 -2 20 7 20 10 0 9 3 -2 11 -11
8 -8 9 15 4 24 -5 28 -4 18 6 -7 7 -13 20 -13 28 1 13 4 12 16 -4 15 -20 15
-19 12 5 -2 15 5 34 18 49 12 13 24 38 27 56 3 19 14 46 23 61 10 15 19 33 20
41 1 8 13 35 25 61 13 26 22 50 21 55 -1 4 3 7 8 7 6 0 21 11 33 23 33 35 135
117 146 117 6 0 22 11 36 25 14 14 25 23 25 20 0 -3 9 4 20 15 11 11 26 20 34
20 29 0 133 55 171 92 29 27 41 33 43 23 5 -21 8 -20 54 24 25 24 47 37 57 34
12 -4 13 -3 2 5 -11 8 -11 11 0 18 8 5 19 9 24 9 6 0 11 10 13 22 3 18 0 22
-15 16 -10 -3 -24 -11 -31 -16 -7 -5 -15 -7 -18 -4 -3 3 8 15 25 28 17 13 31
27 31 31 0 5 16 32 35 61 19 28 35 60 35 70 0 10 5 15 10 12 11 -7 11 -7 13
55 1 25 6 51 10 58 5 7 8 27 9 45 0 30 13 63 58 147 11 19 19 43 20 52 0 9 5
20 11 24 8 4 9 -1 4 -16 -4 -13 -9 -44 -11 -69 -4 -54 -37 -145 -48 -134 -5 5
-5 -3 -1 -16 5 -16 3 -26 -6 -32 -11 -7 -11 -9 -1 -9 7 0 17 10 22 23 5 12 9
16 9 10 1 -7 6 -13 12 -13 6 0 8 7 5 16 -3 8 -2 13 3 10 15 -9 32 53 21 74
-13 24 -13 31 2 27 8 -1 11 9 10 28 -2 17 4 46 12 65 15 38 16 40 16 71 0 11
4 18 9 15 9 -6 21 63 21 120 0 18 5 36 11 40 6 4 8 20 5 39 -4 19 -2 36 3 39
14 9 25 -56 18 -110 -5 -49 -1 -56 13 -21 6 15 7 4 3 -33 -3 -30 -16 -78 -29
-105 -13 -28 -28 -75 -35 -105 -6 -30 -16 -63 -21 -74 -7 -12 -6 -22 0 -28 7
-7 14 2 21 28 27 106 29 111 30 83 2 -44 -30 -130 -47 -127 -10 2 -21 -14 -32
-48 -34 -98 -101 -243 -121 -263 -27 -26 -129 -162 -129 -172 0 -5 5 -9 10 -9
6 0 10 5 10 12 0 6 6 4 13 -5 11 -16 16 -14 64 18 76 51 112 109 211 345 36
85 89 272 84 293 -2 5 1 6 6 3 9 -5 66 153 58 161 -3 3 -10 -7 -17 -23 -6 -16
-15 -37 -20 -46 -5 -10 -9 -27 -9 -37 0 -11 -4 -23 -10 -26 -11 -7 -5 34 15
105 7 25 10 71 8 103 -3 43 -1 57 7 52 9 -6 9 -1 0 15 -8 15 -8 20 -1 16 6 -4
13 -1 15 6 2 7 12 41 21 75 10 34 21 60 26 58 4 -3 15 3 25 12 17 17 18 17 10
-2 -37 -99 -86 -277 -71 -263 7 7 89 246 99 288 3 17 12 26 26 26 11 0 18 -5
16 -11 -2 -5 -9 -9 -16 -7 -8 2 -11 -4 -7 -17 2 -11 0 -22 -7 -24 -6 -3 -19
-37 -29 -76 -17 -66 -24 -102 -31 -176 -2 -16 -10 -47 -19 -69 -10 -21 -17
-54 -17 -73 0 -20 -4 -32 -10 -28 -6 3 -10 -4 -10 -17 0 -13 -2 -32 -4 -43 -2
-11 -1 -14 1 -7 3 6 8 12 13 12 11 0 59 88 96 174 16 38 42 82 59 99 32 33 71
157 53 168 -6 4 -6 9 2 14 6 4 9 13 6 21 -3 7 -1 16 4 19 5 3 12 -6 16 -20 3
-13 10 -22 15 -19 5 3 9 -3 9 -13 0 -11 3 -14 8 -7 4 6 21 19 39 29 17 10 36
29 43 43 6 13 14 22 17 18 4 -3 1 -12 -5 -18 -7 -7 -12 -20 -12 -30 0 -10 -6
-18 -14 -18 -14 0 -30 -29 -21 -38 3 -3 5 0 5 6 0 7 4 12 9 12 11 0 -3 -68
-30 -140 -12 -30 -24 -68 -27 -85 -3 -16 -12 -36 -21 -43 -9 -8 -10 -11 -3 -7
17 8 15 -16 -3 -51 -8 -16 -15 -36 -15 -45 0 -9 -7 -22 -15 -29 -8 -7 -15 -20
-15 -30 0 -9 -11 -33 -24 -53 -14 -20 -36 -67 -49 -104 -14 -37 -28 -66 -33
-63 -4 3 -11 -11 -16 -31 -4 -20 -23 -60 -43 -90 -34 -52 -49 -94 -20 -55 29
39 24 8 -8 -55 -19 -35 -37 -77 -41 -92 -3 -15 -11 -25 -16 -22 -6 3 -10 2
-10 -4 0 -5 -21 -36 -47 -68 -52 -63 -93 -119 -93 -127 0 -2 8 -2 18 1 37 9
200 163 173 163 -18 0 -13 16 18 62 16 24 41 67 56 96 25 47 29 51 40 35 12
-16 14 -15 26 12 8 17 16 32 19 35 8 8 63 124 64 135 1 6 16 38 34 73 18 34
30 67 27 72 -7 11 14 49 34 66 8 6 11 18 8 28 -4 9 -3 15 1 12 10 -6 98 174
146 299 19 50 35 85 36 80 1 -23 -73 -234 -106 -303 -20 -41 -34 -76 -32 -78
7 -7 78 120 90 161 7 22 15 42 18 45 3 3 12 25 19 50 8 25 16 40 18 34 2 -7
-6 -38 -18 -70 -12 -33 -22 -72 -24 -89 -3 -41 -14 -65 -31 -65 -19 0 -18 -16
2 -24 15 -6 54 9 54 20 0 3 -4 2 -10 -1 -5 -3 -10 -5 -10 -3 0 9 68 159 77
170 6 7 23 40 39 73 15 33 33 65 40 70 12 9 35 52 62 115 17 39 14 -1 -3 -50
-19 -54 -19 -66 0 -50 13 11 14 10 9 -6 -4 -10 -13 -26 -21 -35 -13 -16 -47
-118 -41 -124 2 -2 21 31 43 72 22 42 64 100 93 130 28 30 52 59 52 64 0 6 5
7 12 3 7 -5 9 -2 5 9 -3 8 0 20 7 26 7 6 21 35 30 64 20 62 40 98 30 52 -27
-122 -44 -167 -70 -193 -40 -41 -89 -114 -85 -131 1 -8 -2 -10 -10 -5 -7 4
-10 3 -6 -3 4 -5 -7 -23 -24 -39 -17 -16 -35 -38 -41 -49 -13 -25 91 88 115
126 11 16 24 29 29 29 12 0 -8 -33 -63 -106 -47 -62 -260 -270 -272 -266 -17
5 -56 -28 -73 -61 -10 -17 -35 -57 -58 -87 -40 -54 -51 -71 -101 -160 -14 -25
-41 -71 -60 -103 -19 -33 -32 -65 -29 -75 4 -12 3 -13 -3 -4 -7 9 -12 6 -21
-13 -16 -34 -15 -40 2 -26 10 9 16 8 26 -4 10 -12 9 -20 -4 -39 -13 -20 -14
-31 -5 -53 8 -20 13 -23 16 -13 3 8 18 44 35 79 16 34 45 101 64 148 20 47 40
90 45 97 5 6 26 36 46 66 20 30 59 75 87 100 28 25 89 81 135 125 46 44 92 88
103 98 10 10 16 23 12 29 -4 7 -3 8 4 4 6 -3 16 3 22 15 6 11 18 28 25 37 62
76 153 189 166 206 9 11 40 66 68 121 51 102 64 118 35 45 -9 -23 -14 -43 -11
-46 2 -3 19 30 37 73 38 93 63 138 68 123 2 -6 -6 -37 -19 -68z m4568 6 c-3
-8 -6 -5 -6 6 -1 11 2 17 5 13 3 -3 4 -12 1 -19z m183 -9 c15 -28 5 -23 -15 7
-9 15 -12 23 -6 20 6 -4 16 -16 21 -27z m-162 -79 c1 -23 0 -23 -8 -5 -5 11
-8 34 -8 50 0 29 0 29 8 5 4 -14 8 -36 8 -50z m-5587 -20 c-11 -25 -21 -38
-21 -30 0 8 7 28 15 44 9 16 13 38 10 50 -5 21 -5 21 5 1 9 -16 6 -31 -9 -65z
m-35 -26 c-4 -9 -9 -15 -11 -12 -3 3 -3 13 1 22 4 9 9 15 11 12 3 -3 3 -13 -1
-22z m81 -46 c-3 -8 -6 -5 -6 6 -1 11 2 17 5 13 3 -3 4 -12 1 -19z m-23 -49
c-1 -23 -7 -46 -13 -52 -8 -8 -11 -8 -11 0 0 7 5 15 10 18 6 4 8 11 4 16 -6
10 2 59 10 59 2 0 2 -19 0 -41z m-137 1 c-1 -12 -5 -16 -10 -11 -5 5 -6 14 -3
20 11 16 15 13 13 -9z m0 -62 c-3 -7 -5 -2 -5 12 0 14 2 19 5 13 2 -7 2 -19 0
-25z m-47 -58 c-5 -22 -8 -27 -9 -13 -1 21 9 56 14 51 2 -2 0 -19 -5 -38z
m-163 -2 c-3 -7 -5 -2 -5 12 0 14 2 19 5 13 2 -7 2 -19 0 -25z m314 -7 c4 7
11 10 15 6 4 -3 1 -14 -6 -22 -11 -13 -15 -13 -21 -3 -5 7 -8 18 -8 23 0 6 3
4 6 -4 4 -11 7 -11 14 0z m282 -42 c23 3 24 -3 10 -44 -8 -25 -19 -43 -24 -39
-5 3 -7 -1 -4 -8 3 -7 -18 -53 -46 -103 -28 -49 -48 -82 -45 -72 10 30 -13 8
-34 -33 -11 -22 -20 -46 -20 -55 0 -8 -8 -23 -18 -33 -10 -10 -17 -25 -14 -33
3 -11 2 -11 -7 1 -10 15 -5 50 8 60 9 6 34 60 56 120 25 66 58 129 66 125 3
-3 4 8 2 23 -3 19 -2 23 5 14 7 -10 11 -2 16 28 3 22 12 50 19 60 10 17 13 18
17 4 3 -8 9 -15 13 -15z m-547 -131 c-12 -36 -16 -40 -22 -24 -5 13 -3 21 4
24 7 2 12 26 12 61 0 32 3 61 8 65 14 15 13 -83 -2 -126z m-35 61 c-6 -16 -10
-18 -10 -7 -1 22 12 55 16 42 2 -6 -1 -22 -6 -35z m719 3 c0 -5 -7 -17 -15
-28 -14 -18 -14 -17 -4 9 12 27 19 34 19 19z m-2284 -111 c-5 -8 -56 -3 -56 5
0 2 14 4 31 4 16 0 28 -4 25 -9z m-253 -32 c-4 -4 -19 -5 -33 -2 l-25 7 30 12
c30 12 47 2 28 -17z m1832 21 c3 -5 1 -10 -4 -10 -6 0 -11 5 -11 10 0 6 2 10
4 10 3 0 8 -4 11 -10z m4456 -17 c-8 -15 -10 -15 -11 -2 0 17 10 32 18 25 2
-3 -1 -13 -7 -23z m-6169 0 c18 -4 33 -1 37 6 6 9 14 8 34 -2 l27 -14 -46 -7
c-26 -3 -74 -6 -107 -6 -60 0 -60 0 -41 21 13 14 25 18 42 14 13 -3 38 -9 54
-12z m1156 -230 l-3 -237 -30 -7 c-16 -4 -75 -19 -130 -34 -67 -17 -110 -23
-130 -18 -16 4 -36 6 -42 4 -7 -1 -13 3 -13 9 0 7 -8 9 -20 5 -11 -3 -20 -2
-20 3 0 5 -6 9 -12 10 -133 9 -217 33 -187 54 10 7 8 8 -8 3 -19 -5 -21 -2
-19 34 1 22 5 43 9 47 13 13 7 24 -13 24 -22 0 -27 15 -7 23 9 4 8 8 -3 16 -8
6 -10 11 -4 11 18 0 33 46 28 82 -5 26 -1 39 20 61 14 15 26 33 26 38 0 21 31
40 82 50 68 13 391 56 441 58 l37 1 -2 -237z m-1795 203 c4 -10 1 -13 -9 -9
-7 3 -14 9 -14 14 0 14 17 10 23 -5z m445 5 c11 -7 11 -9 -1 -14 -16 -6 -27 0
-27 15 0 10 11 10 28 -1z m1839 -24 c-2 -18 -9 -42 -16 -53 -11 -17 -11 -17
-5 6 4 14 8 34 9 45 4 32 5 35 10 35 3 0 4 -15 2 -33z m814 2 c-12 -10 -26
-17 -30 -15 -4 3 -16 -9 -26 -25 -23 -33 -35 -37 -35 -11 0 10 11 25 25 32 14
7 25 17 25 21 0 4 8 5 19 2 11 -3 21 2 25 13 3 9 10 14 14 10 4 -4 -4 -16 -17
-27z m-775 -135 c-4 -9 -9 -15 -11 -12 -3 3 -3 13 1 22 4 9 9 15 11 12 3 -3 3
-13 -1 -22z m5615 -175 c-9 -22 -10 -22 -10 -3 -1 11 2 24 6 27 12 12 14 0 4
-24z m-5330 -36 c-12 -20 -14 -14 -5 12 4 9 9 14 11 11 3 -2 0 -13 -6 -23z
m5760 -299 c-8 -28 -9 -27 -16 18 -4 26 -4 56 0 65 12 28 26 -47 16 -83z
m-6904 29 c-3 -10 -5 -4 -5 12 0 17 2 24 5 18 2 -7 2 -21 0 -30z m158 -3 c-3
-5 -12 -7 -20 -3 -21 7 -19 13 6 13 11 0 18 -4 14 -10z m877 -22 c-7 -7 -12
-8 -12 -2 0 14 12 26 19 19 2 -3 -1 -11 -7 -17z m5782 -3 c-7 -17 -39 -20 -49
-6 -3 5 7 12 22 14 16 2 29 5 30 6 1 0 0 -6 -3 -14z m-1369 -44 c3 -5 1 -12
-5 -16 -5 -3 -10 1 -10 9 0 18 6 21 15 7z m83 -56 c-3 -3 -9 2 -12 12 -6 14
-5 15 5 6 7 -7 10 -15 7 -18z m2569 -17 c-3 -8 -6 -5 -6 6 -1 11 2 17 5 13 3
-3 4 -12 1 -19z m-6880 -50 c-3 -8 -6 -5 -6 6 -1 11 2 17 5 13 3 -3 4 -12 1
-19z m6845 -8 c41 0 34 -16 -9 -23 -39 -7 -56 5 -46 30 4 10 9 11 16 4 6 -6
24 -11 39 -11z m-6697 -200 c3 -5 1 -10 -4 -10 -6 0 -11 5 -11 10 0 6 2 10 4
10 3 0 8 -4 11 -10z m1225 -94 c-42 -62 -49 -59 -8 3 18 27 35 48 36 46 2 -2
-10 -24 -28 -49z m4690 44 c0 -5 -4 -10 -10 -10 -5 0 -10 5 -10 10 0 6 5 10
10 10 6 0 10 -4 10 -10z m-5900 -26 c0 -8 -4 -12 -10 -9 -5 3 -10 10 -10 16 0
5 5 9 10 9 6 0 10 -7 10 -16z m694 -69 c3 -8 1 -15 -4 -15 -6 0 -10 7 -10 15
0 8 2 15 4 15 2 0 6 -7 10 -15z m4255 -87 c47 -119 59 -174 60 -277 0 -41 5
-79 11 -85 8 -8 10 13 8 71 -3 76 3 105 18 90 12 -12 23 -169 23 -341 1 -161
-7 -215 -15 -108 -2 27 -10 66 -17 87 l-14 39 -10 -30 c-5 -16 -9 -73 -8 -126
1 -54 -2 -98 -7 -98 -4 0 -8 -7 -8 -15 0 -8 -13 -28 -29 -44 -16 -17 -32 -39
-36 -50 -16 -52 -38 -10 -40 76 -2 57 -23 113 -43 113 -12 0 -39 51 -45 86 -5
28 -4 31 14 27 10 -3 22 -9 25 -14 3 -5 12 -9 20 -9 24 0 15 33 -16 64 -17 16
-30 33 -30 38 0 20 -37 5 -62 -24 -14 -18 -30 -30 -33 -26 -4 4 11 25 33 46
77 74 106 173 116 392 6 113 25 220 40 220 2 0 22 -46 45 -102z m-7598 -31
c-10 -9 -11 -8 -5 6 3 10 9 15 12 12 3 -3 0 -11 -7 -18z m8669 -89 c0 -6 -6
-5 -15 2 -8 7 -15 14 -15 16 0 2 7 1 15 -2 8 -4 15 -11 15 -16z m-8743 -10
c-3 -8 -6 -5 -6 6 -1 11 2 17 5 13 3 -3 4 -12 1 -19z m-37 -38 c0 -5 -4 -10
-10 -10 -5 0 -10 5 -10 10 0 6 5 10 10 10 6 0 10 -4 10 -10z m0 -30 c-19 -13
-30 -13 -30 0 0 6 10 10 23 10 18 0 19 -2 7 -10z m3628 -165 c0 -16 -2 -15 -8
5 -4 14 -8 34 -8 45 0 16 2 15 8 -5 4 -14 8 -34 8 -45z m-3538 -9 c0 -3 -4 -8
-10 -11 -5 -3 -10 -1 -10 4 0 6 5 11 10 11 6 0 10 -2 10 -4z m375 -76 c3 -5
-3 -10 -14 -10 -12 0 -21 5 -21 10 0 6 6 10 14 10 8 0 18 -4 21 -10z m-495
-51 c0 -5 -4 -9 -10 -9 -5 0 -10 7 -10 16 0 8 5 12 10 9 6 -3 10 -10 10 -16z
m7397 -61 c-3 -8 -6 -5 -6 6 -1 11 2 17 5 13 3 -3 4 -12 1 -19z m-689 -23 c-1
-36 -18 -50 -18 -16 0 20 10 51 16 51 2 0 3 -16 2 -35z m-5507 -43 c-6 -2 -11
-9 -11 -15 0 -13 -39 -66 -40 -54 0 4 12 31 27 60 21 39 29 47 32 32 2 -10 -2
-21 -8 -23z m18 -59 c-2 -46 -2 -47 -8 -13 -4 19 -5 41 -3 48 8 24 12 11 11
-35z m6901 -27 c0 -12 14 -35 30 -51 17 -16 30 -37 30 -47 0 -9 10 -23 22 -29
28 -15 85 -74 118 -122 14 -20 40 -44 58 -54 17 -10 32 -24 32 -32 0 -8 8 -23
17 -34 17 -18 17 -20 1 -31 -10 -7 -57 -23 -105 -36 -49 -12 -126 -36 -173
-52 -93 -32 -210 -67 -210 -63 0 2 18 53 39 114 22 61 46 142 55 180 9 38 21
82 28 98 14 35 16 42 24 125 5 50 10 65 20 61 8 -3 14 -15 14 -27z m-557 -80
c10 -24 -3 -51 -31 -64 -33 -15 -50 -16 -34 0 7 7 12 17 12 23 0 5 -5 3 -10
-5 -6 -9 -10 -10 -10 -3 0 7 9 17 20 23 11 6 20 17 20 25 0 19 26 20 33 1z
m-6363 -80 c-8 -8 -10 -4 -6 19 6 41 8 44 13 16 3 -13 0 -28 -7 -35z m6274 19
c3 -9 0 -15 -9 -15 -16 0 -27 14 -18 24 10 10 21 7 27 -9z m-480 -21 c9 -3 16
-12 16 -20 0 -12 -4 -12 -20 -2 -30 19 -27 34 4 22z m-6810 -29 c3 -8 1 -15
-4 -15 -6 0 -10 7 -10 15 0 8 2 15 4 15 2 0 6 -7 10 -15z m-214 -5 c0 -5 -4
-10 -9 -10 -6 0 -13 5 -16 10 -3 6 1 10 9 10 9 0 16 -4 16 -10z m7450 0 c0 -5
-4 -10 -10 -10 -5 0 -10 5 -10 10 0 6 5 10 10 10 6 0 10 -4 10 -10z m-7280
-30 c0 -5 -2 -10 -4 -10 -3 0 -8 5 -11 10 -3 6 -1 10 4 10 6 0 11 -4 11 -10z
m17 -46 c-3 -3 -12 -4 -19 -1 -8 3 -5 6 6 6 11 1 17 -2 13 -5z m8923 -24 c87
-29 118 -54 146 -114 37 -79 32 -143 -22 -321 -25 -82 -48 -159 -51 -170 -4
-17 5 -25 49 -43 63 -26 207 -119 215 -138 3 -7 26 -29 52 -48 84 -60 118
-173 65 -215 -26 -21 -26 -21 -10 -61 21 -52 20 -114 -1 -151 -19 -32 -33 -38
-33 -14 0 17 -35 21 -45 5 -3 -5 -16 -15 -27 -21 -19 -10 -20 -9 -15 10 4 16
1 21 -13 21 -23 0 -87 27 -95 40 -4 6 -14 10 -23 8 -23 -3 -93 21 -114 39 -9
8 -21 12 -26 9 -15 -9 -203 13 -219 25 -15 13 -63 21 -63 10 0 -35 60 -65 175
-89 28 -6 77 -16 109 -22 62 -13 106 -46 106 -82 0 -10 -9 -37 -20 -58 -18
-36 -22 -39 -40 -28 -11 7 -20 16 -20 20 0 5 -14 8 -31 8 -36 0 -89 34 -89 57
0 10 -6 14 -18 11 -11 -3 -30 1 -43 8 -28 16 -79 18 -79 4 0 -16 -52 -12 -115
10 -32 11 -63 19 -69 18 -17 -3 -119 12 -130 20 -6 4 -26 12 -45 17 -19 6 -39
19 -45 30 -6 11 -17 24 -23 28 -7 4 -13 15 -13 22 0 8 -4 15 -10 15 -5 0 -10
9 -10 20 0 11 5 20 10 20 6 0 10 -9 10 -20 0 -11 5 -20 10 -20 6 0 10 -7 10
-15 0 -17 16 -20 25 -5 3 6 -1 13 -9 16 -19 7 -21 34 -3 35 6 0 3 4 -8 9 -17
7 -14 9 15 10 l35 2 -43 19 c-24 11 -46 27 -49 35 -3 8 -14 14 -26 14 -19 0
-19 -1 -4 -18 25 -28 21 -45 -8 -40 -14 3 -30 -1 -36 -8 -8 -10 -8 -14 0 -14
6 0 11 -8 11 -17 -1 -17 -1 -17 -11 0 -11 19 -35 23 -41 5 -7 -19 -28 1 -27
25 1 17 2 18 6 5 6 -24 23 -23 23 1 0 20 25 35 41 25 5 -3 9 -1 9 5 0 5 -6 11
-12 14 -10 3 -10 9 -1 25 9 16 9 21 0 25 -20 7 -111 -3 -121 -13 -7 -7 -5 -10
3 -10 7 0 9 -4 6 -10 -3 -5 -11 -10 -16 -10 -6 0 -8 4 -4 9 3 5 1 12 -5 16 -5
3 -10 1 -10 -6 0 -7 -10 -9 -30 -6 -19 4 -34 1 -45 -9 -8 -9 -15 -11 -15 -5 0
16 -29 13 -47 -5 -12 -11 -18 -12 -23 -4 -4 7 -28 14 -53 17 -33 4 -44 9 -40
19 8 22 -10 16 -36 -12 -17 -18 -25 -37 -24 -60 0 -26 -4 -34 -17 -34 -10 0
-20 -7 -24 -15 -3 -8 -15 -15 -26 -15 -26 0 -26 -17 0 -25 11 -3 20 -15 20
-26 0 -24 -9 -24 -26 -1 -13 16 -13 16 -14 0 0 -13 -8 -18 -27 -18 -53 1 -156
19 -162 29 -7 10 -67 22 -108 22 -13 -1 -23 3 -23 8 0 4 -28 11 -62 15 -34 3
-67 11 -72 16 -6 6 -20 10 -32 10 -12 0 -35 7 -51 15 -15 8 -55 22 -88 31 -69
20 -86 31 -66 43 8 6 -3 9 -30 9 -64 0 -121 11 -140 27 -8 8 -20 15 -26 15 -6
0 -13 7 -17 15 -4 11 -13 14 -29 10 -17 -5 -26 -2 -30 9 -4 9 -15 16 -26 16
-11 0 -25 8 -30 18 -7 14 -18 18 -40 14 -31 -4 -91 16 -91 32 0 4 -6 3 -14 -3
-13 -11 -13 -6 -2 36 17 60 48 133 58 133 5 0 8 7 8 15 0 9 11 27 25 41 14 14
25 29 25 35 0 5 11 15 25 21 14 6 25 15 25 20 0 4 9 8 20 8 11 0 20 -5 20 -11
0 -6 7 -9 15 -5 8 3 22 3 31 -1 13 -5 13 -8 2 -15 -8 -6 1 -8 27 -6 24 2 39
-1 38 -8 -1 -6 10 -9 29 -6 23 4 29 2 23 -8 -5 -9 -4 -11 3 -6 19 12 35 -3 21
-20 -9 -11 -8 -14 4 -14 9 0 17 8 19 17 2 13 -12 25 -54 45 -61 29 -81 48 -25
25 69 -30 171 -86 155 -87 -9 0 -20 5 -23 10 -3 6 -11 10 -16 10 -6 0 -8 -4
-4 -9 3 -5 -2 -16 -10 -25 -10 -9 -11 -17 -5 -21 6 -4 7 -11 4 -17 -4 -6 3 -5
16 2 19 10 26 8 55 -20 20 -20 35 -28 39 -21 11 18 26 13 26 -9 0 -11 5 -20
10 -20 6 0 10 6 10 13 0 8 3 9 8 1 10 -15 145 -11 150 4 2 7 8 12 13 12 6 0 8
-3 6 -7 -3 -5 7 -9 21 -9 32 -1 33 -2 187 -49 166 -50 378 -104 439 -111 60
-7 163 6 296 36 131 30 232 31 291 3 166 -79 380 -111 375 -56 0 10 -13 23
-28 30 -16 7 -33 23 -39 36 -6 14 -29 34 -50 46 -21 12 -39 29 -39 37 0 21
-76 98 -89 90 -6 -4 -11 -13 -11 -19 0 -7 4 -6 10 3 7 12 10 8 10 -14 l0 -29
-25 29 c-22 26 -25 36 -21 89 3 33 10 76 16 95 12 43 12 43 0 35 -14 -9 -13 8
2 23 6 6 8 15 4 19 -4 4 -12 0 -17 -9 -12 -21 -49 -43 -49 -29 0 5 6 16 13 23
20 23 40 61 27 53 -8 -5 -11 -1 -8 11 3 19 -19 54 -35 54 -5 0 -7 -7 -3 -15 3
-9 0 -15 -9 -15 -8 0 -15 7 -15 15 0 8 5 15 10 15 6 0 10 10 10 22 0 12 -3 19
-6 15 -3 -3 -15 4 -26 15 -13 13 -16 23 -10 31 7 8 1 21 -19 41 -17 17 -27 36
-24 44 3 8 1 20 -5 27 -8 9 -8 15 0 20 7 4 4 15 -9 31 -19 24 -19 26 -3 45 24
29 89 64 142 77 25 6 54 14 65 16 48 12 212 -3 275 -24z m-490 -120 c13 -11
19 -20 13 -20 -5 0 -18 9 -28 20 -10 11 -16 20 -13 20 3 0 15 -9 28 -20z
m-4258 -261 c-11 -41 -26 -108 -33 -149 l-13 -75 -12 71 c-7 40 -26 103 -43
142 -35 81 -38 101 -13 103 9 1 24 3 32 4 8 1 21 3 28 4 6 0 12 9 12 18 0 14
7 11 31 -13 l30 -31 -19 -74z m4398 -69 c0 -5 -5 -10 -11 -10 -5 0 -7 5 -4 10
3 6 8 10 11 10 2 0 4 -4 4 -10z m-1815 -74 c26 -14 26 -14 5 -21 -12 -4 -24
-4 -27 -1 -4 3 -1 6 6 6 7 0 9 5 6 10 -3 6 -18 7 -33 4 -21 -4 -24 -3 -12 5
19 14 23 14 55 -3z m1845 4 c0 -5 -5 -10 -11 -10 -5 0 -7 -6 -3 -12 5 -10 4
-10 -6 -1 -7 6 -9 16 -6 22 9 14 26 14 26 1z m-86 -59 c4 -5 3 -17 0 -26 -5
-13 -8 -14 -15 -3 -5 7 -9 19 -9 26 0 14 16 16 24 3z m-1559 -101 c3 -5 1 -10
-4 -10 -6 0 -11 5 -11 10 0 6 2 10 4 10 3 0 8 -4 11 -10z m-6478 -102 c-3 -8
-6 -5 -6 6 -1 11 2 17 5 13 3 -3 4 -12 1 -19z m-22 -133 c-10 -53 -20 -93 -23
-90 -3 2 3 48 13 100 10 53 20 93 22 91 3 -3 -3 -48 -12 -101z m3635 -127 c0
-90 5 -192 9 -228 5 -36 6 -67 4 -70 -2 -2 -38 -14 -79 -26 -83 -24 -79 -27
-63 62 9 54 119 424 125 424 1 0 3 -73 4 -162z m-3669 -48 c-6 -30 -9 -36 -10
-19 -1 33 12 99 16 79 2 -8 -1 -35 -6 -60z m7736 64 c-3 -3 -12 -4 -19 -1 -8
3 -5 6 6 6 11 1 17 -2 13 -5z m-39 -111 c-2 -11 5 -19 17 -21 11 -3 23 -9 27
-16 4 -6 8 1 8 17 0 34 10 34 49 1 25 -20 34 -24 45 -15 9 7 17 8 20 3 9 -16
-44 -32 -119 -37 -70 -4 -98 5 -89 30 3 7 1 16 -5 20 -7 4 -11 -4 -11 -19 0
-20 -5 -26 -22 -25 -21 0 -21 1 -4 8 14 5 16 10 7 15 -22 14 26 53 67 55 7 1
12 -7 10 -16z m-7722 -100 c-23 -136 -57 -383 -72 -525 -3 -29 -9 -56 -13 -60
-14 -15 20 266 65 542 20 127 24 143 30 137 3 -3 -1 -45 -10 -94z m7924 32 c0
-18 -25 -26 -39 -12 -16 16 -14 25 7 30 22 5 32 -1 32 -18z m-263 -21 c-3 -3
-12 -4 -19 -1 -8 3 -5 6 6 6 11 1 17 -2 13 -5z m87 -19 c-4 -8 -8 -15 -10 -15
-2 0 -4 7 -4 15 0 8 4 15 10 15 5 0 7 -7 4 -15z m-7 -87 c-3 -8 -6 -5 -6 6 -1
11 2 17 5 13 3 -3 4 -12 1 -19z m288 11 c12 -19 -5 -23 -22 -6 -16 16 -16 17
-1 17 9 0 20 -5 23 -11z m775 -3 c0 -16 -27 -29 -41 -20 -5 3 -9 0 -9 -5 0 -6
-4 -11 -10 -11 -6 0 -5 10 2 25 12 27 58 36 58 11z m-601 -114 c8 -23 13 -44
10 -47 -10 -9 -72 14 -91 35 -11 12 -33 23 -49 27 -41 8 -35 37 8 38 18 0 35
4 39 7 3 4 20 1 37 -5 22 -9 35 -25 46 -55z m-5407 8 c-2 -22 -8 -40 -13 -40
-7 0 -7 24 0 73 0 4 4 7 9 7 4 0 6 -18 4 -40z m-2868 14 c4 -10 1 -14 -6 -12
-15 5 -23 28 -10 28 5 0 13 -7 16 -16z m7742 7 c-3 -4 10 -17 29 -27 19 -10
35 -22 35 -27 0 -4 6 -5 13 -1 6 4 9 4 5 -1 -4 -4 -3 -14 3 -22 9 -9 8 -13 0
-13 -6 0 -11 4 -11 8 0 4 -20 14 -44 21 -25 7 -52 19 -62 25 -22 17 -12 46 16
46 12 0 19 -4 16 -9z m-4921 -41 c-3 -5 -11 -10 -16 -10 -6 0 -7 5 -4 10 3 6
11 10 16 10 6 0 7 -4 4 -10z m5800 -17 c-4 -16 -11 -34 -17 -40 -12 -15 -32
-17 -23 -3 4 6 -2 7 -18 1 -13 -5 -30 -5 -37 -1 -8 5 -18 6 -22 4 -4 -3 -8 0
-8 5 0 6 -10 11 -22 11 -21 0 -21 0 -2 15 10 8 35 15 54 16 19 0 46 5 60 9 40
13 43 12 35 -17z m-155 13 c0 -3 -4 -8 -10 -11 -5 -3 -10 -1 -10 4 0 6 5 11
10 11 6 0 10 -2 10 -4z m-8473 -28 c-3 -8 -6 -5 -6 6 -1 11 2 17 5 13 3 -3 4
-12 1 -19z m8318 13 c3 -5 1 -12 -5 -16 -5 -3 -10 1 -10 9 0 18 6 21 15 7z
m-395 -10 c0 -12 -21 -19 -37 -13 -22 8 -14 22 12 22 14 0 25 -4 25 -9z m430
-1 c0 -5 -4 -10 -10 -10 -5 0 -10 5 -10 10 0 6 5 10 10 10 6 0 10 -4 10 -10z
m-335 -41 c5 -5 1 -9 -13 -9 -12 0 -22 4 -22 9 0 5 -6 11 -12 14 -7 2 -2 2 12
0 14 -3 29 -9 35 -14z m95 1 c8 -5 12 -11 9 -14 -3 -3 -14 1 -25 9 -21 16 -8
20 16 5z m317 -35 c31 0 43 -4 43 -15 0 -28 -15 -37 -65 -37 -38 -1 -57 5 -82
24 -18 14 -33 29 -33 34 0 5 21 6 48 2 26 -4 66 -7 89 -8z m-8551 -320 c10 -8
14 -15 8 -15 -5 0 -19 7 -30 15 -10 8 -14 15 -8 15 5 0 19 -7 30 -15z m14 -89
c0 -3 -4 -8 -10 -11 -5 -3 -10 -1 -10 4 0 6 5 11 10 11 6 0 10 -2 10 -4z
m-104 -283 c-9 -9 -27 48 -19 60 4 7 11 -3 16 -22 4 -18 6 -36 3 -38z m104 17
c12 -12 25 -18 30 -15 6 4 10 -3 10 -15 0 -12 -4 -19 -9 -15 -5 3 -13 1 -16
-5 -5 -7 -11 -8 -19 -1 -8 7 -15 4 -24 -9 -9 -16 -9 -18 2 -14 9 3 13 -1 13
-12 -1 -10 6 -20 15 -22 26 -5 96 -72 75 -72 -9 0 -24 -8 -34 -18 -16 -16 -41
-26 -120 -47 -14 -4 -23 -2 -23 4 0 6 5 11 11 11 8 0 7 5 -1 15 -11 13 -10 18
8 31 15 10 21 25 20 47 0 18 3 60 7 95 8 68 20 77 55 42z m-290 -96 c0 -8 -4
-14 -10 -14 -5 0 -10 2 -10 4 0 2 -3 12 -6 20 -5 12 -2 15 10 10 9 -3 16 -12
16 -20z m187 -1 c3 -7 -3 -9 -16 -6 -12 3 -21 10 -21 15 0 13 32 6 37 -9z
m3803 -8 c10 -13 9 -19 -6 -36 -17 -19 -19 -19 -25 -2 -19 47 2 72 31 38z
m1690 -201 c0 -8 -4 -12 -10 -9 -5 3 -10 10 -10 16 0 5 5 9 10 9 6 0 10 -7 10
-16z m-290 -26 c0 -5 -9 -4 -20 2 -11 6 -20 12 -20 14 0 2 9 2 20 -1 11 -3 20
-9 20 -15z m635 12 c3 -5 1 -10 -4 -10 -6 0 -11 5 -11 10 0 6 2 10 4 10 3 0 8
-4 11 -10z m-360 -20 c3 -5 1 -10 -4 -10 -6 0 -11 5 -11 10 0 6 2 10 4 10 3 0
8 -4 11 -10z"/>
<path d="M8390 5854 c0 -6 7 -19 16 -30 14 -18 14 -18 3 6 -14 31 -19 36 -19
24z"/>
<path d="M8450 5711 c0 -6 4 -13 10 -16 6 -3 7 1 4 9 -7 18 -14 21 -14 7z"/>
<path d="M8300 5659 c0 -14 4 -29 8 -34 5 -6 21 -50 36 -100 15 -49 34 -106
41 -125 8 -19 19 -55 26 -80 6 -25 19 -65 29 -90 10 -25 23 -61 28 -80 9 -31
11 -27 10 40 -1 46 -6 83 -14 95 -8 11 -14 30 -14 43 0 13 -6 36 -14 50 -8 15
-40 88 -72 162 -31 74 -58 137 -60 139 -2 2 -4 -7 -4 -20z"/>
<path d="M8410 5487 c0 -15 53 -117 66 -128 19 -16 18 -5 -7 44 -22 42 -59 95
-59 84z"/>
<path d="M8331 5414 c0 -11 3 -14 6 -6 3 7 2 16 -1 19 -3 4 -6 -2 -5 -13z"/>
<path d="M8356 5373 c3 -27 7 -109 9 -183 7 -245 15 -317 35 -305 4 3 8 -12 8
-33 0 -20 5 -50 10 -67 l10 -30 3 35 c1 19 2 49 3 67 1 29 16 62 16 35 0 -7 4
-12 9 -12 5 0 7 9 4 19 -3 12 -11 17 -19 14 -8 -3 -14 1 -14 10 0 8 9 17 20
20 16 4 20 11 16 29 -3 13 -10 63 -16 111 -6 48 -22 127 -37 175 -14 48 -30
104 -35 125 -15 53 -30 46 -22 -10z"/>
<path d="M8323 5260 c0 -30 2 -43 4 -27 2 15 2 39 0 55 -2 15 -4 2 -4 -28z"/>
<path d="M8480 5085 c0 -8 5 -15 10 -15 6 0 10 7 10 15 0 8 -4 15 -10 15 -5 0
-10 -7 -10 -15z"/>
<path d="M8262 5065 c0 -16 2 -22 5 -12 2 9 2 23 0 30 -3 6 -5 -1 -5 -18z"/>
<path d="M8278 4955 c-4 -55 -9 -118 -12 -140 -3 -22 -3 -31 1 -20 3 11 9 23
15 26 5 3 7 57 6 120 l-3 114 -7 -100z"/>
<path d="M8241 4884 c0 -11 3 -14 6 -6 3 7 2 16 -1 19 -3 4 -6 -2 -5 -13z"/>
<path d="M8216 4748 c-10 -51 -28 -133 -42 -182 -14 -48 -22 -91 -19 -94 10
-10 23 19 19 42 -2 11 -2 16 2 9 3 -7 12 -9 20 -6 18 7 18 -10 -2 -50 l-16
-32 22 21 c18 17 23 35 25 85 2 35 7 117 11 182 3 64 4 117 2 117 -3 0 -13
-42 -22 -92z"/>
<path d="M8050 4314 c0 -8 5 -12 10 -9 6 4 8 11 5 16 -9 14 -15 11 -15 -7z"/>
<path d="M7088 5429 c-32 -12 -36 -27 -10 -35 36 -12 93 -38 97 -45 3 -4 -10
-7 -29 -7 -19 0 -48 -8 -64 -17 -24 -14 -29 -23 -26 -50 4 -52 18 -69 75 -89
56 -21 91 -45 83 -57 -2 -5 9 -15 25 -24 17 -8 34 -22 39 -30 21 -39 75 32 74
97 -1 22 -8 51 -18 65 -16 26 -16 26 10 21 16 -3 26 -1 26 6 0 18 -80 90 -135
121 -27 16 -52 32 -55 36 -10 14 -64 19 -92 8z m161 -135 c3 -2 0 -9 -6 -15
-8 -8 -17 -5 -33 11 l-23 23 29 -7 c16 -4 31 -10 33 -12z m31 -58 c0 -6 -5 -4
-10 4 -5 8 -10 11 -10 6 0 -6 -5 -5 -11 1 -6 6 -8 17 -4 24 6 9 11 7 22 -6 7
-11 13 -24 13 -29z m-32 -23 c2 -8 -6 -13 -22 -13 -25 0 -33 10 -19 24 10 10
36 3 41 -11z"/>
<path d="M7542 5208 c3 -7 20 -18 39 -25 19 -7 26 -12 17 -12 -20 -1 -78 -69
-78 -91 0 -8 14 -31 30 -50 25 -29 31 -32 40 -20 6 10 10 11 10 3 0 -8 14 -13
34 -13 19 0 37 -4 40 -8 3 -5 24 -7 48 -5 24 2 65 5 92 7 43 2 50 6 51 25 3
33 -77 96 -147 118 -32 10 -58 21 -58 26 0 10 17 9 85 -8 33 -8 67 -14 76 -15
27 0 31 28 6 42 -61 32 -294 54 -285 26z m133 -78 c4 -6 -9 -10 -32 -10 -28 0
-34 3 -23 10 20 13 47 13 55 0z m126 -57 c29 -17 38 -33 19 -33 -21 0 -71 31
-65 40 8 13 12 13 46 -7z"/>
<path d="M7153 4932 c-18 -10 -41 -29 -50 -42 l-18 -25 35 23 c19 13 45 28 58
34 12 6 22 15 22 20 0 12 -11 9 -47 -10z"/>
<path d="M7505 4809 c1 -43 5 -52 28 -64 27 -14 27 -13 27 18 0 32 -32 97 -48
97 -5 0 -8 -23 -7 -51z"/>
<path d="M7020 4840 c0 -5 5 -10 10 -10 6 0 10 5 10 10 0 6 -4 10 -10 10 -5 0
-10 -4 -10 -10z"/>
<path d="M7040 4764 c0 -47 20 -61 39 -27 8 16 10 15 15 -7 2 -14 7 -49 10
-79 5 -54 47 -141 68 -141 6 0 8 -3 4 -7 -11 -11 74 -33 129 -33 71 0 94 9
110 40 10 19 26 31 47 35 18 4 38 11 43 15 20 15 50 15 62 0 16 -22 28 -4 16
23 -9 20 -17 23 -45 19 -18 -3 -38 -12 -45 -21 -19 -26 -195 -22 -248 6 -50
27 -90 70 -99 106 l-7 28 78 -40 c67 -34 122 -50 233 -68 14 -2 -6 10 -45 26
-38 17 -81 30 -95 31 -14 0 -50 15 -81 34 -31 19 -66 37 -78 41 -12 3 -32 17
-44 29 -12 13 -32 26 -44 29 -21 5 -23 2 -23 -39z m193 -224 c20 -18 -11 -17
-33 1 l-25 20 25 -6 c14 -4 29 -11 33 -15z m58 -15 l34 -15 -34 3 c-19 2 -37
9 -39 15 -5 15 -1 15 39 -3z"/>
<path d="M6984 4104 c3 -9 6 -18 6 -20 0 -3 4 -3 10 1 11 7 2 35 -12 35 -6 0
-7 -7 -4 -16z"/>
<path d="M7016 4042 c-2 -4 -1 -14 4 -22 7 -11 12 -12 21 -3 6 6 8 16 5 22 -8
13 -23 14 -30 3z"/>
<path d="M7060 3971 c0 -12 6 -21 16 -21 9 0 14 7 12 17 -5 25 -28 28 -28 4z"/>
<path d="M7114 3893 c4 -8 2 -13 -6 -13 -8 0 -6 -5 5 -11 26 -15 34 -2 12 19
-10 9 -15 11 -11 5z"/>
<path d="M7046 3188 c-18 -67 -25 -111 -21 -119 13 -20 26 -7 25 24 0 17 1 49
4 70 4 35 -1 51 -8 25z"/>
<path d="M7074 3151 c4 -30 16 -74 26 -97 11 -23 17 -51 15 -63 -2 -12 0 -19
6 -16 5 4 9 1 9 -6 0 -7 20 -32 45 -55 42 -39 44 -43 25 -49 -28 -9 -70 -49
-70 -66 0 -8 9 -22 20 -32 12 -10 18 -22 15 -28 -4 -5 -3 -9 2 -8 20 4 27 -2
13 -12 -13 -9 -13 -10 0 -6 10 2 14 13 12 30 -4 30 17 37 38 12 7 -8 22 -15
34 -15 16 0 18 -2 7 -9 -8 -5 -11 -16 -7 -27 4 -10 1 -21 -6 -25 -10 -6 -10
-11 -1 -20 31 -31 117 115 159 268 25 92 21 98 -37 59 -34 -23 -109 -50 -109
-39 0 4 -9 -2 -19 -11 -19 -17 -20 -17 -34 6 -28 45 -61 104 -100 178 -22 41
-42 77 -45 80 -3 3 -2 -19 2 -49z m249 -384 c-4 -6 -10 -2 -14 9 -12 31 -9 40
6 20 8 -10 11 -24 8 -29z"/>
<path d="M7039 2998 c-6 -22 -6 -44 1 -62 8 -18 9 -16 10 14 2 32 3 33 10 10
5 -15 8 -18 9 -8 1 22 -9 48 -20 48 -5 0 -9 -1 -10 -2z"/>
<path d="M7045 2900 c3 -5 8 -10 11 -10 2 0 4 5 4 10 0 6 -5 10 -11 10 -5 0
-7 -4 -4 -10z"/>
<path d="M7235 2710 c-3 -5 -1 -10 4 -10 6 0 11 5 11 10 0 6 -2 10 -4 10 -3 0
-8 -4 -11 -10z"/>
<path d="M7218 2683 c7 -3 16 -2 19 1 4 3 -2 6 -13 5 -11 0 -14 -3 -6 -6z"/>
<path d="M3210 5239 c-12 -22 -19 -46 -17 -52 2 -7 16 12 31 41 14 28 22 52
16 52 -5 0 -19 -18 -30 -41z"/>
<path d="M2733 5118 c-12 -24 -24 -58 -28 -75 -4 -18 -11 -35 -16 -38 -5 -4
-9 -15 -9 -26 0 -10 -4 -19 -9 -19 -5 0 -7 -10 -4 -22 3 -16 2 -19 -5 -10 -11
16 -49 -66 -82 -178 -13 -45 -30 -80 -42 -89 -11 -7 -31 -39 -45 -70 -98 -221
-114 -252 -137 -261 -11 -5 -15 -9 -8 -9 9 -1 11 -8 7 -23 -11 -34 -11 -36 0
-36 6 -1 8 7 7 16 -3 12 -1 13 10 5 11 -9 17 -5 28 20 7 18 28 55 45 82 18 28
38 68 46 90 7 22 17 45 21 51 5 6 5 20 1 29 -4 13 -3 16 5 11 7 -4 12 -1 12 9
0 10 11 31 25 47 14 17 24 35 22 42 -2 6 4 19 14 29 9 10 27 49 39 86 26 80
40 106 40 74 0 -12 -4 -25 -10 -28 -5 -3 -9 -14 -9 -23 1 -16 2 -16 6 0 5 20
33 33 33 15 0 -8 4 -7 10 3 5 8 7 26 4 40 -5 21 -4 22 6 10 10 -13 11 -12 6 3
-3 10 6 47 20 83 30 73 25 92 -12 49 l-25 -30 14 30 c8 17 18 46 22 65 4 19
10 40 13 45 7 11 13 45 9 45 -2 0 -13 -19 -24 -42z m-50 -223 c-3 -9 -8 -14
-10 -11 -3 3 -2 9 2 15 9 16 15 13 8 -4z"/>
<path d="M3142 5110 c-7 -11 -8 -20 -3 -20 9 0 24 30 18 36 -1 2 -8 -6 -15
-16z"/>
<path d="M2476 5034 c-4 -14 -5 -28 -3 -31 3 -2 8 8 11 23 4 14 5 28 3 31 -3
2 -8 -8 -11 -23z"/>
<path d="M2999 4923 c-22 -43 -91 -148 -100 -151 -4 -2 -5 -10 -2 -19 4 -11 2
-14 -5 -9 -7 4 -15 0 -19 -11 -3 -10 -13 -26 -21 -35 -8 -10 -11 -18 -6 -18
15 0 44 37 101 130 55 88 76 130 70 137 -2 2 -11 -9 -18 -24z"/>
<path d="M2930 4865 c-27 -62 -19 -70 9 -9 12 25 20 49 17 52 -3 2 -15 -17
-26 -43z"/>
<path d="M2572 4827 c0 -12 -9 -43 -21 -69 -11 -27 -16 -48 -11 -48 4 0 14 17
20 38 7 20 16 41 21 47 12 12 12 42 0 49 -5 3 -9 -4 -9 -17z"/>
<path d="M2665 4769 c-9 -17 -15 -33 -13 -35 3 -2 12 12 21 31 21 43 13 47 -8
4z"/>
<path d="M2615 4707 c-10 -23 -33 -73 -51 -112 -38 -84 -48 -115 -37 -115 16
0 121 255 109 267 -1 1 -11 -16 -21 -40z"/>
<path d="M2316 4621 c-4 -7 -5 -15 -2 -18 9 -9 19 4 14 18 -4 11 -6 11 -12 0z"/>
<path d="M2276 4545 c-9 -26 -7 -32 5 -12 6 10 9 21 6 23 -2 3 -7 -2 -11 -11z"/>
<path d="M2671 4444 c-12 -19 -21 -37 -21 -39 0 -2 -11 -21 -25 -41 -29 -43
-33 -70 -5 -34 11 14 20 29 20 33 0 8 12 24 43 58 10 11 15 24 12 29 -3 4 0
10 7 12 8 3 9 6 1 11 -6 4 -20 -8 -32 -29z"/>
<path d="M2202 4436 c-17 -37 -15 -45 4 -18 8 12 14 27 12 33 -2 6 -9 -1 -16
-15z"/>
<path d="M2722 4260 c0 -14 2 -19 5 -12 2 6 2 18 0 25 -3 6 -5 1 -5 -13z"/>
<path d="M2604 4223 c-8 -34 -43 -75 -57 -66 -6 4 -8 0 -4 -10 3 -8 -1 -21 -9
-28 -12 -10 -13 -9 -8 7 7 19 7 19 -14 0 -12 -11 -22 -20 -22 -21 0 -4 56 2
75 8 18 6 26 22 55 110 5 16 5 27 -1 27 -5 0 -12 -12 -15 -27z"/>
<path d="M2372 4128 c-7 -7 -12 -16 -12 -21 0 -5 7 -1 16 8 9 9 14 18 12 20
-2 3 -10 -1 -16 -7z"/>
<path d="M2860 4968 c-12 -22 -12 -22 6 -6 10 10 15 20 12 24 -4 3 -12 -5 -18
-18z"/>
<path d="M1290 4830 c0 -5 5 -10 11 -10 5 0 7 5 4 10 -3 6 -8 10 -11 10 -2 0
-4 -4 -4 -10z"/>
<path d="M7900 3164 c0 -8 5 -12 10 -9 6 3 10 10 10 16 0 5 -4 9 -10 9 -5 0
-10 -7 -10 -16z"/>
<path d="M8197 2864 c-4 -4 -7 -14 -7 -23 0 -13 2 -13 9 -2 5 8 14 10 21 6 8
-5 11 -3 8 5 -5 16 -22 23 -31 14z"/>
<path d="M9160 1943 c0 -15 -3 -37 -5 -48 -3 -11 -1 -26 4 -34 8 -13 12 -13
27 0 9 8 25 13 36 11 26 -5 22 9 -12 38 -17 13 -30 30 -30 36 0 7 -4 16 -10
19 -6 4 -10 -6 -10 -22z"/>
<path d="M7160 1900 c0 -5 5 -10 10 -10 6 0 10 5 10 10 0 6 -4 10 -10 10 -5 0
-10 -4 -10 -10z"/>
<path d="M9307 1859 c-10 -6 -31 -8 -47 -4 -17 4 -39 1 -52 -6 -13 -7 -27 -12
-32 -11 -5 2 -6 -7 -3 -20 4 -13 12 -56 19 -95 12 -76 10 -73 69 -78 9 0 23
-6 31 -12 23 -19 198 57 198 86 0 3 -14 12 -31 20 -18 8 -34 22 -36 32 -4 14
-9 16 -23 9 -23 -12 -50 -3 -71 23 -15 19 -15 23 -2 44 16 25 9 29 -20 12z"/>
<path d="M9340 1600 c-16 -10 -8 -13 28 -10 12 1 22 -3 22 -9 0 -6 -8 -7 -17
-4 -13 5 -15 3 -8 -13 4 -10 13 -34 19 -51 6 -18 14 -33 18 -33 5 0 8 -5 8
-11 0 -5 -5 -7 -12 -3 -7 4 -8 3 -4 -5 6 -8 15 -5 31 14 21 22 33 25 87 25
l63 0 -25 20 c-14 11 -32 20 -40 20 -8 0 -21 9 -28 21 -24 38 -108 61 -142 39z"/>
<path d="M430 236 c0 -8 5 -18 10 -21 6 -3 10 3 10 14 0 12 -4 21 -10 21 -5 0
-10 -6 -10 -14z"/>
<path d="M4150 296 c0 -9 5 -16 10 -16 6 0 10 4 10 9 0 6 -4 13 -10 16 -5 3
-10 -1 -10 -9z"/>
<path d="M1152 5650 c-29 -28 -28 -58 3 -72 14 -6 25 -15 25 -19 0 -4 -48 -10
-107 -14 -60 -3 -133 -11 -163 -16 -30 -5 -89 -11 -130 -14 -41 -3 -174 -12
-295 -20 -348 -24 -357 -24 -422 -31 l-63 -6 0 -231 0 -232 28 1 c38 1 52 11
46 32 -4 10 -3 13 3 6 10 -14 103 -18 103 -4 0 5 7 10 16 10 14 0 14 -3 4 -15
-10 -12 -10 -19 -1 -28 8 -8 15 -6 27 11 8 12 20 20 25 17 17 -11 9 -25 -18
-36 -26 -10 -26 -12 -8 -19 17 -6 16 -8 -10 -18 l-30 -10 27 -1 c18 -1 29 5
33 19 5 15 15 20 45 20 30 0 38 3 34 14 -3 9 3 17 15 21 27 8 27 23 -1 35 -21
8 -22 9 -3 10 11 1 14 4 8 7 -7 2 -13 10 -13 16 0 17 -36 38 -54 31 -8 -3 -21
-20 -30 -37 -12 -26 -16 -28 -21 -15 -5 12 -11 15 -23 8 -48 -25 -110 -31 -96
-9 3 5 -1 9 -8 10 -7 0 -3 4 10 9 25 11 29 28 7 36 -12 5 -12 8 0 20 7 8 21
14 29 14 9 0 16 3 16 8 0 8 92 6 132 -4 21 -5 28 -3 28 9 0 8 -5 17 -12 19 -9
3 -9 6 0 12 7 4 12 2 12 -5 0 -7 7 -4 15 7 8 10 15 14 15 7 0 -7 11 -10 26 -9
15 2 43 -5 62 -14 20 -10 42 -16 49 -13 7 3 13 -2 13 -11 0 -10 9 -16 25 -16
14 0 25 -4 25 -10 0 -5 6 -8 13 -6 6 3 24 7 39 10 31 7 41 35 18 54 -13 11
-12 12 5 4 11 -5 25 -7 32 -5 7 2 20 0 30 -6 15 -9 13 -10 -14 -11 -36 0 -45
-15 -14 -23 19 -5 51 9 63 27 5 7 8 4 8 -6 0 -10 5 -18 10 -18 6 0 10 9 10 20
0 11 5 20 10 20 6 0 10 -7 10 -15 0 -8 5 -15 10 -15 6 0 10 8 10 18 0 13 2 14
9 3 6 -10 10 -10 16 -1 5 8 10 7 19 -5 19 -26 49 -8 44 26 -4 22 -1 29 12 29
9 0 30 7 47 15 22 11 38 12 63 5 23 -6 47 -6 73 1 25 6 42 7 46 1 13 -19 88
-36 152 -33 44 2 69 -1 74 -9 6 -9 10 -9 16 1 7 11 12 12 29 2 24 -16 50 -17
50 -3 0 14 37 13 46 -1 3 -6 19 -9 35 -5 22 4 31 1 40 -15 7 -14 17 -19 30
-16 10 3 22 1 25 -4 9 -15 34 -10 41 7 4 10 -1 20 -12 26 -14 8 -15 12 -4 19
10 6 8 9 -9 9 -13 0 -94 15 -180 34 -86 19 -186 37 -222 40 -114 11 -170 27
-170 48 0 13 8 18 30 18 17 0 30 4 30 8 0 4 -12 8 -27 7 -22 0 -29 5 -31 24
-4 22 -2 23 47 16 l51 -7 -6 46 -7 46 48 21 c43 19 46 23 40 47 -4 15 -7 42
-7 60 1 28 -3 32 -27 32 -15 0 -37 -9 -49 -20z m-512 -230 c0 -22 -8 -25 -30
-10 -13 9 -13 11 0 20 22 15 30 12 30 -10z m132 0 c22 0 31 -6 35 -21 5 -16
11 -19 30 -14 14 3 22 2 19 -3 -3 -5 13 -14 34 -21 22 -6 57 -29 77 -49 l37
-37 -53 -8 c-46 -6 -61 -4 -104 17 -41 19 -56 22 -79 14 -16 -6 -35 -7 -43 -4
-8 3 -15 1 -15 -4 0 -14 -27 -12 -34 3 -3 8 -11 4 -26 -12 l-21 -24 -29 21
c-37 28 -41 28 -81 -8 l-34 -29 -5 27 c-4 20 -12 28 -33 30 -15 2 -27 8 -27
13 0 6 -8 8 -19 4 -23 -7 -69 9 -53 19 7 4 12 12 12 18 0 7 -18 9 -55 4 -35
-4 -55 -2 -55 4 0 5 5 10 12 10 6 0 20 8 30 17 16 14 21 15 27 4 6 -9 22 -12
45 -9 20 2 36 0 36 -6 0 -5 6 -1 14 10 12 15 17 16 27 7 9 -9 18 -8 37 7 33
26 73 25 108 -2 16 -12 31 -26 34 -30 3 -4 29 -9 58 -11 39 -3 52 -1 52 9 0
10 -14 14 -45 14 -25 0 -45 4 -45 9 0 20 45 42 74 37 16 -4 42 -6 58 -6z
m-452 -100 c0 -5 -9 -10 -20 -10 -11 0 -20 5 -20 10 0 6 9 10 20 10 11 0 20
-4 20 -10z m117 -81 c15 0 22 -3 15 -6 -19 -7 -82 6 -82 18 0 6 7 6 19 -1 11
-5 32 -10 48 -11z m151 -2 c2 -11 -3 -17 -17 -17 -23 0 -35 15 -26 31 10 15
39 6 43 -14z m52 -2 c0 -8 -4 -15 -10 -15 -5 0 -7 7 -4 15 4 8 8 15 10 15 2 0
4 -7 4 -15z m-474 -43 c-18 -16 -19 -16 -12 1 3 10 6 24 6 30 0 8 4 7 12 -1
10 -9 8 -16 -6 -30z m-116 -112 c0 -5 -4 -10 -10 -10 -5 0 -10 5 -10 10 0 6 5
10 10 10 6 0 10 -4 10 -10z m250 -24 c0 -11 -19 -15 -25 -6 -3 5 1 10 9 10 9
0 16 -2 16 -4z m0 -57 c0 -6 -4 -7 -10 -4 -5 3 -10 11 -10 16 0 6 5 7 10 4 6
-3 10 -11 10 -16z"/>
<path d="M750 5378 c0 -21 0 -21 23 -2 12 10 24 20 26 21 2 2 -8 3 -22 3 -21
0 -27 -5 -27 -22z"/>
<path d="M528 5383 c6 -2 18 -2 25 0 6 3 1 5 -13 5 -14 0 -19 -2 -12 -5z"/>
<path d="M501 5364 c0 -11 3 -14 6 -6 3 7 2 16 -1 19 -3 4 -6 -2 -5 -13z"/>
<path d="M536 5337 c-5 -15 -6 -31 -2 -34 11 -11 18 5 14 34 l-4 28 -8 -28z"/>
<path d="M500 5290 c0 -5 5 -10 10 -10 6 0 10 5 10 10 0 6 -4 10 -10 10 -5 0
-10 -4 -10 -10z"/>
<path d="M1155 5370 c-3 -5 1 -10 9 -10 9 0 16 5 16 10 0 6 -4 10 -9 10 -6 0
-13 -4 -16 -10z"/>
<path d="M1770 5342 c0 -5 28 -12 63 -16 34 -4 112 -14 172 -22 286 -38 264
-37 293 -17 l27 18 -65 6 c-36 4 -114 10 -175 13 -190 11 -279 17 -297 22 -10
3 -18 1 -18 -4z"/>
<path d="M925 5210 c3 -5 13 -10 21 -10 8 0 14 5 14 10 0 6 -9 10 -21 10 -11
0 -17 -4 -14 -10z"/>
<path d="M975 5200 c-3 -5 1 -10 10 -10 9 0 13 5 10 10 -3 6 -8 10 -10 10 -2
0 -7 -4 -10 -10z"/>
<path d="M330 5160 c0 -11 6 -20 13 -20 6 0 23 -3 36 -7 21 -5 22 -4 12 15 -7
13 -17 19 -26 16 -8 -4 -15 -1 -15 5 0 6 -4 11 -10 11 -5 0 -10 -9 -10 -20z"/>
<path d="M4168 5173 c7 -3 16 -2 19 1 4 3 -2 6 -13 5 -11 0 -14 -3 -6 -6z"/>
<path d="M3985 5100 c-33 -15 -37 -20 -22 -26 25 -9 99 14 94 29 -6 18 -28 17
-72 -3z"/>
<path d="M1450 5090 c-13 -9 -13 -11 0 -20 8 -6 25 -8 38 -5 12 3 30 1 40 -3
12 -7 22 -4 35 8 17 17 17 18 -5 22 -42 9 -93 8 -108 -2z"/>
<path d="M4016 5045 c-3 -8 -17 -15 -31 -15 -20 0 -25 -5 -25 -25 0 -28 -61
-75 -98 -75 -27 0 -68 -25 -76 -46 -4 -12 -2 -12 14 -4 10 5 54 13 97 16 43 3
82 8 86 11 5 3 8 -3 7 -13 -4 -32 -1 -37 15 -24 8 7 15 23 15 36 0 17 6 24 20
24 11 0 21 -1 23 -2 2 -2 12 5 22 15 16 16 16 21 4 45 -15 28 -23 39 -50 60
-14 10 -18 10 -23 -3z m-36 -105 c0 -5 -4 -10 -10 -10 -5 0 -10 5 -10 10 0 6
5 10 10 10 6 0 10 -4 10 -10z"/>
<path d="M3840 5015 c-16 -9 -19 -14 -9 -15 8 0 24 7 35 15 24 18 7 19 -26 0z"/>
<path d="M320 4950 c0 -5 7 -10 15 -10 8 0 15 5 15 10 0 6 -7 10 -15 10 -8 0
-15 -4 -15 -10z"/>
<path d="M4100 4704 c-15 -40 -12 -45 22 -42 37 3 49 29 24 53 -21 22 -35 19
-46 -11z"/>
<path d="M4268 4663 c7 -3 16 -2 19 1 4 3 -2 6 -13 5 -11 0 -14 -3 -6 -6z"/>
<path d="M4100 4508 c-25 -12 -56 -26 -69 -32 -31 -14 -71 -50 -71 -63 0 -18
59 -36 116 -35 63 0 64 1 67 32 1 13 9 25 19 28 10 2 18 9 18 14 0 5 -10 6
-22 2 -13 -5 -34 -9 -48 -10 -14 -1 -33 -5 -43 -9 -12 -5 -24 -2 -34 8 -14 14
-9 17 46 37 33 13 66 29 72 36 15 19 3 17 -51 -8z"/>
<path d="M4208 4488 c4 -16 2 -19 -8 -13 -10 6 -12 4 -7 -8 7 -20 -20 -50 -36
-41 -9 5 -9 4 -1 -5 7 -7 22 -11 35 -9 21 3 24 9 27 51 2 26 -1 47 -7 47 -5 0
-7 -10 -3 -22z"/>
<path d="M585 4470 c-3 -5 -1 -10 4 -10 6 0 11 5 11 10 0 6 -2 10 -4 10 -3 0
-8 -4 -11 -10z"/>
<path d="M3214 4443 c0 -10 -4 -17 -11 -16 -6 2 -11 -6 -10 -17 1 -10 5 -16 9
-14 4 3 8 0 8 -7 0 -7 3 -9 7 -6 3 4 12 2 19 -4 10 -8 17 -7 29 4 13 14 12 19
-11 46 -29 35 -42 39 -40 14z m21 -33 c3 -5 -1 -10 -10 -10 -9 0 -13 5 -10 10
3 6 8 10 10 10 2 0 7 -4 10 -10z"/>
<path d="M3160 4419 c0 -5 5 -7 10 -4 6 3 10 8 10 11 0 2 -4 4 -10 4 -5 0 -10
-5 -10 -11z"/>
<path d="M4255 4171 c-17 -7 -17 -8 8 -13 19 -4 27 -1 27 8 0 15 -6 16 -35 5z"/>
<path d="M4230 4140 c0 -5 9 -10 21 -10 11 0 17 5 14 10 -3 6 -13 10 -21 10
-8 0 -14 -4 -14 -10z"/>
<path d="M4440 4091 c0 -6 5 -13 10 -16 6 -3 10 1 10 9 0 9 -4 16 -10 16 -5 0
-10 -4 -10 -9z"/>
<path d="M9053 3853 c-7 -3 -13 -11 -13 -20 0 -17 41 -14 47 3 4 13 -16 23
-34 17z"/>
<path d="M8990 3820 c0 -15 5 -20 18 -18 9 2 17 10 17 18 0 8 -8 16 -17 18
-13 2 -18 -3 -18 -18z"/>
<path d="M8950 3795 c0 -8 7 -15 15 -15 8 0 15 4 15 9 0 5 -7 11 -15 15 -9 3
-15 0 -15 -9z"/>
<path d="M9048 3782 c-12 -5 -15 -11 -8 -22 10 -16 23 -8 26 15 1 8 2 15 1 14
-1 0 -10 -3 -19 -7z"/>
<path d="M9100 3750 c0 -5 4 -10 9 -10 6 0 13 5 16 10 3 6 -1 10 -9 10 -9 0
-16 -4 -16 -10z"/>
<path d="M9048 3723 c7 -3 16 -2 19 1 4 3 -2 6 -13 5 -11 0 -14 -3 -6 -6z"/>
<path d="M0 3653 c0 -21 3 -24 9 -14 5 8 7 20 4 28 -8 21 -13 15 -13 -14z"/>
<path d="M97 3650 c-9 -11 -17 -30 -16 -43 l0 -22 9 22 c5 12 17 26 27 32 12
7 15 13 8 20 -8 8 -16 5 -28 -9z"/>
<path d="M2980 3600 c0 -6 12 -15 27 -21 20 -7 24 -12 14 -18 -10 -6 -9 -10 5
-15 24 -9 28 -2 13 26 -18 34 -59 54 -59 28z"/>
<path d="M3422 3584 c-23 -16 -32 -52 -9 -37 6 4 21 7 32 6 16 -1 16 -1 3 3
-10 3 -18 10 -18 15 0 6 4 8 8 5 5 -3 9 1 9 9 0 18 2 18 -25 -1z"/>
<path d="M8936 3525 c-3 -8 -1 -15 4 -15 6 0 10 7 10 15 0 8 -2 15 -4 15 -2 0
-6 -7 -10 -15z"/>
<path d="M3070 3520 c19 -13 30 -13 30 0 0 6 -10 10 -22 10 -19 0 -20 -2 -8
-10z"/>
<path d="M3115 3500 c-3 -6 -5 -10 -3 -10 2 0 24 -7 51 -15 42 -12 47 -12 47
1 0 11 -6 13 -20 9 -12 -4 -31 0 -45 9 -15 10 -26 12 -30 6z"/>
<path d="M3228 3463 c6 -2 18 -2 25 0 6 3 1 5 -13 5 -14 0 -19 -2 -12 -5z"/>
<path d="M9626 3441 c-7 -10 32 -47 40 -38 7 7 -14 47 -26 47 -5 0 -11 -4 -14
-9z"/>
<path d="M0 3429 c0 -5 5 -7 10 -4 5 3 10 8 10 11 0 2 -4 4 -10 4 -5 0 -10 -5
-10 -11z"/>
<path d="M9520 3396 c0 -28 10 -36 54 -45 21 -5 32 -14 36 -31 3 -14 15 -26
25 -29 11 -2 39 -12 62 -22 23 -10 47 -19 52 -19 14 0 14 13 0 27 -6 6 -9 21
-7 34 3 22 8 24 55 23 50 0 51 1 48 25 -1 15 -3 32 -4 39 -1 17 -40 15 -47 -3
-7 -17 -34 -21 -34 -5 0 6 -18 10 -40 10 -22 0 -40 -4 -40 -10 0 -14 -52 -12
-72 4 -10 7 -16 15 -13 18 2 2 -13 5 -35 6 -37 3 -40 1 -40 -22z"/>
<path d="M10035 3308 c-28 -15 -33 -25 -27 -54 4 -23 22 -35 22 -14 0 6 11 10
24 10 25 0 51 22 39 33 -3 4 -1 7 6 7 7 0 9 5 6 11 -4 6 -13 8 -20 5 -7 -2
-16 -1 -21 4 -5 5 -18 4 -29 -2z"/>
<path d="M9590 3286 c0 -16 18 -31 27 -22 3 3 -2 12 -11 21 -14 14 -16 14 -16
1z"/>
<path d="M9857 3263 c6 -15 47 -28 62 -19 5 4 14 -2 20 -11 5 -10 13 -14 18
-10 4 5 -5 19 -20 31 -31 25 -89 32 -80 9z"/>
<path d="M9666 3261 c-5 -7 -14 -10 -22 -7 -17 6 -44 -3 -44 -14 0 -5 10 -12
23 -16 12 -4 26 -12 30 -18 6 -8 10 -7 14 2 2 6 9 10 14 6 11 -6 11 13 0 40
-6 14 -10 16 -15 7z"/>
<path d="M9705 3190 c-7 -12 2 -30 16 -30 12 0 12 27 0 35 -5 3 -12 1 -16 -5z"/>
<path d="M3110 3131 c0 -6 5 -13 10 -16 6 -3 10 1 10 9 0 9 -4 16 -10 16 -5 0
-10 -4 -10 -9z"/>
<path d="M556 3085 c-4 -12 -1 -16 11 -13 18 3 21 20 5 26 -5 1 -12 -4 -16
-13z"/>
<path d="M160 3062 c0 -7 -7 -12 -15 -12 -8 0 -15 -4 -15 -10 0 -5 7 -10 15
-10 17 0 32 27 21 37 -3 4 -6 1 -6 -5z"/>
<path d="M273 3040 c-2 -25 14 -35 31 -21 7 6 21 9 30 5 11 -4 16 -1 16 11 0
12 -5 15 -21 10 -15 -5 -19 -4 -15 4 5 7 -2 11 -16 11 -16 0 -24 -6 -25 -20z"/>
<path d="M468 3053 c7 -3 16 -2 19 1 4 3 -2 6 -13 5 -11 0 -14 -3 -6 -6z"/>
<path d="M3180 3040 c9 -17 8 -26 -4 -45 -15 -23 -15 -25 4 -35 15 -8 19 -19
17 -43 -2 -28 1 -32 24 -35 23 -3 25 0 21 27 -2 17 0 31 4 31 5 0 15 14 22 30
13 29 35 42 30 18 -2 -6 5 -14 15 -16 24 -5 21 14 -5 32 -23 17 -48 6 -48 -20
0 -8 -7 -14 -15 -14 -21 0 -19 16 5 40 25 25 27 44 2 29 -14 -9 -25 -8 -51 5
-32 17 -32 17 -21 -4z"/>
<path d="M190 3020 c0 -19 3 -21 12 -12 9 9 9 15 0 24 -9 9 -12 7 -12 -12z"/>
<path d="M120 3001 c0 -5 11 -11 25 -13 17 -4 25 -1 25 8 0 8 -11 14 -25 14
-14 0 -25 -4 -25 -9z"/>
<path d="M324 2985 c-18 -14 -18 -14 8 -15 20 0 26 4 22 15 -7 18 -6 18 -30 0z"/>
<path d="M10020 2983 c0 -5 5 -14 11 -20 8 -8 8 -17 0 -31 -24 -45 -3 -59 25
-17 16 24 15 26 -10 51 -14 15 -26 23 -26 17z"/>
<path d="M9813 2965 c-14 -15 -17 -35 -7 -35 8 0 33 32 34 43 0 11 -14 8 -27
-8z"/>
<path d="M10108 2966 c-8 -7 -22 -34 -33 -60 -10 -25 -25 -46 -32 -46 -7 0
-13 -5 -13 -10 0 -9 27 -7 68 6 6 2 33 -8 59 -21 51 -27 83 -25 83 6 0 10 -4
19 -10 19 -5 0 -10 5 -10 11 0 5 5 7 10 4 6 -4 10 13 10 42 l0 49 -34 -4 c-18
-2 -37 1 -40 7 -10 15 -42 14 -58 -3z"/>
<path d="M9720 2949 c0 -5 5 -7 10 -4 6 3 10 8 10 11 0 2 -4 4 -10 4 -5 0 -10
-5 -10 -11z"/>
<path d="M3275 2920 c-3 -5 1 -10 10 -10 9 0 13 5 10 10 -3 6 -8 10 -10 10 -2
0 -7 -4 -10 -10z"/>
<path d="M328 2913 c6 -2 18 -2 25 0 6 3 1 5 -13 5 -14 0 -19 -2 -12 -5z"/>
<path d="M60 2893 c0 -5 5 -15 10 -23 8 -12 10 -11 10 8 0 12 -4 22 -10 22 -5
0 -10 -3 -10 -7z"/>
<path d="M9854 2830 c-32 -13 -36 -37 -10 -65 33 -36 43 -31 44 20 1 50 -4 56
-34 45z"/>
<path d="M9970 2830 c0 -5 5 -12 10 -15 18 -11 10 -24 -17 -27 l-28 -3 29 -25
c61 -52 68 -61 62 -85 -3 -13 0 -27 7 -32 16 -13 51 -2 55 16 3 12 1 12 -13 1
-15 -12 -16 -10 -13 26 3 35 6 39 33 44 36 6 35 26 0 22 -19 -3 -27 3 -35 22
-7 19 -17 26 -35 26 -15 0 -25 6 -25 14 0 8 -7 16 -15 20 -8 3 -15 1 -15 -4z"/>
<path d="M9772 2818 c6 -18 25 -20 31 -3 5 10 0 15 -14 15 -12 0 -19 -5 -17
-12z"/>
<path d="M98 2808 c9 -9 15 -9 24 0 9 9 7 12 -12 12 -19 0 -21 -3 -12 -12z"/>
<path d="M10150 2789 c0 -5 5 -7 10 -4 6 3 10 8 10 11 0 2 -4 4 -10 4 -5 0
-10 -5 -10 -11z"/>
<path d="M9946 2723 c-8 -19 7 -38 22 -29 11 7 4 46 -8 46 -4 0 -11 -8 -14
-17z"/>
<path d="M3330 2423 c-8 -3 -25 -15 -37 -26 -52 -47 26 -136 86 -98 10 7 11
13 1 32 -11 23 -11 23 5 4 14 -17 17 -18 25 -5 29 46 -28 112 -80 93z m35 -63
c-3 -5 -13 -10 -21 -10 -8 0 -12 5 -9 10 3 6 13 10 21 10 8 0 12 -4 9 -10z"/>
<path d="M5545 1280 c-3 -5 -1 -10 4 -10 6 0 11 5 11 10 0 6 -2 10 -4 10 -3 0
-8 -4 -11 -10z"/>
<path d="M5824 1241 c4 -5 2 -11 -3 -13 -5 -1 -3 -12 5 -22 13 -19 14 -18 14
12 0 18 -5 32 -11 32 -5 0 -8 -4 -5 -9z"/>
<path d="M5777 1189 c7 -7 15 -10 18 -7 3 3 -2 9 -12 12 -14 6 -15 5 -6 -5z"/>
<path d="M5846 1182 c-9 -15 -1 -29 27 -43 21 -11 21 -11 6 7 -9 10 -18 26
-21 34 -3 10 -6 11 -12 2z"/>
<path d="M5940 1090 c0 -8 5 -22 10 -30 9 -13 10 -13 10 0 0 8 -5 22 -10 30
-9 13 -10 13 -10 0z"/>
<path d="M4286 836 c-10 -15 -12 -27 -6 -31 6 -3 10 0 10 8 0 8 10 13 22 13
14 -1 24 6 26 17 5 26 -33 21 -52 -7z"/>
<path d="M4105 420 c-3 -6 1 -7 9 -4 18 7 21 14 7 14 -6 0 -13 -4 -16 -10z"/>
<path d="M225 240 c-12 -23 -13 -35 -5 -50 6 -11 15 -18 21 -15 5 4 8 1 7 -7
-2 -7 7 -14 20 -16 12 -2 22 2 22 8 0 8 6 8 21 -1 20 -10 21 -9 14 23 -4 18
-10 35 -14 38 -3 3 -6 11 -6 19 0 8 -6 16 -14 19 -8 3 -11 0 -7 -7 4 -6 2 -11
-3 -11 -6 0 -11 4 -11 9 0 5 -7 11 -15 15 -10 3 -20 -5 -30 -24z"/>
<path d="M40 190 c0 -13 11 -13 30 0 12 8 11 10 -7 10 -13 0 -23 -4 -23 -10z"/>
<path d="M10209 181 c-13 -11 -21 -23 -17 -27 4 -4 14 -1 22 5 11 10 15 8 19
-6 3 -10 5 -3 6 15 1 38 0 38 -30 13z"/>
<path d="M10155 169 c-4 -6 -5 -12 -2 -15 2 -3 7 2 10 11 7 17 1 20 -8 4z"/>
<path d="M10180 122 c-20 -9 -24 -31 -9 -48 14 -17 29 -9 29 17 0 10 5 19 10
19 6 0 10 -13 10 -29 0 -17 5 -33 10 -36 6 -4 10 10 10 33 0 47 -20 62 -60 44z"/>
<path d="M5445 70 c-3 -5 -2 -10 4 -10 5 0 13 5 16 10 3 6 2 10 -4 10 -5 0
-13 -4 -16 -10z"/>
</g>
</svg>
